<svg width="297" height="289" viewBox="0 0 297 289" fill="none" xmlns="http://www.w3.org/2000/svg">
<g clip-path="url(#clip0_53_14303)">
<path d="M189.432 64.7832H173.629V199.32C173.629 201.43 173.213 203.521 172.404 205.471C171.595 207.421 170.409 209.193 168.915 210.686C167.42 212.178 165.646 213.362 163.693 214.17C161.74 214.978 159.647 215.393 157.533 215.393H36.7148V215.547C36.7148 217.658 37.1312 219.748 37.9401 221.698C38.749 223.649 39.9347 225.421 41.4294 226.913C42.9241 228.406 44.6985 229.59 46.6515 230.397C48.6044 231.205 50.6975 231.621 52.8113 231.621H189.432C191.546 231.621 193.639 231.205 195.592 230.397C197.545 229.59 199.319 228.406 200.814 226.913C202.309 225.421 203.494 223.649 204.303 221.698C205.112 219.748 205.528 217.658 205.528 215.547V80.857C205.528 76.5939 203.832 72.5055 200.814 69.4911C197.795 66.4767 193.701 64.7832 189.432 64.7832Z" fill="#F2F2F2"/>
<path d="M264.343 278.583C264.623 278.596 264.9 278.522 265.137 278.373C265.373 278.223 265.558 278.005 265.666 277.747C265.774 277.489 265.8 277.204 265.741 276.93C265.681 276.657 265.539 276.409 265.333 276.219L265.24 275.847C265.252 275.818 265.264 275.788 265.277 275.758C265.559 275.093 266.031 274.527 266.634 274.129C267.238 273.731 267.945 273.521 268.668 273.523C269.391 273.526 270.097 273.742 270.697 274.144C271.298 274.546 271.766 275.116 272.043 275.783C273.149 278.445 274.558 281.111 274.905 283.925C275.058 285.169 274.994 286.429 274.715 287.651C277.314 281.99 278.663 275.836 278.672 269.608C278.673 268.045 278.586 266.484 278.412 264.93C278.268 263.657 278.068 262.393 277.813 261.138C276.42 254.328 273.429 247.944 269.086 242.512C266.984 241.367 265.284 239.606 264.215 237.466C263.828 236.697 263.554 235.876 263.402 235.028C263.639 235.059 264.296 231.453 264.118 231.232C264.448 230.731 265.04 230.482 265.4 229.993C267.195 227.563 269.668 227.987 270.959 231.29C273.717 232.68 273.744 234.985 272.052 237.202C270.975 238.612 270.827 240.521 269.883 242.031C269.98 242.155 270.081 242.276 270.178 242.4C271.955 244.681 273.503 247.131 274.801 249.713C274.485 246.82 274.862 243.893 275.9 241.173C276.953 238.638 278.925 236.504 280.661 234.312C281.121 233.724 281.745 233.284 282.454 233.05C283.163 232.815 283.926 232.796 284.647 232.994C285.367 233.192 286.013 233.6 286.501 234.164C286.99 234.729 287.3 235.425 287.393 236.166C287.396 236.198 287.4 236.23 287.403 236.263C287.145 236.408 286.893 236.562 286.646 236.725C286.335 236.932 286.095 237.228 285.956 237.574C285.817 237.92 285.785 238.3 285.866 238.664C285.947 239.028 286.136 239.359 286.408 239.614C286.681 239.869 287.024 240.035 287.393 240.092L287.43 240.098C287.338 241.026 287.176 241.946 286.944 242.85C289.172 251.454 284.362 254.588 277.494 254.729C277.343 254.806 277.195 254.884 277.043 254.958C278.347 258.648 279.165 262.493 279.477 266.394C279.653 268.696 279.643 271.008 279.446 273.308L279.457 273.226C279.955 270.669 281.321 268.361 283.325 266.693C286.302 264.251 290.507 263.352 293.719 261.389C294.06 261.17 294.457 261.054 294.862 261.053C295.268 261.052 295.665 261.167 296.007 261.384C296.35 261.601 296.623 261.911 296.794 262.278C296.966 262.645 297.029 263.054 296.975 263.455L296.962 263.541C296.484 263.735 296.017 263.96 295.567 264.212C295.309 264.358 295.056 264.512 294.809 264.675C294.499 264.882 294.258 265.178 294.119 265.524C293.98 265.87 293.949 266.25 294.03 266.614C294.11 266.977 294.299 267.309 294.572 267.563C294.844 267.818 295.187 267.985 295.556 268.042L295.594 268.048C295.621 268.052 295.644 268.055 295.672 268.059C294.854 270.01 293.706 271.805 292.278 273.366C290.885 280.877 284.901 281.59 278.501 279.402H278.497C277.795 282.45 276.777 285.416 275.461 288.253H264.615C264.576 288.133 264.541 288.008 264.506 287.888C265.51 287.951 266.518 287.891 267.507 287.71C266.703 286.724 265.898 285.73 265.093 284.744C265.075 284.725 265.059 284.706 265.043 284.686C264.635 284.181 264.223 283.68 263.814 283.176L263.814 283.175C263.792 281.628 263.971 280.085 264.343 278.583Z" fill="#F2F2F2"/>
<path d="M144.886 46.4824C145.282 47.0815 145.803 47.5876 146.414 47.9656C147.025 48.3436 147.711 48.5845 148.425 48.6717C149.138 48.7589 149.862 48.6903 150.547 48.4707C151.231 48.251 151.86 47.8855 152.389 47.3995L174.938 57.5584L179.285 52.021L152.415 40.1506C151.529 39.3223 150.37 38.8472 149.157 38.8152C147.944 38.7832 146.762 39.1966 145.834 39.9771C144.906 40.7576 144.297 41.8509 144.122 43.0499C143.947 44.2489 144.219 45.4702 144.886 46.4824Z" fill="#A0616A"/>
<path d="M241.655 52.8172L243.892 65.4725C243.996 66.0629 243.976 66.6685 243.832 67.2506C243.688 67.8326 243.424 68.3782 243.056 68.8523C242.688 69.3263 242.226 69.7184 241.697 70.0033C241.169 70.2882 240.587 70.4597 239.989 70.5067L201.987 73.4908L157.318 53.5276L162.653 43.4141L201.43 55.6762L241.655 52.8172Z" fill="#F58218"/>
<path d="M152.717 43.748H16.0965C7.20665 43.748 0 50.9445 0 59.8218V194.512C0 203.389 7.20665 210.586 16.0965 210.586H152.717C161.607 210.586 168.814 203.389 168.814 194.512V59.8218C168.814 50.9445 161.607 43.748 152.717 43.748Z" fill="#F2F2F2"/>
<path d="M16.0968 47.0527C14.4177 47.0527 12.755 47.383 11.2037 48.0246C9.6524 48.6663 8.24286 49.6068 7.05555 50.7924C5.86823 51.9781 4.9264 53.3856 4.28383 54.9347C3.64126 56.4838 3.31055 58.1442 3.31055 59.8209V194.511C3.31055 197.898 4.65766 201.145 7.05555 203.54C9.45343 205.934 12.7057 207.279 16.0968 207.279H103.291C111.461 207.279 119.551 205.673 127.099 202.551C134.647 199.429 141.505 194.853 147.282 189.084C153.059 183.315 157.641 176.466 160.768 168.929C163.894 161.392 165.503 153.314 165.503 145.155V59.8209C165.503 58.1442 165.173 56.4838 164.53 54.9347C163.887 53.3856 162.946 51.9781 161.758 50.7924C160.571 49.6068 159.162 48.6663 157.61 48.0246C156.059 47.383 154.396 47.0527 152.717 47.0527H16.0968Z" fill="white"/>
<path d="M122.599 87.9295H45.9167C45.2131 87.9295 44.5383 87.6504 44.0407 87.1535C43.5432 86.6567 43.2637 85.9828 43.2637 85.2802C43.2637 84.5775 43.5432 83.9037 44.0407 83.4068C44.5383 82.91 45.2131 82.6309 45.9167 82.6309H122.599C123.303 82.6309 123.977 82.91 124.475 83.4068C124.973 83.9037 125.252 84.5775 125.252 85.2802C125.252 85.9828 124.973 86.6567 124.475 87.1535C123.977 87.6504 123.303 87.9295 122.599 87.9295Z" fill="#F2F2F2"/>
<path d="M122.599 144.426H45.9167C45.2131 144.426 44.5383 144.146 44.0407 143.65C43.5432 143.153 43.2637 142.479 43.2637 141.776C43.2637 141.074 43.5432 140.4 44.0407 139.903C44.5383 139.406 45.2131 139.127 45.9167 139.127H122.599C123.303 139.127 123.977 139.406 124.475 139.903C124.973 140.4 125.252 141.074 125.252 141.776C125.252 142.479 124.973 143.153 124.475 143.65C123.977 144.146 123.303 144.426 122.599 144.426Z" fill="#F2F2F2"/>
<path d="M153.738 116.196H14.7781C14.0744 116.196 13.3996 115.917 12.9021 115.42C12.4045 114.923 12.125 114.249 12.125 113.547C12.125 112.844 12.4045 112.17 12.9021 111.673C13.3996 111.177 14.0744 110.897 14.7781 110.897H153.738C154.442 110.897 155.117 111.177 155.614 111.673C156.112 112.17 156.391 112.844 156.391 113.547C156.391 114.249 156.112 114.923 155.614 115.42C155.117 115.917 154.442 116.196 153.738 116.196Z" fill="#F2F2F2"/>
<path d="M236.855 108.597L223.012 138.047L276.263 132.661L265.148 104.39L236.855 108.597Z" fill="#A0616A"/>
<path d="M249.235 277.864L244.186 277.821L241.951 257.921L249.402 257.984L249.235 277.864Z" fill="#A0616A"/>
<path d="M233.063 285.881C233.058 286.479 233.291 287.054 233.711 287.48C234.13 287.906 234.702 288.149 235.301 288.155L245.339 288.239L247.096 284.681L247.742 288.257L251.529 288.291L250.573 275.539L249.255 275.452L243.88 275.082L242.146 274.966L242.116 278.574L234.052 284.036C233.75 284.24 233.502 284.515 233.329 284.837C233.157 285.158 233.066 285.516 233.063 285.881Z" fill="#2F2E41"/>
<path d="M193.361 277.887L188.547 276.365L192.266 256.688L199.37 258.934L193.361 277.887Z" fill="#A0616A"/>
<path d="M175.544 280.806C175.364 281.376 175.418 281.994 175.693 282.524C175.969 283.055 176.444 283.454 177.014 283.636L186.585 286.661L189.312 283.776L188.877 287.383L192.487 288.527L195.325 276.058L194.091 275.587L189.062 273.657L187.438 273.037L186.348 276.477L177.033 279.332C176.684 279.439 176.366 279.629 176.107 279.886C175.847 280.142 175.654 280.458 175.544 280.806Z" fill="#2F2E41"/>
<path d="M273.838 124.379L225.419 133.238C225.419 133.238 217.653 139.039 219.73 141.117C221.808 143.194 222.13 142.873 220.765 144.236C219.4 145.599 216.449 147.421 216.42 148.613C216.391 149.806 194.724 203.297 194.724 203.297C194.724 203.297 197.131 202.095 195.326 203.898C193.52 205.701 193.52 207.191 193.52 207.191L185.094 264L198.778 264.804L212.178 213.012L242.066 164.628C242.066 164.628 245.032 207.775 245.156 210.644C245.281 213.514 247.086 209.908 245.281 213.514C243.475 217.12 242.272 214.716 243.475 217.12C244.679 219.524 239.139 268.468 239.139 268.468H251.63L278.419 167.021C278.419 167.021 287.95 138.018 273.838 124.379Z" fill="#2F2E41"/>
<path d="M259.575 43.2341L240.18 41.2217L235.155 47.7363L229.301 50.8497C226.824 52.1673 224.779 54.1695 223.411 56.617C222.043 59.0644 221.41 61.8535 221.588 64.6506L228.429 104.39C228.429 104.39 222.65 117.383 226.623 120.617C230.596 123.851 223.552 131.861 232.04 127.829C240.529 123.798 277.181 128.43 277.181 128.43L269.356 106.193L275.201 84.341L275.845 66.0186C275.965 62.5948 274.947 59.2275 272.951 56.4415C270.954 53.6555 268.091 51.6074 264.807 50.6164L263.989 50.3697L259.575 43.2341Z" fill="#F58218"/>
<path d="M286.277 28.3862C286.404 33.8453 284.361 39.1312 281.426 43.7741C280.554 41.0637 278.986 38.5968 277.351 36.2452C278.175 41.3324 277.297 46.549 274.853 51.0878C274.767 51.1493 274.678 51.2065 274.586 51.259C272.193 52.696 269.16 53.2781 266.572 52.2402C271.919 46.4844 272.6 36.9479 268.117 30.4918C266.848 28.6599 265.206 27.0397 264.42 24.9549C263.179 21.6286 264.372 17.9662 265.125 14.4981C265.829 11.2704 265.952 7.42933 263.783 5.06381C264.015 4.73323 264.33 4.47009 264.697 4.30135C265.064 4.13261 265.47 4.06434 265.872 4.10354C267.209 4.29213 268.182 5.45262 268.802 6.64785C269.422 7.84305 269.83 9.16774 270.694 10.2001C272.294 12.1324 275.018 12.5892 277.314 13.6076C282.874 16.0805 286.143 22.3117 286.277 28.3862Z" fill="#2F2E41"/>
<path d="M143.035 288.285C143.035 288.379 143.053 288.472 143.089 288.559C143.125 288.645 143.178 288.724 143.244 288.791C143.311 288.857 143.39 288.91 143.477 288.946C143.564 288.982 143.657 289 143.751 289H296.199C296.389 289 296.571 288.924 296.706 288.79C296.84 288.656 296.916 288.474 296.916 288.285C296.916 288.095 296.84 287.913 296.706 287.779C296.571 287.645 296.389 287.569 296.199 287.569H143.751C143.657 287.569 143.564 287.587 143.477 287.623C143.39 287.659 143.311 287.712 143.244 287.778C143.178 287.845 143.125 287.924 143.089 288.01C143.053 288.097 143.035 288.191 143.035 288.285Z" fill="#CCCCCC"/>
<path d="M287.477 154.912C290.469 154.912 292.894 152.49 292.894 149.503C292.894 146.516 290.469 144.094 287.477 144.094C284.486 144.094 282.061 146.516 282.061 149.503C282.061 152.49 284.486 154.912 287.477 154.912Z" fill="#F58218"/>
<path d="M239.476 25.265C239.793 24.1545 237.603 30.9424 238.66 31.065C243.473 31.6163 250.08 34.4867 253.432 35.8258C253.583 35.8082 253.734 35.7907 253.881 35.7689C254.24 35.7295 254.591 35.6726 254.937 35.607C262.743 34.1322 265.744 22.159 265.744 22.0497C265.744 21.5114 264.451 6.72782 262.413 6.50905C261.877 6.45105 261.339 6.42183 260.801 6.42152H255.744C254.697 6.19634 253.637 6.04282 252.569 5.96203H252.56C242.38 5.18745 234.352 11.384 235.102 18.924C235.107 18.9328 235.116 18.9415 235.12 18.9503C235.338 19.2741 235.529 19.5805 235.697 19.8736C235.862 20.1493 235.999 20.4119 236.119 20.6613C237.047 22.5868 234.662 25.0097 236.244 25.4619C238.347 26.0634 230.711 45.8327 239.037 45.8327C234.987 46.9825 238.599 28.3282 239.476 25.265Z" fill="#2F2E41"/>
<path d="M248.565 36.865C255.178 36.865 260.539 31.512 260.539 24.9086C260.539 18.3052 255.178 12.9521 248.565 12.9521C241.952 12.9521 236.592 18.3052 236.592 24.9086C236.592 31.512 241.952 36.865 248.565 36.865Z" fill="#A0616A"/>
<path d="M235.104 19.5762C235.303 19.6812 235.499 19.7775 235.698 19.8738C235.907 19.9744 236.116 20.0751 236.325 20.167C240.334 21.9831 243.597 22.1843 245.577 19.5762C245.63 18.2039 245.939 16.8534 246.488 15.5939C246.391 17.0014 246.762 18.4013 247.544 19.5762H251.531C255.638 22.2981 257.747 22.5826 254.897 31.5186C254.102 34.0086 250.942 48.4978 252.185 50.6465C252.545 50.6071 256.371 34.7369 256.717 34.6713C264.523 33.1965 269.482 20.3551 268.847 19.6287C268.85 17.563 268.375 15.5245 267.458 13.6728C266.297 11.3269 264.488 9.36193 262.245 8.01018C260.908 7.3627 259.514 6.83973 258.08 6.44791C258.045 6.43915 258.014 6.43039 257.978 6.42165C257.539 6.30349 257.09 6.19409 256.642 6.10219C255.715 5.90685 254.778 5.76512 253.836 5.67771C253.769 5.67333 253.703 5.66895 253.64 5.66895C253.264 5.66983 252.895 5.77105 252.57 5.96217C252.566 5.96217 252.566 5.96652 252.561 5.96652C252.33 6.1017 252.128 6.28172 251.966 6.49602C251.683 6.8566 251.53 7.30224 251.531 7.76072H247.091C246.927 7.76072 246.763 7.76509 246.599 7.77383C243.635 7.87496 240.816 9.07668 238.694 11.1438C236.571 13.211 235.297 15.9948 235.121 18.9504C235.108 19.1605 235.104 19.3661 235.104 19.5762Z" fill="#2F2E41"/>
<path d="M261.283 15.754C265.639 15.754 269.171 12.2273 269.171 7.87698C269.171 3.52664 265.639 0 261.283 0C256.926 0 253.395 3.52664 253.395 7.87698C253.395 12.2273 256.926 15.754 261.283 15.754Z" fill="#2F2E41"/>
<path d="M287.538 151.733C287.923 151.127 288.171 150.445 288.266 149.733C288.361 149.022 288.3 148.298 288.087 147.612C287.875 146.927 287.515 146.295 287.034 145.762C286.553 145.229 285.962 144.806 285.301 144.523L285.34 119.821L278.5 118.13L278.669 147.47C278.275 148.616 278.316 149.867 278.784 150.985C279.251 152.102 280.114 153.01 281.207 153.536C282.3 154.061 283.549 154.168 284.715 153.836C285.882 153.504 286.886 152.756 287.538 151.733Z" fill="#A0616A"/>
<path d="M253.666 60.9903L264.31 53.767C264.806 53.43 265.368 53.2005 265.959 53.093C266.549 52.9856 267.156 53.0027 267.739 53.1432C268.323 53.2837 268.871 53.5446 269.348 53.909C269.824 54.2734 270.22 54.7333 270.508 55.2593L288.807 88.6512L288.877 137.52L277.452 136.805L272.762 96.4592L253.666 60.9903Z" fill="#F58218"/>
<path d="M171.922 171.818H58.1688C55.6946 171.818 53.3218 172.8 51.5722 174.547C49.8227 176.294 48.8398 178.663 48.8398 181.134C48.8398 183.605 49.8227 185.974 51.5722 187.721C53.3218 189.469 55.6946 190.45 58.1688 190.45H171.922C174.397 190.45 176.77 189.469 178.519 187.721C180.269 185.974 181.251 183.605 181.251 181.134C181.251 178.663 180.269 176.294 178.519 174.547C176.77 172.8 174.397 171.818 171.922 171.818Z" fill="white"/>
<path d="M171.923 191.051H58.1692C55.5353 191.051 53.0094 190.007 51.147 188.147C49.2846 186.287 48.2383 183.765 48.2383 181.135C48.2383 178.505 49.2846 175.982 51.147 174.122C53.0094 172.263 55.5353 171.218 58.1692 171.218H171.923C174.557 171.218 177.083 172.263 178.945 174.122C180.807 175.982 181.854 178.505 181.854 181.135C181.854 183.765 180.807 186.287 178.945 188.147C177.083 190.007 174.557 191.051 171.923 191.051ZM58.1692 172.42C55.8546 172.42 53.6348 173.338 51.9981 174.972C50.3615 176.607 49.442 178.823 49.442 181.135C49.442 183.446 50.3615 185.663 51.9981 187.297C53.6348 188.931 55.8546 189.849 58.1692 189.849H171.923C174.237 189.849 176.457 188.931 178.094 187.297C179.73 185.663 180.65 183.446 180.65 181.135C180.65 178.823 179.73 176.607 178.094 174.972C176.457 173.338 174.237 172.42 171.923 172.42H58.1692Z" fill="#F58218"/>
<path d="M178.63 212.473H128.43C127.727 212.473 127.052 212.194 126.554 211.697C126.057 211.201 125.777 210.527 125.777 209.824C125.777 209.121 126.057 208.448 126.554 207.951C127.052 207.454 127.727 207.175 128.43 207.175H178.63C179.334 207.175 180.009 207.454 180.506 207.951C181.004 208.448 181.283 209.121 181.283 209.824C181.283 210.527 181.004 211.201 180.506 211.697C180.009 212.194 179.334 212.473 178.63 212.473Z" fill="#F58218"/>
</g>
<defs>
<clipPath id="clip0_53_14303">
<rect width="297" height="289" fill="white"/>
</clipPath>
</defs>
</svg>
