<svg width="305" height="317" viewBox="0 0 305 317" fill="none" xmlns="http://www.w3.org/2000/svg">
<path d="M259.869 112.654C259.418 115.029 258.877 117.379 258.246 119.706C258.177 119.976 258.101 120.242 258.024 120.512L256.362 129.915C255.615 129.916 255.519 131.673 254.99 132.202C254.461 132.731 252.704 134.656 252.703 135.404L246.426 148.381C246.16 148.876 245.89 149.368 245.62 149.86C244.227 152.4 242.776 154.912 241.294 157.392C217.12 197.693 183.404 231.418 143.122 255.589L145.508 250.202C144.633 250.142 143.755 250.081 142.881 250.021C123.846 248.719 104.747 247.275 86.1591 242.993C66.7134 238.514 47.6908 230.744 32.4509 217.862C17.2068 204.976 6.03177 186.575 4.48075 166.665C3.96356 159.823 4.655 152.943 6.52334 146.34C10.0965 133.632 17.9039 122.197 29.1677 115.432C46.8609 104.808 69.9404 106.973 88.5924 115.811C107.24 124.645 122.42 139.268 137.241 153.638C122.277 127.956 101.442 106.191 76.4464 90.1275C68.1637 84.8215 59.3736 80.0961 52.3317 73.2217C45.2938 66.3514 40.101 56.7191 41.3459 46.9579C42.7598 35.8863 51.8201 27.4838 60.8963 21.0045C64.522 18.416 68.2645 15.9606 72.1238 13.7027C83.0129 7.31616 94.7923 2.49803 107.232 0.711897C124.084 -1.71128 142.285 1.96582 155.204 13.0616C169.759 25.5646 175.729 45.7281 175.161 65.0168C184.129 51.9695 197.959 41.9825 213.577 41.5592C229.792 41.1237 245.206 51.3768 253.327 65.4321C261.445 79.4833 262.903 96.7076 259.869 112.654Z" fill="#E6E6E6" fill-opacity="0.57"/>
<path d="M157.277 166.84C166.775 166.003 175.548 165.025 184.75 162.419C193.671 159.893 202.255 155.664 208.605 148.758C215.435 141.331 219.123 131.685 221.724 122.083C223.174 116.729 224.366 111.301 225.491 105.87C226.711 99.9784 227.795 94.0604 228.743 88.1164C230.63 76.2848 231.977 64.3834 232.785 52.4124C232.882 50.9593 232.972 49.5057 233.053 48.0516C233.103 47.1546 231.709 47.1574 231.659 48.0516C230.996 59.8516 229.803 71.6056 228.08 83.3136C226.379 94.8166 224.204 106.27 221.444 117.567C219.105 127.137 216.078 136.857 210.081 144.823C204.457 152.294 196.335 157.176 187.565 160.095C178.64 163.066 169.231 164.251 159.905 165.133C158.761 165.241 158.422 165.344 157.277 165.445C156.391 165.524 156.383 166.919 157.277 166.84Z" fill="white"/>
<path d="M7.32551 147.369C19.3078 148.034 31.1683 150.126 42.656 153.6C54.1487 157.067 65.1928 161.878 75.5595 167.934C85.5764 173.79 94.8755 180.798 103.268 188.814C111.413 196.598 118.671 205.26 124.912 214.643C131.181 224.049 136.376 234.129 140.4 244.694C140.891 245.987 141.363 247.287 141.818 248.593C142.112 249.435 143.459 249.073 143.162 248.222C139.397 237.434 134.434 227.103 128.366 217.423C122.299 207.743 115.179 198.765 107.136 190.655C98.9635 182.419 89.8686 175.155 80.0314 169.007C59.3767 156.13 35.9647 148.34 11.718 146.277C10.2554 146.154 8.79123 146.053 7.32553 145.974C6.42918 145.925 6.43191 147.32 7.32551 147.369Z" fill="white"/>
<path d="M72.5012 15.3379C80.1625 17.7765 87.4244 21.3281 94.0544 25.879C100.829 30.5609 107.008 36.0527 112.453 42.2325C118.192 48.7334 123.294 55.7706 127.689 63.2472C132.351 71.1415 136.401 79.3821 139.803 87.8964C143.306 96.6378 146.253 105.592 148.625 114.707C151.036 123.929 152.92 133.281 154.266 142.718C155.606 152.055 156.416 161.461 156.694 170.889C156.974 179.905 156.708 188.929 155.897 197.913C155.155 206.294 153.8 214.609 151.843 222.792C150.105 230.183 147.655 237.387 144.529 244.305C143.805 245.875 143.036 247.423 142.224 248.95C141.802 249.742 143.005 250.448 143.427 249.654C146.882 243.046 149.641 236.097 151.659 228.918C153.923 220.927 155.565 212.771 156.568 204.525C157.681 195.579 158.222 186.571 158.19 177.556C158.17 168.085 157.607 158.623 156.503 149.217C155.399 139.693 153.759 130.239 151.592 120.9C149.431 111.545 146.688 102.335 143.382 93.322C140.195 84.5968 136.379 76.1149 131.964 67.943C127.76 60.145 122.86 52.7431 117.324 45.8276C112.067 39.243 106.065 33.2904 99.4388 28.0887C93.0492 23.088 85.9885 19.0118 78.4642 15.9799C76.6255 15.2474 74.7613 14.585 72.8718 13.9926C72.0141 13.7226 71.6471 15.0689 72.5012 15.3379Z" fill="white"/>
<path d="M129.706 316.064C184.772 316.064 229.412 314.259 229.412 312.032C229.412 309.805 184.772 308 129.706 308C74.6399 308 30 309.805 30 312.032C30 314.259 74.6399 316.064 129.706 316.064Z" fill="#E6E6E6"/>
<path d="M142.966 143.403C142.901 143.69 142.858 143.982 142.839 144.275L120.013 157.454L114.465 154.258L108.551 162.007L120.42 170.474L146.46 149.913C147.522 150.306 148.679 150.367 149.776 150.086C150.873 149.806 151.859 149.197 152.602 148.342C153.346 147.488 153.812 146.426 153.938 145.3C154.064 144.174 153.844 143.035 153.308 142.037C152.772 141.038 151.946 140.227 150.938 139.71C149.93 139.194 148.788 138.996 147.666 139.145C146.543 139.293 145.492 139.78 144.652 140.541C143.813 141.301 143.225 142.3 142.966 143.403Z" fill="#FFB8B8"/>
<path d="M90.9844 151.491L108.957 164.311L116.995 154.224L99.5242 140.194C98.7726 139.59 97.9057 139.147 96.9768 138.89C96.0478 138.634 95.0763 138.569 94.1217 138.702C93.1671 138.834 92.2497 139.16 91.4254 139.66C90.6011 140.16 89.8875 140.823 89.3282 141.608C88.2384 143.138 87.8006 145.039 88.1112 146.893C88.4218 148.746 89.4554 150.4 90.9844 151.491Z" fill="#F58218"/>
<path d="M53.8828 297.77L60.1846 299.422L69.5523 275.883L60.2521 273.443L53.8828 297.77Z" fill="#FFB8B8"/>
<path d="M70.8047 308.465L51 303.271L53.005 295.613L65.1578 298.8C67.1872 299.332 68.9223 300.649 69.9813 302.462C71.0402 304.274 71.3364 306.434 70.8047 308.465Z" fill="#2F2E41"/>
<path d="M109.901 302.26L116.313 301.114L114.947 275.812L105.482 277.505L109.901 302.26Z" fill="#FFB8B8"/>
<path d="M129.744 304.861L109.59 308.464L108.199 300.671L120.566 298.46C121.589 298.277 122.637 298.298 123.652 298.521C124.667 298.743 125.628 299.164 126.48 299.758C127.332 300.353 128.059 301.109 128.619 301.985C129.179 302.86 129.561 303.838 129.744 304.861Z" fill="#2F2E41"/>
<path d="M97.2702 116.187C98.8504 116.572 100.136 118.184 100.908 120.05C101.62 122.011 102.102 124.048 102.345 126.121C102.951 129.98 103.534 134.158 102.279 137.732C100.809 141.921 96.8903 144.115 93.4914 143.084C90.0925 142.053 87.3892 138.182 86.4656 133.727C85.6248 129.226 86.1666 124.575 88.0195 120.388C88.985 118.188 90.3159 116.158 92.0845 115.165C92.9521 114.64 93.9861 114.463 94.9786 114.67C95.9711 114.877 96.8485 115.453 97.4343 116.281" fill="#2F2E41"/>
<path d="M106.213 186.06L118.422 295.5L108.339 299.332L89.7413 225.944L63.8496 293.045L52.8125 293.659C52.8125 293.659 67.956 189.25 79.1789 186.878L106.213 186.06Z" fill="#2F2E41"/>
<path d="M95.9587 130.155C103.166 130.155 109.009 124.307 109.009 117.094C109.009 109.88 103.166 104.032 95.9587 104.032C88.7511 104.032 82.9082 109.88 82.9082 117.094C82.9082 124.307 88.7511 130.155 95.9587 130.155Z" fill="#FFB8B8"/>
<path d="M101.56 135.634L87.4572 133.793C87.4572 133.793 78.2596 144.839 78.8728 163.864C79.486 182.888 77.3398 188.718 77.3398 188.718L106.745 189.25C102.494 183.4 120.274 149.803 101.56 135.634Z" fill="#F58218"/>
<path d="M109.136 191.908C108.842 191.91 108.549 191.936 108.259 191.984L90.2167 172.762L92.0562 166.625L83.1652 162.636L77.6465 176.137L103.604 196.802C103.464 197.927 103.67 199.068 104.194 200.072C104.718 201.077 105.536 201.898 106.537 202.427C107.539 202.956 108.678 203.167 109.802 203.032C110.927 202.897 111.983 202.423 112.832 201.672C113.68 200.921 114.28 199.93 114.552 198.83C114.824 197.729 114.755 196.572 114.354 195.512C113.953 194.453 113.238 193.54 112.306 192.896C111.374 192.252 110.269 191.908 109.136 191.908Z" fill="#FFB8B8"/>
<path d="M89.376 143.113L81.0195 163.557L92.6698 169.08L102.318 148.848C102.733 147.977 102.966 147.031 103.003 146.067C103.04 145.104 102.88 144.142 102.533 143.243C102.186 142.343 101.659 141.524 100.984 140.835C100.309 140.146 99.5013 139.603 98.6093 139.238C97.7488 138.885 96.8274 138.706 95.8977 138.71C94.968 138.714 94.0481 138.901 93.1907 139.261C92.3333 139.621 91.5552 140.146 90.9006 140.807C90.2461 141.468 89.728 142.252 89.376 143.113Z" fill="#F58218"/>
<path d="M92.5451 128.968C94.59 127.787 94.8081 124.939 94.5302 122.593C94.2523 120.246 93.7881 117.631 95.1661 115.712C96.8107 113.423 100.115 113.377 102.932 113.302C105.748 113.228 109.178 112.402 109.908 109.679C110.39 107.879 109.358 105.948 107.878 104.818C106.397 103.688 104.545 103.189 102.745 102.714C98.7175 101.652 94.5591 100.581 90.4354 101.165C86.351 101.743 82.6581 103.907 80.156 107.19C77.6538 110.472 76.5435 114.608 77.0652 118.704C77.7327 123.942 78.7007 126.23 78.0653 128.54C76.8818 132.842 71.7789 135.606 71.6773 140.067C71.5978 143.557 74.6776 146.249 77.6824 148.021C80.0658 149.426 82.6381 150.619 85.3849 150.948C88.1316 151.277 91.0888 150.647 93.135 148.784C95.7741 146.381 96.4269 142.366 95.6701 138.876C94.9134 135.386 92.9722 132.287 91.0519 129.278" fill="#2F2E41"/>
<path d="M300.767 119.705H157.755C156.793 119.707 155.872 120.089 155.192 120.77C154.513 121.45 154.13 122.372 154.129 123.334V215.261C154.13 216.223 154.513 217.145 155.192 217.826C155.872 218.506 156.793 218.889 157.755 218.89H300.767C301.728 218.889 302.65 218.506 303.329 217.826C304.009 217.145 304.392 216.223 304.393 215.261V123.334C304.392 122.372 304.009 121.45 303.329 120.77C302.65 120.089 301.728 119.707 300.767 119.705ZM303.587 215.261C303.586 216.01 303.289 216.727 302.76 217.256C302.232 217.785 301.515 218.083 300.767 218.084H157.755C157.007 218.083 156.29 217.785 155.761 217.256C155.233 216.727 154.935 216.01 154.935 215.261V123.334C154.935 122.586 155.233 121.868 155.761 121.339C156.29 120.81 157.007 120.512 157.755 120.511H300.767C301.515 120.512 302.232 120.81 302.76 121.339C303.289 121.868 303.586 122.586 303.587 123.334V215.261Z" fill="#3F3D56"/>
<path d="M188.281 165.466H165.721C164.813 165.465 163.943 165.104 163.301 164.461C162.659 163.819 162.298 162.948 162.297 162.039V139.46C162.298 138.552 162.659 137.681 163.301 137.038C163.943 136.396 164.813 136.034 165.721 136.033H188.281C189.189 136.034 190.059 136.396 190.701 137.038C191.343 137.681 191.704 138.552 191.705 139.46V162.039C191.704 162.948 191.343 163.819 190.701 164.461C190.059 165.104 189.189 165.465 188.281 165.466Z" fill="#F58218"/>
<path d="M293.32 189.459H165.212C164.518 189.459 163.852 189.183 163.361 188.692C162.87 188.2 162.594 187.534 162.594 186.839C162.594 186.143 162.87 185.477 163.361 184.985C163.852 184.494 164.518 184.218 165.212 184.218H293.32C294.014 184.218 294.68 184.494 295.171 184.985C295.662 185.477 295.938 186.143 295.938 186.839C295.938 187.534 295.662 188.2 295.171 188.692C294.68 189.183 294.014 189.459 293.32 189.459Z" fill="#CCCCCC"/>
<path d="M293.405 176.759H165.298C164.604 176.759 163.938 176.483 163.447 175.991C162.956 175.5 162.68 174.833 162.68 174.138C162.68 173.443 162.956 172.777 163.447 172.285C163.938 171.794 164.604 171.518 165.298 171.518H293.405C294.1 171.518 294.766 171.794 295.257 172.285C295.748 172.777 296.024 173.443 296.024 174.138C296.024 174.833 295.748 175.5 295.257 175.991C294.766 176.483 294.1 176.759 293.405 176.759Z" fill="#CCCCCC"/>
<path d="M230.156 159.417H211.222C210.528 159.417 209.862 159.141 209.37 158.65C208.879 158.158 208.604 157.492 208.604 156.797C208.604 156.101 208.879 155.435 209.37 154.943C209.862 154.452 210.528 154.176 211.222 154.176H230.156C230.851 154.176 231.517 154.452 232.008 154.943C232.499 155.435 232.775 156.101 232.775 156.797C232.775 157.492 232.499 158.158 232.008 158.65C231.517 159.141 230.851 159.417 230.156 159.417Z" fill="#CCCCCC"/>
<path d="M293.404 146.519H211.222C210.528 146.519 209.862 146.243 209.37 145.751C208.879 145.26 208.604 144.593 208.604 143.898C208.604 143.203 208.879 142.536 209.37 142.045C209.862 141.553 210.528 141.277 211.222 141.277H293.404C294.098 141.277 294.765 141.553 295.256 142.045C295.747 142.536 296.023 143.203 296.023 143.898C296.023 144.593 295.747 145.26 295.256 145.751C294.765 146.243 294.098 146.519 293.404 146.519Z" fill="#CCCCCC"/>
<path d="M226.935 202.362H165.212C164.518 202.362 163.852 202.085 163.361 201.594C162.87 201.103 162.594 200.436 162.594 199.741C162.594 199.046 162.87 198.379 163.361 197.888C163.852 197.396 164.518 197.12 165.212 197.12H226.935C227.629 197.12 228.295 197.396 228.786 197.888C229.277 198.379 229.553 199.046 229.553 199.741C229.553 200.436 229.277 201.103 228.786 201.594C228.295 202.085 227.629 202.362 226.935 202.362Z" fill="#CCCCCC"/>
<path d="M300.767 119.705H157.755C156.793 119.707 155.872 120.089 155.192 120.77C154.513 121.45 154.13 122.372 154.129 123.334V215.261C154.13 216.223 154.513 217.145 155.192 217.826C155.872 218.506 156.793 218.889 157.755 218.89H300.767C301.728 218.889 302.65 218.506 303.329 217.826C304.009 217.145 304.392 216.223 304.393 215.261V123.334C304.392 122.372 304.009 121.45 303.329 120.77C302.65 120.089 301.728 119.707 300.767 119.705ZM303.587 215.261C303.586 216.01 303.289 216.727 302.76 217.256C302.232 217.785 301.515 218.083 300.767 218.084H157.755C157.007 218.083 156.29 217.785 155.761 217.256C155.233 216.727 154.935 216.01 154.935 215.261V123.334C154.935 122.586 155.233 121.868 155.761 121.339C156.29 120.81 157.007 120.512 157.755 120.511H300.767C301.515 120.512 302.232 120.81 302.76 121.339C303.289 121.868 303.586 122.586 303.587 123.334V215.261Z" fill="#3F3D56"/>
<path d="M188.281 165.466H165.721C164.813 165.465 163.943 165.104 163.301 164.461C162.659 163.819 162.298 162.948 162.297 162.039V139.46C162.298 138.552 162.659 137.681 163.301 137.038C163.943 136.396 164.813 136.034 165.721 136.033H188.281C189.189 136.034 190.059 136.396 190.701 137.038C191.343 137.681 191.704 138.552 191.705 139.46V162.039C191.704 162.948 191.343 163.819 190.701 164.461C190.059 165.104 189.189 165.465 188.281 165.466Z" fill="#F58218"/>
<path d="M293.32 189.459H165.212C164.518 189.459 163.852 189.183 163.361 188.692C162.87 188.2 162.594 187.534 162.594 186.839C162.594 186.143 162.87 185.477 163.361 184.985C163.852 184.494 164.518 184.218 165.212 184.218H293.32C294.014 184.218 294.68 184.494 295.171 184.985C295.662 185.477 295.938 186.143 295.938 186.839C295.938 187.534 295.662 188.2 295.171 188.692C294.68 189.183 294.014 189.459 293.32 189.459Z" fill="#CCCCCC"/>
<path d="M293.405 176.759H165.298C164.604 176.759 163.938 176.483 163.447 175.991C162.956 175.5 162.68 174.833 162.68 174.138C162.68 173.443 162.956 172.777 163.447 172.285C163.938 171.794 164.604 171.518 165.298 171.518H293.405C294.1 171.518 294.766 171.794 295.257 172.285C295.748 172.777 296.024 173.443 296.024 174.138C296.024 174.833 295.748 175.5 295.257 175.991C294.766 176.483 294.1 176.759 293.405 176.759Z" fill="#CCCCCC"/>
<path d="M230.156 159.417H211.222C210.528 159.417 209.862 159.141 209.37 158.65C208.879 158.158 208.604 157.492 208.604 156.797C208.604 156.101 208.879 155.435 209.37 154.943C209.862 154.452 210.528 154.176 211.222 154.176H230.156C230.851 154.176 231.517 154.452 232.008 154.943C232.499 155.435 232.775 156.101 232.775 156.797C232.775 157.492 232.499 158.158 232.008 158.65C231.517 159.141 230.851 159.417 230.156 159.417Z" fill="#CCCCCC"/>
<path d="M293.404 146.519H211.222C210.528 146.519 209.862 146.243 209.37 145.751C208.879 145.26 208.604 144.593 208.604 143.898C208.604 143.203 208.879 142.536 209.37 142.045C209.862 141.553 210.528 141.277 211.222 141.277H293.404C294.098 141.277 294.765 141.553 295.256 142.045C295.747 142.536 296.023 143.203 296.023 143.898C296.023 144.593 295.747 145.26 295.256 145.751C294.765 146.243 294.098 146.519 293.404 146.519Z" fill="#CCCCCC"/>
<path d="M226.935 202.362H165.212C164.518 202.362 163.852 202.085 163.361 201.594C162.87 201.103 162.594 200.436 162.594 199.741C162.594 199.046 162.87 198.379 163.361 197.888C163.852 197.396 164.518 197.12 165.212 197.12H226.935C227.629 197.12 228.295 197.396 228.786 197.888C229.277 198.379 229.553 199.046 229.553 199.741C229.553 200.436 229.277 201.103 228.786 201.594C228.295 202.085 227.629 202.362 226.935 202.362Z" fill="#CCCCCC"/>
<path d="M99.2731 25.2568H2.45455C1.80387 25.2578 1.18011 25.517 0.720006 25.9774C0.2599 26.4379 0.00097888 27.0622 0 27.7134V89.9477C0.00097888 90.5989 0.2599 91.2232 0.720006 91.6837C1.18011 92.1441 1.80387 92.4033 2.45455 92.4043H99.2731C99.9237 92.4033 100.547 92.1441 101.008 91.6837C101.468 91.2232 101.727 90.5989 101.728 89.9477V27.7134C101.727 27.0622 101.468 26.4379 101.008 25.9774C100.547 25.517 99.9237 25.2578 99.2731 25.2568ZM101.182 89.9477C101.182 90.4542 100.98 90.9399 100.622 91.2981C100.264 91.6563 99.7792 91.8578 99.2731 91.8584H2.45455C1.9484 91.8578 1.46315 91.6563 1.10524 91.2981C0.747341 90.9399 0.546018 90.4542 0.545456 89.9477V27.7134C0.546019 27.2069 0.747342 26.7212 1.10524 26.363C1.46315 26.0048 1.9484 25.8033 2.45455 25.8027H99.2731C99.7792 25.8033 100.264 26.0048 100.622 26.363C100.98 26.7212 101.182 27.2069 101.182 27.7134V89.9477Z" fill="#3F3D56"/>
<path d="M23.1222 56.2364H7.84944C7.23484 56.2357 6.64563 55.991 6.21104 55.556C5.77645 55.1211 5.53198 54.5314 5.53125 53.9163V38.6307C5.53198 38.0156 5.77645 37.4259 6.21104 36.9909C6.64563 36.556 7.23484 36.3113 7.84944 36.3105H23.1222C23.7368 36.3113 24.326 36.556 24.7606 36.9909C25.1952 37.4259 25.4397 38.0156 25.4404 38.6307V53.9163C25.4397 54.5314 25.1952 55.1211 24.7606 55.556C24.326 55.991 23.7368 56.2357 23.1222 56.2364Z" fill="#F58218"/>
<path d="M94.2288 72.4801H7.50125C7.03109 72.4801 6.58019 72.2932 6.24774 71.9604C5.91529 71.6277 5.72852 71.1764 5.72852 70.7059C5.72852 70.2353 5.91529 69.784 6.24774 69.4513C6.58019 69.1186 7.03109 68.9316 7.50125 68.9316H94.2288C94.699 68.9316 95.1499 69.1186 95.4824 69.4513C95.8148 69.784 96.0016 70.2353 96.0016 70.7059C96.0016 71.1764 95.8148 71.6277 95.4824 71.9604C95.1499 72.2932 94.699 72.4801 94.2288 72.4801Z" fill="#CCCCCC"/>
<path d="M94.2874 63.8824H7.55984C7.08968 63.8824 6.63878 63.6955 6.30633 63.3628C5.97388 63.03 5.78711 62.5788 5.78711 62.1082C5.78711 61.6377 5.97388 61.1864 6.30633 60.8536C6.63878 60.5209 7.08968 60.334 7.55984 60.334H94.2874C94.7576 60.334 95.2085 60.5209 95.5409 60.8536C95.8734 61.1864 96.0601 61.6377 96.0601 62.1082C96.0601 62.5788 95.8734 63.03 95.5409 63.3628C95.2085 63.6955 94.7576 63.8824 94.2874 63.8824Z" fill="#CCCCCC"/>
<path d="M51.4699 52.1412H38.6516C38.1815 52.1412 37.7306 51.9543 37.3981 51.6216C37.0657 51.2888 36.8789 50.8375 36.8789 50.367C36.8789 49.8964 37.0657 49.4452 37.3981 49.1124C37.7306 48.7797 38.1815 48.5928 38.6516 48.5928H51.4699C51.94 48.5928 52.3909 48.7797 52.7234 49.1124C53.0558 49.4452 53.2426 49.8964 53.2426 50.367C53.2426 50.8375 53.0558 51.2888 52.7234 51.6216C52.3909 51.9543 51.94 52.1412 51.4699 52.1412Z" fill="#CCCCCC"/>
<path d="M94.2882 43.4098H38.6516C38.1815 43.4098 37.7306 43.2228 37.3981 42.8901C37.0657 42.5574 36.8789 42.1061 36.8789 41.6355C36.8789 41.165 37.0657 40.7137 37.3981 40.381C37.7306 40.0483 38.1815 39.8613 38.6516 39.8613H94.2882C94.7583 39.8613 95.2092 40.0483 95.5417 40.381C95.8741 40.7137 96.0609 41.165 96.0609 41.6355C96.0609 42.1061 95.8741 42.5574 95.5417 42.8901C95.2092 43.2228 94.7583 43.4098 94.2882 43.4098Z" fill="#CCCCCC"/>
<path d="M49.2869 81.2145H7.50125C7.03109 81.2145 6.58019 81.0275 6.24774 80.6948C5.91529 80.3621 5.72852 79.9108 5.72852 79.4402C5.72852 78.9697 5.91529 78.5184 6.24774 78.1857C6.58019 77.8529 7.03109 77.666 7.50125 77.666H49.2869C49.757 77.666 50.2079 77.8529 50.5404 78.1857C50.8729 78.5184 51.0596 78.9697 51.0596 79.4402C51.0596 79.9108 50.8729 80.3621 50.5404 80.6948C50.2079 81.0275 49.757 81.2145 49.2869 81.2145Z" fill="#CCCCCC"/>
</svg>
