<svg width="344" height="279" viewBox="0 0 344 279" fill="none" xmlns="http://www.w3.org/2000/svg">
<g clip-path="url(#clip0_53_14454)">
<path d="M166.936 7.81076C166.92 8.72192 166.724 9.62097 166.359 10.4565C165.995 11.2921 165.469 12.0478 164.812 12.6805C164.155 13.3132 163.38 13.8105 162.531 14.144C161.681 14.4774 160.774 14.6405 159.861 14.6239H127.041C126.922 14.6209 126.803 14.6179 126.684 14.6087C126.377 14.5889 126.071 14.5472 125.77 14.4839V2.88505C125.769 2.42096 125.911 1.96788 126.176 1.58648C126.441 1.20509 126.816 0.913577 127.252 0.750977H160.111C161.953 0.785746 163.706 1.54856 164.986 2.87207C166.265 4.19557 166.967 5.97169 166.936 7.81076Z" fill="#E6E6E6"/>
<path d="M340.211 1.59339e-05H128.547C128.09 -0.00132907 127.638 0.0824883 127.213 0.247141C126.492 0.51651 125.87 0.999435 125.431 1.63127C124.992 2.2631 124.757 3.01367 124.758 3.7825V234.262C124.758 235.265 125.157 236.227 125.868 236.936C126.578 237.645 127.542 238.044 128.547 238.044H340.211C341.216 238.044 342.179 237.645 342.889 236.936C343.6 236.227 343.999 235.265 344 234.262V3.7825C343.999 2.77943 343.6 1.81756 342.889 1.10828C342.179 0.399006 341.216 0.000379514 340.211 1.59339e-05ZM342.484 234.262C342.483 234.863 342.243 235.44 341.817 235.866C341.391 236.291 340.813 236.53 340.211 236.531H128.547C127.944 236.53 127.366 236.291 126.94 235.866C126.514 235.44 126.274 234.863 126.273 234.262V3.7825C126.274 3.18087 126.514 2.60415 126.94 2.17873C127.366 1.75331 127.944 1.51391 128.547 1.51301H340.211C340.813 1.51391 341.391 1.75331 341.817 2.17873C342.243 2.60415 342.483 3.18087 342.484 3.7825V234.262Z" fill="#E6E6E6"/>
<path d="M227.871 79.191C230.617 79.191 232.843 76.9685 232.843 74.2268C232.843 71.4852 230.617 69.2627 227.871 69.2627C225.125 69.2627 222.898 71.4852 222.898 74.2268C222.898 76.9685 225.125 79.191 227.871 79.191Z" fill="#F58218"/>
<path d="M248.59 79.191C251.336 79.191 253.562 76.9685 253.562 74.2268C253.562 71.4852 251.336 69.2627 248.59 69.2627C245.843 69.2627 243.617 71.4852 243.617 74.2268C243.617 76.9685 245.843 79.191 248.59 79.191Z" fill="#F58218"/>
<path d="M186.435 120.212C189.181 120.212 191.408 117.99 191.408 115.248C191.408 112.507 189.181 110.284 186.435 110.284C183.689 110.284 181.463 112.507 181.463 115.248C181.463 117.99 183.689 120.212 186.435 120.212Z" fill="#F58218"/>
<path d="M207.154 120.212C209.9 120.212 212.126 117.99 212.126 115.248C212.126 112.507 209.9 110.284 207.154 110.284C204.408 110.284 202.182 112.507 202.182 115.248C202.182 117.99 204.408 120.212 207.154 120.212Z" fill="#F58218"/>
<path d="M227.871 140.723C230.617 140.723 232.843 138.501 232.843 135.759C232.843 133.017 230.617 130.795 227.871 130.795C225.125 130.795 222.898 133.017 222.898 135.759C222.898 138.501 225.125 140.723 227.871 140.723Z" fill="#F58218"/>
<path d="M248.59 140.723C251.336 140.723 253.562 138.501 253.562 135.759C253.562 133.017 251.336 130.795 248.59 130.795C245.843 130.795 243.617 133.017 243.617 135.759C243.617 138.501 245.843 140.723 248.59 140.723Z" fill="#F58218"/>
<path d="M269.308 140.723C272.054 140.723 274.281 138.501 274.281 135.759C274.281 133.017 272.054 130.795 269.308 130.795C266.562 130.795 264.336 133.017 264.336 135.759C264.336 138.501 266.562 140.723 269.308 140.723Z" fill="#F58218"/>
<path d="M144.713 3.66793C144.602 3.77859 144.54 3.92867 144.54 4.08516C144.54 4.24165 144.602 4.39175 144.713 4.50242L147.251 7.03565H140.994C140.837 7.03611 140.687 7.09849 140.577 7.2091C140.466 7.31972 140.404 7.46955 140.404 7.62575C140.404 7.78196 140.466 7.93179 140.577 8.0424C140.687 8.15301 140.837 8.21539 140.994 8.21585H147.251L144.713 10.749C144.602 10.8597 144.54 11.0098 144.54 11.1663C144.54 11.3228 144.602 11.4729 144.713 11.5836C144.824 11.6942 144.974 11.7564 145.131 11.7564C145.288 11.7564 145.438 11.6942 145.549 11.5836L149.095 8.04302C149.206 7.93235 149.269 7.78225 149.269 7.62575C149.269 7.46925 149.206 7.31916 149.095 7.20849L145.549 3.66793C145.438 3.55728 145.288 3.49512 145.131 3.49512C144.974 3.49512 144.824 3.55728 144.713 3.66793Z" fill="white"/>
<path d="M294.567 84.8173H161.055C160.538 84.8173 160.119 84.5914 160.119 84.3129C160.119 84.0344 160.538 83.8086 161.055 83.8086H294.567C295.084 83.8086 295.503 84.0344 295.503 84.3129C295.503 84.5914 295.084 84.8173 294.567 84.8173Z" fill="#E6E6E6"/>
<path d="M294.567 62.537H161.055C160.538 62.537 160.119 62.3112 160.119 62.0327C160.119 61.7541 160.538 61.5283 161.055 61.5283H294.567C295.084 61.5283 295.503 61.7541 295.503 62.0327C295.503 62.3112 295.084 62.537 294.567 62.537Z" fill="#E6E6E6"/>
<path d="M294.999 105.628H160.745C160.611 105.628 160.483 105.575 160.388 105.48C160.293 105.386 160.24 105.257 160.24 105.123C160.24 104.99 160.293 104.861 160.388 104.767C160.483 104.672 160.611 104.619 160.745 104.619H294.999C295.133 104.619 295.261 104.672 295.356 104.767C295.451 104.861 295.504 104.99 295.504 105.123C295.504 105.257 295.451 105.386 295.356 105.48C295.261 105.575 295.133 105.628 294.999 105.628Z" fill="#E6E6E6"/>
<path d="M294.999 125.801H160.745C160.611 125.801 160.483 125.748 160.388 125.653C160.293 125.558 160.24 125.43 160.24 125.296C160.24 125.163 160.293 125.034 160.388 124.94C160.483 124.845 160.611 124.792 160.745 124.792H294.999C295.133 124.792 295.261 124.845 295.356 124.94C295.451 125.034 295.504 125.163 295.504 125.296C295.504 125.43 295.451 125.558 295.356 125.653C295.261 125.748 295.133 125.801 294.999 125.801Z" fill="#E6E6E6"/>
<path d="M294.999 146.478H160.745C160.611 146.478 160.483 146.425 160.388 146.331C160.293 146.236 160.24 146.108 160.24 145.974C160.24 145.84 160.293 145.712 160.388 145.617C160.483 145.523 160.611 145.47 160.745 145.47H294.999C295.133 145.47 295.261 145.523 295.356 145.617C295.451 145.712 295.504 145.84 295.504 145.974C295.504 146.108 295.451 146.236 295.356 146.331C295.261 146.425 295.133 146.478 294.999 146.478Z" fill="#E6E6E6"/>
<path d="M279.34 145.439V62.3449C279.34 62.1722 279.566 62.0322 279.845 62.0322C280.124 62.0322 280.35 62.1722 280.35 62.3449V145.439C280.35 145.611 280.124 145.751 279.845 145.751C279.566 145.751 279.34 145.611 279.34 145.439Z" fill="#E6E6E6"/>
<path d="M258.627 145.439V62.3449C258.627 62.1722 258.853 62.0322 259.132 62.0322C259.411 62.0322 259.637 62.1722 259.637 62.3449V145.439C259.637 145.611 259.411 145.751 259.132 145.751C258.853 145.751 258.627 145.611 258.627 145.439Z" fill="#E6E6E6"/>
<path d="M237.916 145.439V62.3449C237.916 62.1722 238.142 62.0322 238.421 62.0322C238.7 62.0322 238.926 62.1722 238.926 62.3449V145.439C238.926 145.611 238.7 145.751 238.421 145.751C238.142 145.751 237.916 145.611 237.916 145.439Z" fill="#E6E6E6"/>
<path d="M217.709 145.439V62.3449C217.709 62.1722 217.935 62.0322 218.214 62.0322C218.493 62.0322 218.719 62.1722 218.719 62.3449V145.439C218.719 145.611 218.493 145.751 218.214 145.751C217.935 145.751 217.709 145.611 217.709 145.439Z" fill="#E6E6E6"/>
<path d="M196.492 166.541V62.424C196.521 62.312 196.586 62.2126 196.677 62.1417C196.769 62.0707 196.882 62.0322 196.997 62.0322C197.113 62.0322 197.226 62.0707 197.317 62.1417C197.409 62.2126 197.474 62.312 197.503 62.424V166.541C197.474 166.653 197.409 166.753 197.317 166.824C197.226 166.895 197.113 166.933 196.997 166.933C196.882 166.933 196.769 166.895 196.677 166.824C196.586 166.753 196.521 166.653 196.492 166.541Z" fill="#E6E6E6"/>
<path d="M175.275 166.541V62.424C175.304 62.312 175.369 62.2126 175.461 62.1417C175.552 62.0707 175.665 62.0322 175.781 62.0322C175.896 62.0322 176.009 62.0707 176.1 62.1417C176.192 62.2126 176.257 62.312 176.286 62.424V166.541C176.257 166.653 176.192 166.753 176.1 166.824C176.009 166.895 175.896 166.933 175.781 166.933C175.665 166.933 175.552 166.895 175.461 166.824C175.369 166.753 175.304 166.653 175.275 166.541Z" fill="#E6E6E6"/>
<path d="M160.745 167.156C160.611 167.156 160.482 167.104 160.387 167.009C160.292 166.915 160.239 166.787 160.238 166.653C160.238 166.519 160.291 166.391 160.385 166.296C160.48 166.201 160.608 166.148 160.742 166.147L212.149 165.925C212.282 165.928 212.409 165.981 212.504 166.075C212.598 166.168 212.653 166.294 212.657 166.427C212.657 166.493 212.644 166.559 212.619 166.62C212.594 166.682 212.557 166.737 212.51 166.784C212.464 166.831 212.408 166.869 212.347 166.894C212.286 166.92 212.22 166.933 212.154 166.933L160.747 167.156H160.745Z" fill="#E6E6E6"/>
<path d="M198.33 40.4364C198.196 40.4365 198.067 40.3835 197.972 40.289C197.878 40.1945 197.824 40.0662 197.824 39.9325C197.824 39.7987 197.877 39.6704 197.972 39.5758C198.067 39.4811 198.195 39.4279 198.329 39.4278L270.429 39.3379H270.43C270.564 39.3378 270.692 39.3908 270.787 39.4853C270.882 39.5799 270.935 39.7081 270.935 39.8419C270.935 39.9756 270.882 40.1039 270.788 40.1986C270.693 40.2932 270.564 40.3465 270.43 40.3466L198.33 40.4364H198.33Z" fill="#E6E6E6"/>
<path d="M222.742 204.86C220.74 204.86 218.784 204.268 217.119 203.157C215.455 202.047 214.158 200.469 213.392 198.623C212.625 196.776 212.425 194.745 212.816 192.785C213.206 190.824 214.17 189.024 215.586 187.611C217.001 186.198 218.804 185.235 220.768 184.846C222.731 184.456 224.766 184.656 226.615 185.421C228.465 186.185 230.046 187.48 231.158 189.142C232.27 190.804 232.863 192.757 232.863 194.756C232.863 196.083 232.602 197.397 232.093 198.623C231.584 199.849 230.839 200.963 229.899 201.901C228.959 202.839 227.843 203.583 226.615 204.091C225.388 204.599 224.071 204.86 222.742 204.86Z" fill="#E6E6E6"/>
<path d="M226.736 193.759H223.74V190.769C223.74 190.505 223.635 190.251 223.448 190.064C223.261 189.877 223.007 189.772 222.742 189.772C222.477 189.772 222.223 189.877 222.036 190.064C221.849 190.251 221.744 190.505 221.744 190.769V193.759H218.748C218.484 193.759 218.23 193.864 218.042 194.051C217.855 194.238 217.75 194.492 217.75 194.756C217.75 195.021 217.855 195.274 218.042 195.461C218.23 195.648 218.484 195.753 218.748 195.753H221.744V198.743C221.743 198.874 221.769 199.004 221.819 199.125C221.869 199.246 221.942 199.357 222.035 199.449C222.128 199.542 222.238 199.616 222.359 199.666C222.481 199.716 222.611 199.742 222.742 199.742C222.873 199.742 223.003 199.716 223.125 199.666C223.246 199.616 223.356 199.542 223.449 199.449C223.542 199.357 223.615 199.246 223.665 199.125C223.715 199.004 223.741 198.874 223.74 198.743V195.753H226.736C227 195.753 227.254 195.648 227.441 195.461C227.629 195.274 227.734 195.021 227.734 194.756C227.734 194.492 227.629 194.238 227.441 194.051C227.254 193.864 227 193.759 226.736 193.759Z" fill="white"/>
<path d="M245.981 204.86C243.979 204.86 242.022 204.268 240.358 203.157C238.693 202.047 237.396 200.469 236.63 198.623C235.864 196.776 235.663 194.745 236.054 192.785C236.444 190.824 237.408 189.024 238.824 187.611C240.239 186.198 242.043 185.235 244.006 184.846C245.969 184.456 248.004 184.656 249.854 185.421C251.703 186.185 253.284 187.48 254.396 189.142C255.508 190.804 256.102 192.757 256.102 194.756C256.102 196.083 255.84 197.397 255.331 198.623C254.823 199.849 254.077 200.963 253.137 201.901C252.197 202.839 251.082 203.583 249.854 204.091C248.626 204.599 247.31 204.86 245.981 204.86Z" fill="#E6E6E6"/>
<path d="M251.102 199.056L248.466 195.975C249.083 195.103 249.351 194.032 249.217 192.973C249.083 191.913 248.557 190.942 247.742 190.251C246.927 189.559 245.882 189.197 244.813 189.236C243.744 189.275 242.729 189.712 241.966 190.461C241.204 191.21 240.75 192.216 240.693 193.283C240.637 194.349 240.982 195.398 241.662 196.222C242.341 197.047 243.305 197.589 244.363 197.74C245.422 197.891 246.499 197.641 247.383 197.039L249.95 200.039C250.081 200.19 250.266 200.284 250.466 200.299C250.666 200.314 250.863 200.25 251.016 200.12C251.168 199.99 251.263 199.805 251.279 199.606C251.295 199.407 251.232 199.209 251.102 199.056ZM242.191 193.496C242.191 192.947 242.354 192.411 242.659 191.955C242.964 191.499 243.398 191.143 243.906 190.933C244.414 190.723 244.972 190.668 245.511 190.775C246.05 190.882 246.545 191.146 246.934 191.534C247.322 191.922 247.587 192.417 247.694 192.955C247.801 193.493 247.746 194.05 247.536 194.557C247.326 195.064 246.97 195.497 246.513 195.802C246.056 196.107 245.519 196.27 244.969 196.27C244.233 196.269 243.526 195.976 243.005 195.456C242.485 194.936 242.192 194.231 242.191 193.496Z" fill="white"/>
<path d="M198.33 205.858C198.196 205.858 198.067 205.805 197.972 205.71C197.878 205.616 197.824 205.487 197.824 205.354C197.824 205.22 197.877 205.092 197.972 204.997C198.067 204.902 198.195 204.849 198.329 204.849L270.429 204.759H270.43C270.564 204.759 270.692 204.812 270.787 204.906C270.882 205.001 270.935 205.129 270.935 205.263C270.935 205.397 270.882 205.525 270.788 205.619C270.693 205.714 270.564 205.767 270.43 205.767L198.33 205.858H198.33Z" fill="#E6E6E6"/>
<path d="M106.062 271.841L112.506 271.84L115.572 247.025L106.061 247.026L106.062 271.841Z" fill="#FFB6B6"/>
<path d="M104.422 269.739V278.076H125.199V277.813C125.199 275.672 124.347 273.618 122.83 272.104C121.313 270.59 119.257 269.739 117.112 269.739L113.313 266.864L113.116 266.945L106.235 269.739H104.422Z" fill="#2F2E41"/>
<path d="M47.8359 263.476L53.6034 266.345L67.4353 245.502L58.9228 241.267L47.8359 263.476Z" fill="#FFB6B6"/>
<path d="M43.5781 268.327L62.1733 277.577L62.2894 277.345C62.7639 276.396 63.0464 275.363 63.1208 274.306C63.1953 273.248 63.0602 272.186 62.7234 271.18C62.3865 270.175 61.8545 269.245 61.1577 268.445C60.4609 267.645 59.6129 266.99 58.6623 266.517L56.5457 262.255L56.3234 262.24L48.9278 261.67L48.7763 261.595L47.3012 260.863L43.5781 268.327Z" fill="#2F2E41"/>
<path d="M110.434 138.462L74.9003 139.704L74.6527 139.344C74.6527 139.344 71.6217 146.405 71.6217 152.457C71.6217 154.469 73.0235 167.63 72.3109 170.12C72.2223 170.429 72.832 171.188 72.6321 172.63C72.5023 173.566 71.7863 172.846 71.6217 174.143C71.5036 175.074 72.7639 175.588 72.6321 176.665C72.488 177.841 70.7544 181.652 70.5984 182.961C68.9371 196.893 66.7251 217.078 66.7251 217.078C66.7251 217.078 57.841 240.833 55.9616 241.219C52.8071 241.867 50.6774 247.593 52.4255 248.784C53.2579 249.351 64.0162 253.166 64.0162 253.166C64.6074 253.273 66.4567 252.347 65.2786 250.157C65.0617 249.754 66.3551 250.78 66.5701 250.297C66.7987 249.784 66.3499 247.742 66.6118 247.172C68.9629 242.057 72.5728 234.967 75.9936 231.327C81.0482 225.949 84.2491 219.099 85.1294 211.777L92.9759 168.341L95.6651 180.522L97.8903 182.717L97.2799 187.835L97.3852 192.803L102.942 213.481C102.942 213.481 103.775 252.097 102.437 253.323C101.712 253.987 98.6357 262.168 104.457 262.905L115.035 262.091C115.035 262.091 116.46 259.092 115.747 258.025C115.035 256.958 115.077 257.25 115.947 255.503C116.816 253.757 116.46 250.798 116.46 250.798C117.845 236.891 118.392 222.914 118.097 208.942C117.567 185.993 114.353 159.63 114.353 159.093C114.327 158.544 114.428 157.996 114.649 157.493V156.044L113.285 150.912L110.434 138.462Z" fill="#2F2E41"/>
<path d="M64.4295 151.365C64.1315 150.857 63.9488 150.29 63.8943 149.703C63.8397 149.117 63.9146 148.525 64.1137 147.971C64.3127 147.417 64.6311 146.912 65.0465 146.494C65.4618 146.076 65.9639 145.754 66.5175 145.55L66.2622 120.061L72.5597 124.038L71.8359 148.197C72.1168 149.148 72.0385 150.169 71.6158 151.066C71.1931 151.963 70.4554 152.675 69.5424 153.065C68.6295 153.456 67.6048 153.498 66.6624 153.185C65.7201 152.872 64.9256 152.224 64.4295 151.365Z" fill="#FFB8B8"/>
<path d="M65.8668 140.68L66.4028 140.655L66.4667 140.656L68.45 140.649L71.7165 140.642L71.9532 140.639L72.0597 140.659L73.1748 140.853L73.221 140.554L75.3947 136.409L77.0659 134.114L76.4579 131.41L75.2587 129.919L77.2955 127.455L77.5529 126.238L79.2577 118.234L84.9085 91.6863L84.909 91.6704L85.0277 91.1071L86.8654 82.4828L86.2992 80.3142L85.6684 77.9333C85.2647 76.4218 84.3293 75.1059 83.0333 74.2267C82.4709 73.8467 81.8517 73.558 81.1989 73.3713C80.3668 73.1253 79.4928 73.0535 78.6316 73.1604L78.622 73.1633C78.1333 73.224 77.6531 73.3398 77.1906 73.5087L77.0066 73.5804C76.7505 73.6841 76.5013 73.8039 76.2604 73.939C75.514 74.3534 74.8576 74.9119 74.3294 75.5819C73.8012 76.252 73.4118 77.0202 73.1838 77.8419L67.1963 84.5006L66.1432 88.2683L65.8045 89.4783L64.7191 95.9287L64.7353 121.313L64.542 122.463L64.2672 128.836L65.341 130.297L64.1279 132.068L64.0863 133.04L64.0781 133.29L65.6984 134.933L65.8018 138.476L65.8668 140.68Z" fill="#F58218"/>
<path d="M71.7168 146.76C80.6889 148.309 86.7054 147.719 90.4079 142.221C95.2383 136.08 104.023 143.331 111.434 146.027L112.313 145.079L113.809 143.47L112.435 141.917L113.809 138.921L112.662 135.224L111.197 134.957L111.591 131.775L112.207 129.914L110.399 127.932L108.863 122.984L109.969 112.63C111.483 98.438 108.55 84.1263 101.573 71.6685L97.3756 67.9062L95.6327 66.3428L93.2938 61.9854L90.8236 62.2728L84.1352 63.0444L83.9079 63.5891L82.2661 67.5431L76.3018 73.9392C75.4583 74.8438 74.8173 75.9174 74.4216 77.0885C74.0258 78.2596 73.8844 79.5014 74.0066 80.7313L74.1784 82.4562L74.3047 83.6968L74.9008 89.6681L77.3306 114.063L77.5125 115.359L79.4675 129.384C76.29 132.45 76.0966 131.781 74.7478 137.178C74.5962 137.778 72.8382 139.114 72.7271 139.699C72.5705 140.527 71.7168 146.76 71.7168 146.76Z" fill="#F58218"/>
<path d="M89.9333 59.4151C96.3491 59.4151 101.55 54.2227 101.55 47.8174C101.55 41.4122 96.3491 36.2197 89.9333 36.2197C83.5175 36.2197 78.3164 41.4122 78.3164 47.8174C78.3164 54.2227 83.5175 59.4151 89.9333 59.4151Z" fill="#FFB6B6"/>
<path d="M77.7791 39.0867C79.3384 37.4658 81.8293 36.6664 83.9444 37.4355C84.4173 36.0843 85.2526 34.8886 86.3592 33.9784C87.4657 33.0683 88.8012 32.4787 90.2201 32.2739C91.6391 32.069 93.0871 32.2568 94.4066 32.8166C95.7261 33.3765 96.8664 34.2871 97.7035 35.4491C98.0862 35.2776 98.5068 35.2075 98.9246 35.2459C99.3424 35.2842 99.7432 35.4296 100.088 35.6679C100.773 36.1542 101.325 36.8042 101.693 37.5586C102.643 39.3599 103.086 41.3847 102.974 43.4173C102.863 45.45 102.201 47.4144 101.06 49.1015C101.515 48.185 100.237 49.7634 98.9908 49.3499C97.9206 49.0699 93.525 46.2559 92.4279 46.3982C91.331 46.5404 90.9751 45.6573 89.9021 45.3895C88.8511 45.0539 86.1681 49.3916 85.6303 52.2618C85.5285 52.8057 85.281 53.4815 84.7269 53.4939C84.0445 53.5091 83.8401 52.5334 83.2645 52.167C82.9932 52.0292 82.6789 52.002 82.3879 52.091C82.0969 52.18 81.8518 52.3784 81.7044 52.6443C81.5699 52.9175 81.5027 53.2189 81.5084 53.5233C81.514 53.8278 81.5925 54.1264 81.7372 54.3945C82.0313 54.9273 82.4097 55.4092 82.8577 55.8215L82.5596 55.985C82.2661 56.1949 81.9085 56.2964 81.5482 56.2719C81.1879 56.2475 80.8474 56.0988 80.5849 55.8512C79.4755 56.3509 76.4578 53.5326 76.8584 51.8275C76.0158 49.7375 75.5551 47.5137 75.498 45.2615C75.4514 42.9897 76.2662 40.7842 77.7791 39.0867Z" fill="#2F2E41"/>
<path d="M162.997 108.218C162.434 108.395 161.839 108.447 161.254 108.369C160.669 108.292 160.109 108.088 159.612 107.771C159.114 107.454 158.693 107.032 158.377 106.535C158.061 106.037 157.857 105.477 157.782 104.893L132.832 99.4752L138.116 94.2295L161.548 100.304C162.54 100.242 163.519 100.546 164.302 101.157C165.084 101.767 165.615 102.644 165.793 103.619C165.972 104.595 165.786 105.601 165.27 106.449C164.755 107.297 163.946 107.926 162.997 108.218Z" fill="#FFB8B8"/>
<path d="M95.5711 72.2602C94.1249 72.3128 92.7376 72.8451 91.6284 73.7729C91.0146 74.2809 90.5027 74.9004 90.1199 75.5986C89.6986 76.3559 89.4358 77.1908 89.3474 78.0527L89.3477 78.0577C89.2184 79.3269 89.4685 80.6059 90.0665 81.7334C90.6644 82.8609 91.5835 83.7863 92.7077 84.3928L100.927 88.8394L101.968 89.4015C108.971 96.5272 120.779 100.252 134.363 102.723L142.173 104.856L144.799 103.883L145.434 106.375L148.049 106.461L149.47 106.166L152.445 105.001L153.012 103.861L153.012 103.856L154.233 98.4492L154.241 98.4134L154.241 98.4084L154.525 97.1715L152.848 96.3966L151.389 94.4507L148.75 94.5036L146.344 94.7127L145.639 93.0664L115.148 78.9803L108.835 76.0609L108.819 76.0516L108.519 75.9107L100.283 72.1064L98.0404 72.1774L95.5711 72.2602Z" fill="#F58218"/>
<path d="M162.201 114.494C164.947 114.494 167.173 112.271 167.173 109.53C167.173 106.788 164.947 104.565 162.201 104.565C159.455 104.565 157.229 106.788 157.229 109.53C157.229 112.271 159.455 114.494 162.201 114.494Z" fill="#F58218"/>
<path d="M19.6592 275.521C16.0112 275.842 12.3374 275.346 8.9062 274.068C5.47499 272.79 2.37301 270.763 -0.173159 268.135C-3.50246 264.631 -5.78716 260.12 -7.99668 255.758C-8.63986 254.489 -9.3047 253.176 -9.98108 251.918C-10.7352 250.546 -11.0606 248.981 -10.9155 247.423C-10.7704 245.865 -10.1614 244.386 -9.1669 243.177C-8.21389 241.968 -6.92011 241.072 -5.45226 240.604C-3.98441 240.135 -2.40976 240.117 -0.931199 240.55L-0.60878 240.643L2.29297 251.947C2.72587 250.261 3.65505 246.462 4.24181 242.74L4.2911 242.428L4.58006 242.557C7.60994 243.895 10.4589 245.609 13.0599 247.658C17.6674 251.348 21.4149 255.995 24.0418 261.277C26.6687 266.558 28.112 272.348 28.2715 278.243L28.2792 278.594L19.6592 275.521Z" fill="#F2F2F2"/>
<path d="M130.416 278.845L-10.3985 279C-10.558 279 -10.711 278.936 -10.8238 278.824C-10.9366 278.711 -11 278.558 -11 278.399C-11 278.24 -10.9366 278.087 -10.8238 277.974C-10.711 277.862 -10.558 277.799 -10.3985 277.799L130.416 277.644C130.576 277.644 130.728 277.707 130.84 277.82C130.953 277.933 131.016 278.085 131.016 278.244C131.016 278.403 130.953 278.555 130.84 278.668C130.728 278.781 130.576 278.844 130.416 278.845Z" fill="#CACACA"/>
<path d="M247.766 33.7001H220.992C220.389 33.7001 219.811 33.461 219.385 33.0354C218.958 32.6098 218.719 32.0325 218.719 31.4306C218.719 30.8287 218.958 30.2515 219.385 29.8259C219.811 29.4002 220.389 29.1611 220.992 29.1611H247.766C248.369 29.1611 248.947 29.4002 249.373 29.8259C249.8 30.2515 250.039 30.8287 250.039 31.4306C250.039 32.0325 249.8 32.6098 249.373 33.0354C248.947 33.461 248.369 33.7001 247.766 33.7001Z" fill="#E6E6E6"/>
<path d="M332.095 14.4276C330.994 14.4276 329.918 14.1017 329.003 13.4911C328.088 12.8806 327.374 12.0128 326.953 10.9974C326.532 9.98209 326.421 8.86485 326.636 7.78699C326.851 6.70912 327.381 5.71904 328.159 4.94194C328.938 4.16484 329.93 3.63563 331.009 3.42122C332.089 3.20682 333.208 3.31686 334.225 3.73742C335.242 4.15799 336.111 4.87019 336.723 5.78396C337.334 6.69773 337.661 7.77204 337.661 8.87102C337.661 10.3447 337.074 11.758 336.031 12.8001C334.987 13.8422 333.571 14.4276 332.095 14.4276Z" fill="#E6E6E6"/>
</g>
<defs>
<clipPath id="clip0_53_14454">
<rect width="355" height="279" fill="white" transform="translate(-11)"/>
</clipPath>
</defs>
</svg>
