<svg width="32" height="32" viewBox="0 0 32 32" fill="none" xmlns="http://www.w3.org/2000/svg">
<path d="M9.07164 18.5963L8.20528 21.8305L5.03876 21.8975C4.09244 20.1423 3.55566 18.1341 3.55566 16C3.55566 13.9364 4.05753 11.9904 4.94713 10.2769H4.94781L7.7669 10.7937L9.00183 13.5959C8.74336 14.3494 8.60249 15.1583 8.60249 16C8.60259 16.9135 8.76806 17.7888 9.07164 18.5963Z" fill="#FBBB00"/>
<path d="M28.227 13.6752C28.3699 14.428 28.4445 15.2054 28.4445 16C28.4445 16.8909 28.3508 17.76 28.1723 18.5983C27.5665 21.451 25.9836 23.942 23.7908 25.7047L23.7901 25.7041L20.2393 25.5229L19.7367 22.3857C21.1918 21.5324 22.3289 20.197 22.9279 18.5983H16.2734V13.6752H23.025H28.227Z" fill="#518EF8"/>
<path d="M23.7908 25.7041L23.7914 25.7048C21.6588 27.419 18.9497 28.4446 16.0006 28.4446C11.2614 28.4446 7.14099 25.7957 5.03906 21.8975L9.07194 18.5963C10.1229 21.4011 12.8286 23.3977 16.0006 23.3977C17.364 23.3977 18.6413 23.0292 19.7374 22.3857L23.7908 25.7041Z" fill="#28B446"/>
<path d="M23.9438 6.4204L19.9122 9.72095C18.7779 9.0119 17.437 8.60229 16.0004 8.60229C12.7566 8.60229 10.0003 10.6905 9.00202 13.5959L4.94795 10.2769H4.94727C7.01842 6.28366 11.1908 3.55542 16.0004 3.55542C19.0199 3.55542 21.7885 4.631 23.9438 6.4204Z" fill="#F14336"/>
</svg>
