<svg width="183" height="145" viewBox="0 0 183 145" fill="none" xmlns="http://www.w3.org/2000/svg">
<g clip-path="url(#clip0_22_3677)">
<path d="M144.51 144.825H95.8559L95.8466 144.554L93.5234 78.3491H146.842L144.51 144.825ZM96.4017 144.262H143.964L146.257 78.9121H94.1082L96.4017 144.262Z" fill="#3F3D56"/>
<path d="M107.46 90.6157H103.76V136.247H107.46V90.6157Z" fill="#3F3D56"/>
<path d="M122.031 90.6157H118.33V136.247H122.031V90.6157Z" fill="#3F3D56"/>
<path d="M136.603 90.6157H132.902V136.247H136.603V90.6157Z" fill="#3F3D56"/>
<path d="M177.759 97.7901L177.52 97.6397L117.086 59.5849L122.328 51.3193L122.567 51.4697L183.001 89.5244L177.759 97.7901ZM117.866 59.4097L177.583 97.0132L182.221 89.6998L122.504 52.096L117.866 59.4097Z" fill="#3F3D56"/>
<path d="M163.166 56.518C161.409 55.4102 159.371 54.8279 157.292 54.84C155.213 54.8522 153.181 55.4584 151.438 56.5866C149.694 57.7148 148.312 59.3178 147.456 61.2052C146.599 63.0926 146.304 65.1853 146.605 67.2349L149.487 69.0495C148.762 67.374 148.596 65.5115 149.01 63.7346C149.425 61.9578 150.4 60.36 151.793 59.1753C153.185 57.9905 154.921 57.2809 156.747 57.1505C158.573 57.0201 160.393 57.4757 161.941 58.4505C163.488 59.4254 164.682 60.8683 165.347 62.568C166.012 64.2676 166.114 66.1348 165.637 67.8961C165.16 69.6574 164.129 71.2203 162.696 72.3559C161.264 73.4915 159.503 74.1402 157.674 74.207L160.555 76.0216C162.543 75.4136 164.313 74.2504 165.657 72.6698C167.001 71.0892 167.861 69.1577 168.137 67.1044C168.412 65.0512 168.09 62.9623 167.209 61.0859C166.329 59.2094 164.926 57.6241 163.168 56.518H163.166Z" fill="#3F3D56"/>
<path d="M180 144H15V145H180V144Z" fill="#3F3D56"/>
<path d="M35.1686 140.595H31.0541L29.0957 124.782H35.1698L35.1686 140.595Z" fill="#FEB8B8"/>
<path d="M23.1191 144.402H36.0502V139.424H28.0459C26.7393 139.424 25.4861 139.941 24.5622 140.862C23.6382 141.782 23.1191 143.031 23.1191 144.333V144.402Z" fill="#2F2E41"/>
<path d="M33.7227 116.092L36.5608 119.06L49.4017 109.566L45.2131 105.185L33.7227 116.092Z" fill="#FEB8B8"/>
<path d="M39.4857 120.42L33.9628 114.646L30.3457 118.08L39.2681 127.409L39.3182 127.361C39.7866 126.917 40.1625 126.384 40.4245 125.795C40.6864 125.205 40.8292 124.57 40.8448 123.925C40.8603 123.281 40.7483 122.639 40.5151 122.038C40.2819 121.436 39.9321 120.887 39.4857 120.42Z" fill="#2F2E41"/>
<path d="M5.08473 72.7684C4.82434 72.351 4.65895 71.8817 4.6002 71.3937C4.54145 70.9057 4.59076 70.4108 4.74469 69.9438C4.89861 69.4769 5.1534 69.0492 5.4911 68.6909C5.8288 68.3327 6.24122 68.0525 6.69931 67.8702L22.8532 26.8472L29.15 30.6039L11.2051 69.9584C11.4616 70.7458 11.4192 71.5995 11.0861 72.3578C10.753 73.1161 10.1522 73.7262 9.39773 74.0727C8.64324 74.4191 7.78743 74.4776 6.9925 74.2372C6.19757 73.9968 5.51876 73.4742 5.08473 72.7684Z" fill="#FEB8B8"/>
<path d="M66.3989 75.7088C65.9067 75.6737 65.4283 75.5316 64.9972 75.2922C64.5661 75.0529 64.193 74.7224 63.904 74.3238C63.6151 73.9252 63.4173 73.4683 63.3248 72.9853C63.2323 72.5024 63.2471 72.0051 63.3684 71.5284L39.5371 34.4065L46.2867 31.5352L67.7115 69.1227C68.5027 69.3775 69.1724 69.913 69.5936 70.6274C70.0147 71.3418 70.1579 72.1854 69.9959 72.9981C69.834 73.8108 69.3782 74.5359 68.7151 75.0358C68.0521 75.5357 67.2278 75.7756 66.3989 75.7099V75.7088Z" fill="#FEB8B8"/>
<path d="M23.0117 68.6605L27.23 131.13L37.3107 130.244L39.386 84.1554L45.0194 103.949L57.1754 104.835L52.3639 65.7061L23.0117 68.6605Z" fill="#2F2E41"/>
<path d="M46.7995 100.995L45.0197 103.95L32.5684 112.517L41.4631 117.244C41.4631 117.244 58.6595 107.79 57.1771 104.836L46.7995 100.995Z" fill="#2F2E41"/>
<path d="M14.1855 43.3859L17.6947 33.5332C18.4754 31.341 19.6847 29.3248 21.2526 27.6013C22.8205 25.8778 24.7158 24.4812 26.829 23.4925C31.5786 21.7489 36.7443 21.4672 41.6565 22.6837L42.9335 22.9996C46.3387 23.822 49.5291 25.3574 52.2926 27.5037C54.455 29.2023 56.4004 31.353 56.5736 33.6664C56.5745 33.6713 56.5759 33.6761 56.5778 33.6807C57.1767 36.2965 57.4731 49.8862 57.4731 49.8862H52.1901L53.0257 68.203L52.9582 68.0704C52.9582 68.0704 22.4873 73.8162 22.4873 70.8618V51.9536L21.8626 45.1074L14.1855 43.3859Z" fill="#CCCCCC"/>
<path d="M42.6257 20.1223C47.2893 20.1223 51.0698 16.3553 51.0698 11.7084C51.0698 7.06148 47.2893 3.29443 42.6257 3.29443C37.9622 3.29443 34.1816 7.06148 34.1816 11.7084C34.1816 16.3553 37.9622 20.1223 42.6257 20.1223Z" fill="#FEB8B8"/>
<path d="M43.8907 7.93525L50.4473 8.19705C51.2722 8.19452 52.1729 8.16552 52.8012 7.63404C53.7476 6.83203 53.5891 5.31865 53.0823 4.18813C51.6697 1.04032 48.5188 -0.0873867 45.0589 0.00522882C41.5989 0.0978443 37.9734 1.26637 36.1102 4.17152C34.247 7.07666 33.7436 10.7452 34.4453 14.1211C35.2566 12.4045 36.5056 10.93 38.0676 9.84477C39.6295 8.75953 41.4499 8.10151 43.3468 7.93638L43.8907 7.93525Z" fill="#2F2E41"/>
<path d="M82.8245 90.2353L59.0928 73.6622C58.8723 73.5076 58.7223 73.2723 58.6756 73.0077C58.6289 72.7431 58.6893 72.4708 58.8436 72.2505L77.4702 45.7685C77.6254 45.5488 77.8616 45.3993 78.1271 45.3528C78.3927 45.3062 78.6659 45.3664 78.887 45.5202L102.619 62.0933C102.839 62.2479 102.989 62.4832 103.036 62.7478C103.083 63.0124 103.022 63.2847 102.868 63.505L84.2418 89.9863C84.0867 90.2063 83.8504 90.356 83.5848 90.4027C83.3191 90.4493 83.0457 90.3892 82.8245 90.2353Z" fill="#F58218"/>
<path d="M88.1611 72.2524L74.2357 62.5276C74.0747 62.4151 73.9374 62.2721 73.8318 62.1068C73.7262 61.9415 73.6544 61.7571 73.6203 61.5641C73.5862 61.3711 73.5906 61.1733 73.6333 60.982C73.6759 60.7907 73.756 60.6097 73.8688 60.4492C73.9817 60.2888 74.1252 60.152 74.2911 60.0468C74.457 59.9416 74.6421 59.87 74.8358 59.836C75.0294 59.8021 75.2279 59.8065 75.4199 59.849C75.6119 59.8915 75.7936 59.9712 75.9546 60.0837L89.88 69.8085C90.2053 70.0356 90.4266 70.3822 90.4954 70.772C90.5642 71.1617 90.4748 71.5628 90.2468 71.8868C90.0189 72.2109 89.6711 72.4315 89.2799 72.5C88.8888 72.5686 88.4863 72.4795 88.1611 72.2524Z" fill="white"/>
<path d="M84.9649 76.7961L71.0395 67.0713C70.8783 66.9589 70.7408 66.8159 70.6351 66.6506C70.5293 66.4853 70.4573 66.3008 70.4231 66.1077C70.389 65.9146 70.3933 65.7167 70.436 65.5253C70.4786 65.3339 70.5587 65.1528 70.6716 64.9922C70.7845 64.8317 70.9281 64.6948 71.0941 64.5896C71.2601 64.4844 71.4453 64.4128 71.6391 64.3789C71.8329 64.345 72.0315 64.3495 72.2236 64.3922C72.4156 64.4348 72.5974 64.5148 72.7584 64.6274L86.6838 74.3522C87.0086 74.5795 87.2297 74.926 87.2983 75.3156C87.3668 75.7051 87.2774 76.1059 87.0496 76.4298C86.8218 76.7537 86.4742 76.9742 86.0833 77.0429C85.6924 77.1116 85.2901 77.0228 84.9649 76.7961Z" fill="white"/>
<path d="M81.7353 81.3886L67.8099 71.6638C67.6489 71.5513 67.5116 71.4084 67.4061 71.2431C67.3005 71.0777 67.2286 70.8933 67.1945 70.7003C67.1604 70.5074 67.1649 70.3096 67.2075 70.1183C67.2502 69.927 67.3302 69.7459 67.4431 69.5855C67.5559 69.425 67.6994 69.2883 67.8653 69.183C68.0312 69.0778 68.2163 69.0062 68.41 68.9723C68.6037 68.9383 68.8022 68.9427 68.9941 68.9852C69.1861 69.0277 69.3678 69.1075 69.5289 69.2199L83.4542 78.9447C83.7795 79.1719 84.0008 79.5184 84.0696 79.9082C84.1384 80.298 84.049 80.699 83.8211 81.0231C83.5931 81.3471 83.2453 81.5677 82.8542 81.6363C82.463 81.7048 82.0605 81.6157 81.7353 81.3886Z" fill="white"/>
<path d="M88.1227 63.2638L82.7289 59.4971C82.5677 59.3847 82.4303 59.2417 82.3245 59.0764C82.2188 58.9111 82.1468 58.7266 82.1126 58.5335C82.0784 58.3404 82.0828 58.1425 82.1254 57.9511C82.168 57.7597 82.2481 57.5785 82.361 57.418C82.474 57.2574 82.6176 57.1206 82.7836 57.0154C82.9496 56.9102 83.1348 56.8385 83.3286 56.8047C83.5224 56.7708 83.721 56.7753 83.9131 56.818C84.1051 56.8606 84.2868 56.9405 84.4479 57.0532L89.8416 60.8199C90.1668 61.047 90.3882 61.3936 90.457 61.7834C90.5258 62.1731 90.4364 62.5741 90.2084 62.8982C89.9805 63.2223 89.6327 63.4429 89.2415 63.5114C88.8504 63.58 88.4479 63.4909 88.1227 63.2638Z" fill="white"/>
<path d="M129.106 57.1551C140.762 57.1551 150.212 47.7184 150.212 36.0776C150.212 24.4367 140.762 15 129.106 15C117.449 15 108 24.4367 108 36.0776C108 47.7184 117.449 57.1551 129.106 57.1551Z" fill="#F58218"/>
<path d="M127.015 44.1184C126.541 44.1192 126.078 43.9658 125.698 43.6813L125.675 43.6637L120.715 39.8744C120.485 39.6985 120.292 39.4792 120.147 39.2289C120.003 38.9786 119.908 38.7023 119.871 38.4157C119.833 38.1291 119.852 37.8378 119.926 37.5586C120.001 37.2793 120.13 37.0175 120.306 36.7881C120.483 36.5587 120.702 36.3661 120.953 36.2215C121.204 36.0768 121.48 35.9829 121.767 35.9451C122.054 35.9072 122.346 35.9262 122.625 36.0009C122.905 36.0756 123.167 36.2045 123.397 36.3804L126.61 38.8408L134.202 28.9495C134.378 28.7202 134.597 28.5277 134.848 28.3832C135.098 28.2386 135.375 28.1447 135.662 28.1068C135.949 28.069 136.24 28.088 136.52 28.1626C136.799 28.2373 137.061 28.3662 137.291 28.542L137.292 28.5425L137.245 28.6078L137.293 28.5425C137.756 28.8981 138.059 29.4227 138.136 30.0012C138.212 30.5796 138.056 31.1648 137.7 31.6282L128.771 43.2573C128.564 43.5253 128.298 43.7421 127.994 43.891C127.69 44.0398 127.356 44.1168 127.017 44.1158L127.015 44.1184Z" fill="white"/>
</g>
<defs>
<clipPath id="clip0_22_3677">
<rect width="183" height="145" fill="white"/>
</clipPath>
</defs>
</svg>
