<svg width="182" height="178" viewBox="0 0 182 178" fill="none" xmlns="http://www.w3.org/2000/svg">
<g clip-path="url(#clip0_29_3852)">
<path d="M175.83 181.05L176.588 181.035C176.295 172.578 175.395 164.152 173.896 155.824C170.617 137.993 165.164 126.282 157.689 121.018L157.254 121.64C174.715 133.938 175.821 180.58 175.83 181.05Z" fill="#2F3139"/>
<path d="M166.352 180.868L167.11 180.853C167.094 180.011 166.62 160.157 158.828 154.67L158.393 155.292C165.87 160.559 166.348 180.666 166.352 180.868Z" fill="#2F3139"/>
<path d="M152.94 121.709C155.034 121.709 156.732 120.007 156.732 117.906C156.732 115.805 155.034 114.103 152.94 114.103C150.846 114.103 149.148 115.805 149.148 117.906C149.148 120.007 150.846 121.709 152.94 121.709Z" fill="#F58218"/>
<path d="M154.817 154.419C156.911 154.419 158.609 152.716 158.609 150.615C158.609 148.515 156.911 146.812 154.817 146.812C152.723 146.812 151.025 148.515 151.025 150.615C151.025 152.716 152.723 154.419 154.817 154.419Z" fill="#F58218"/>
<path d="M168.118 123.989C167.405 128.555 169.263 132.639 169.263 132.639C169.263 132.639 172.275 129.32 172.988 124.754C173.7 120.189 171.843 116.105 171.843 116.105C171.843 116.105 168.83 119.424 168.118 123.989Z" fill="#2F3139"/>
<path d="M155.724 135.078C160.081 136.577 164.414 135.454 164.414 135.454C164.414 135.454 161.681 131.9 157.323 130.401C152.965 128.901 148.633 130.024 148.633 130.024C148.633 130.024 151.366 133.578 155.724 135.078Z" fill="#2F3139"/>
<path d="M155.585 164.045C157.558 164.666 159.658 164.757 161.676 164.309C160.395 162.672 158.669 161.442 156.706 160.767C154.744 160.092 152.628 160 150.615 160.503C151.934 162.1 153.648 163.321 155.585 164.045Z" fill="#2F3139"/>
<path d="M123.265 59.028L98.8195 46.2768C98.8195 46.2768 90.6103 37.2082 85.4547 33.1121C80.2992 29.016 78.7121 32.0251 78.7121 32.0251L76.5449 35.6484L81.7824 42.9554L95.9299 54.9727L121.209 64.9048C121.604 65.5541 122.175 66.0776 122.855 66.4145C123.535 66.7513 124.297 66.8876 125.051 66.8076C125.806 66.7276 126.522 66.4346 127.117 65.9625C127.712 65.4904 128.161 64.8587 128.412 64.1408C128.663 63.4229 128.706 62.6482 128.536 61.9067C128.366 61.1652 127.989 60.4874 127.451 59.9519C126.912 59.4165 126.232 59.0455 125.491 58.8819C124.751 58.7184 123.979 58.7691 123.265 59.028Z" fill="#9F616A"/>
<path d="M59.6796 47.9998L58.2323 39.118L54.1457 38.0932C54.1457 38.0932 50.9024 37.0911 50.1443 43.6443C49.3862 50.1976 49.9739 62.4328 49.9739 62.4328L41.6767 88.7887C40.9865 89.1108 40.4017 89.6228 39.9905 90.2653C39.5792 90.9078 39.3583 91.6543 39.3536 92.4178C39.3489 93.1814 39.5605 93.9305 39.9638 94.5781C40.3671 95.2256 40.9455 95.7449 41.6316 96.0755C42.3178 96.4061 43.0834 96.5344 43.8394 96.4454C44.5954 96.3564 45.3106 96.0538 45.9018 95.5728C46.493 95.0919 46.9358 94.4523 47.1787 93.7287C47.4216 93.0051 47.4545 92.2271 47.2737 91.4854L58.1473 66.5321L59.6796 47.9998Z" fill="#9F616A"/>
<path d="M93.4816 172.643L98.829 172.642L101.373 151.952L93.4805 151.953L93.4816 172.643Z" fill="#9F616A"/>
<path d="M92.1172 170.892L102.649 170.891H102.649C104.429 170.891 106.136 171.601 107.395 172.863C108.653 174.125 109.36 175.838 109.36 177.623V177.842L92.1175 177.843L92.1172 170.892Z" fill="#2F3139"/>
<path d="M35.1551 172.643L40.5028 172.642L43.0467 151.952L35.1543 151.953L35.1551 172.643Z" fill="#9F616A"/>
<path d="M33.791 170.892L44.3224 170.891H44.3228C46.1028 170.891 47.8098 171.601 49.0684 172.863C50.327 174.125 51.0341 175.838 51.0343 177.623V177.842L33.7913 177.843L33.791 170.892Z" fill="#2F3139"/>
<path d="M61.5547 30.2576L52.6849 37.8528L59.9641 60.9596L61.6066 66.1194C61.6066 66.1194 51.5775 75.3948 45.3722 101.306C39.1669 127.216 29.0156 161.646 29.0156 161.646L50.4431 167.798L67.8758 109.185L88.3808 155.169L90.7482 168.77L108.996 163.373L104.691 129.263L83.1696 70.2181L85.4052 54.5664C85.4052 54.5664 88.7624 46.754 82.9302 38.4829L81.1009 30.7111L74.5476 29.0919L61.5547 30.2576Z" fill="#2F3139"/>
<path d="M76.2904 26.1286H52.3098C51.8165 26.1281 51.3436 25.9313 50.9948 25.5814C50.646 25.2315 50.4498 24.7571 50.4492 24.2623V13.8938C50.4492 10.2089 51.9085 6.67498 54.506 4.0694C57.1036 1.46381 60.6266 0 64.3001 0C67.9735 0 71.4966 1.46381 74.0941 4.0694C76.6916 6.67498 78.1509 10.2089 78.1509 13.8938V24.2623C78.1504 24.7571 77.9542 25.2315 77.6054 25.5814C77.2566 25.9313 76.7836 26.1281 76.2904 26.1286Z" fill="#2F3139"/>
<path d="M76.0572 20.5868C78.7473 15.6505 76.9387 9.46117 72.0176 6.7627C67.0965 4.06422 60.9263 5.8784 58.2362 10.8148C55.546 15.7512 57.3546 21.9405 62.2757 24.639C67.1969 27.3374 73.3671 25.5232 76.0572 20.5868Z" fill="#9F616A"/>
<path d="M81.4278 14.9306H66.7643L66.6139 12.8189L65.8621 14.9306H63.6042L63.3062 10.7452L61.8161 14.9306H57.4473V14.7233C57.4505 11.8094 58.6059 9.01581 60.66 6.95538C62.714 4.89495 65.4989 3.73596 68.4038 3.73267H70.4712C73.3761 3.73596 76.161 4.89494 78.2151 6.95537C80.2691 9.0158 81.4246 11.8094 81.4278 14.7233V14.9306Z" fill="#2F3139"/>
<path d="M66.6447 28.0641C66.5343 28.064 66.4241 28.0542 66.3154 28.0349L55.5781 26.1346V8.33398H67.3978L67.1052 8.67623C63.0338 13.4393 66.1011 21.1626 68.2919 25.3424C68.4533 25.6485 68.5253 25.9941 68.4996 26.3395C68.4738 26.6849 68.3513 27.016 68.1462 27.2946C67.9744 27.5328 67.7488 27.7268 67.4878 27.8605C67.2267 27.9943 66.9378 28.0641 66.6447 28.0641Z" fill="#2F3139"/>
<path d="M155.44 121.385L61.3379 154.758C59.0112 155.58 56.4544 155.443 54.2285 154.377C52.0025 153.311 50.2891 151.402 49.4642 149.07L33.2988 103.206C32.4791 100.873 32.6158 98.3078 33.6789 96.0749C34.742 93.8421 36.6447 92.1233 38.9695 91.2959L133.071 57.9221C135.398 57.0999 137.955 57.2371 140.181 58.3035C142.407 59.3699 144.12 61.2784 144.945 63.6104L161.111 109.474C161.93 111.808 161.794 114.373 160.73 116.605C159.667 118.838 157.765 120.557 155.44 121.385Z" fill="white"/>
<path d="M161.113 109.474L161.198 109.717C161.983 111.946 161.854 114.396 160.838 116.529C159.822 118.662 158.003 120.303 155.781 121.09L61.2082 154.631C58.9867 155.419 56.5443 155.289 54.4182 154.27C52.2921 153.252 50.6563 151.428 49.8707 149.199L49.7852 148.957L161.113 109.474Z" fill="#F2F2F2"/>
<path d="M55.4671 101.944C49.2296 106.061 41.2353 102.963 38.4395 98.4499L38.8852 98.1958C44.1954 94.8756 52.0815 96.7255 55.4671 101.944Z" fill="#F58218"/>
<path d="M133.632 113.625C132.105 114.167 130.73 114.142 129.545 113.551C126.867 112.217 125.611 108.259 124.601 105.079C124.307 104.154 124.03 103.28 123.747 102.566L123.743 102.555C123.252 101.138 123.337 99.584 123.981 98.2301C124.626 96.8762 125.776 95.8319 127.184 95.3242L139.841 90.8351C141.366 90.2943 142.739 90.319 143.923 90.9085C146.6 92.2415 147.858 96.1976 148.868 99.3764C149.163 100.303 149.441 101.179 149.725 101.894C150.219 103.313 150.135 104.869 149.491 106.226C148.847 107.582 147.695 108.628 146.286 109.137L133.632 113.625ZM124.274 102.363C124.563 103.094 124.842 103.975 125.138 104.907C126.116 107.986 127.332 111.817 129.796 113.045C130.854 113.572 132.047 113.587 133.444 113.092L146.097 108.604C147.365 108.147 148.401 107.207 148.982 105.987C149.562 104.768 149.639 103.368 149.197 102.092C148.91 101.37 148.629 100.485 148.331 99.5482C147.353 96.4712 146.135 92.6415 143.672 91.4151C142.616 90.889 141.424 90.8738 140.029 91.3684L127.372 95.8572C126.106 96.3142 125.071 97.2535 124.491 98.4714C123.911 99.6893 123.833 101.088 124.274 102.363Z" fill="#2F3139"/>
<path d="M52.8435 103.427C50.6193 104.2 48.2233 104.333 45.9279 103.808C42.5759 103.07 39.5337 101.062 37.9888 98.5691L37.834 98.3193L38.5297 97.9225C43.9198 94.5548 52.0025 96.3806 55.4913 101.757L55.6443 101.993L55.4101 102.148C54.6093 102.677 53.7475 103.106 52.8435 103.427ZM38.6272 98.5176C40.1391 100.771 42.9525 102.574 46.0489 103.256C49.0588 103.961 52.2245 103.448 54.8605 101.829C51.4477 96.8776 43.8868 95.235 38.8233 98.4056L38.6272 98.5176Z" fill="#2F3139"/>
<path d="M56.1491 136.345C55.3589 136.659 54.4985 136.751 53.6601 136.611C52.8217 136.471 52.037 136.105 51.3903 135.552C50.6333 134.889 50.0595 134.041 49.7241 133.09C49.3887 132.139 49.303 131.118 49.4753 130.124C49.6353 129.269 50.0282 128.476 50.6104 127.831C51.1925 127.186 51.9413 126.716 52.7736 126.472L69.6385 120.491C70.4389 120.158 71.3153 120.053 72.1712 120.188C73.0271 120.324 73.8291 120.693 74.489 121.256C75.2455 121.92 75.8189 122.768 76.1539 123.719C76.4888 124.67 76.5741 125.691 76.4015 126.684C76.0685 128.43 74.8935 129.716 73.1025 130.331L56.2373 136.313C56.2079 136.324 56.1785 136.334 56.1491 136.345ZM52.8785 127.034C52.1589 127.257 51.5134 127.672 51.0114 128.235C50.5094 128.798 50.1698 129.488 50.0292 130.23C49.874 131.125 49.9512 132.046 50.2534 132.902C50.5556 133.758 51.0726 134.522 51.7545 135.12C52.3391 135.617 53.0495 135.942 53.8069 136.058C54.5643 136.175 55.3391 136.079 56.0453 135.781L72.9186 129.797C73.6554 129.584 74.319 129.17 74.836 128.602C75.3529 128.034 75.7031 127.333 75.8477 126.578C76.0032 125.683 75.9263 124.763 75.6245 123.906C75.3227 123.05 74.8061 122.286 74.1245 121.688C73.539 121.191 72.8283 120.867 72.0706 120.749C71.313 120.632 70.5377 120.727 69.8302 121.023L52.956 127.007C52.9301 127.016 52.9041 127.025 52.8785 127.034Z" fill="#2F3139"/>
<path d="M133.745 100.131L128.429 102.017C128.076 102.142 127.688 102.121 127.351 101.959C127.014 101.798 126.754 101.508 126.629 101.155C126.505 100.801 126.525 100.412 126.686 100.074C126.848 99.7355 127.136 99.4751 127.489 99.3501L132.805 97.4645C133.158 97.3395 133.545 97.3601 133.883 97.5217C134.22 97.6834 134.48 97.9728 134.604 98.3264C134.729 98.68 134.708 99.0688 134.547 99.4072C134.386 99.7457 134.098 100.006 133.745 100.131Z" fill="#F58218"/>
<path d="M135.249 104.397L129.932 106.283C129.58 106.408 129.192 106.387 128.855 106.226C128.518 106.064 128.258 105.775 128.133 105.421C128.009 105.067 128.029 104.679 128.19 104.34C128.351 104.002 128.64 103.741 128.993 103.616L134.309 101.731C134.662 101.606 135.049 101.626 135.387 101.788C135.724 101.95 135.983 102.239 136.108 102.593C136.233 102.946 136.212 103.335 136.051 103.674C135.89 104.012 135.601 104.272 135.249 104.397Z" fill="#F58218"/>
<path d="M136.753 108.664L131.436 110.549C131.262 110.611 131.077 110.638 130.892 110.628C130.707 110.618 130.526 110.572 130.359 110.492C130.192 110.412 130.042 110.3 129.918 110.162C129.794 110.024 129.699 109.862 129.637 109.687C129.576 109.512 129.549 109.327 129.559 109.141C129.568 108.956 129.614 108.774 129.694 108.607C129.774 108.439 129.886 108.289 130.024 108.165C130.161 108.04 130.322 107.945 130.496 107.883L135.813 105.997C135.988 105.935 136.172 105.909 136.357 105.918C136.542 105.928 136.723 105.974 136.89 106.054C137.058 106.134 137.207 106.247 137.331 106.385C137.455 106.523 137.55 106.684 137.612 106.859C137.674 107.034 137.7 107.22 137.691 107.405C137.681 107.591 137.635 107.772 137.555 107.94C137.475 108.107 137.363 108.258 137.226 108.382C137.088 108.506 136.927 108.602 136.753 108.664Z" fill="#F58218"/>
<path d="M143.048 96.8314L137.731 98.7169C137.557 98.7788 137.372 98.8056 137.187 98.7958C137.002 98.786 136.821 98.7397 136.654 98.6597C136.487 98.5797 136.337 98.4674 136.213 98.3293C136.089 98.1913 135.994 98.0301 135.932 97.855C135.87 97.6799 135.844 97.4944 135.854 97.3089C135.863 97.1235 135.909 96.9418 135.989 96.7742C136.069 96.6066 136.181 96.4565 136.319 96.3323C136.456 96.2081 136.617 96.1123 136.791 96.0504L142.108 94.1649C142.46 94.0398 142.848 94.0604 143.185 94.222C143.523 94.3837 143.782 94.6731 143.907 95.0267C144.032 95.3803 144.011 95.7691 143.85 96.1075C143.689 96.446 143.4 96.7063 143.048 96.8314Z" fill="#F58218"/>
<path d="M144.552 101.098L139.235 102.983C139.061 103.045 138.876 103.072 138.691 103.062C138.506 103.052 138.325 103.006 138.158 102.926C137.991 102.846 137.841 102.734 137.717 102.596C137.593 102.458 137.498 102.296 137.436 102.121C137.374 101.946 137.348 101.761 137.357 101.575C137.367 101.39 137.413 101.208 137.493 101.041C137.573 100.873 137.685 100.723 137.822 100.599C137.96 100.474 138.121 100.379 138.295 100.317L143.612 98.4312C143.786 98.3693 143.971 98.3425 144.156 98.3523C144.341 98.3621 144.522 98.4084 144.689 98.4884C144.856 98.5684 145.006 98.6807 145.13 98.8187C145.254 98.9568 145.349 99.118 145.411 99.2931C145.473 99.4682 145.499 99.6537 145.49 99.8392C145.48 100.025 145.434 100.206 145.354 100.374C145.274 100.541 145.162 100.692 145.025 100.816C144.887 100.94 144.726 101.036 144.552 101.098Z" fill="#F58218"/>
<path d="M146.056 105.364L140.739 107.25C140.387 107.375 139.999 107.354 139.662 107.192C139.324 107.031 139.065 106.741 138.94 106.388C138.815 106.034 138.836 105.645 138.997 105.307C139.158 104.968 139.447 104.708 139.799 104.583L145.116 102.698C145.29 102.636 145.475 102.609 145.66 102.619C145.845 102.628 146.026 102.675 146.193 102.755C146.36 102.835 146.51 102.947 146.634 103.085C146.758 103.223 146.853 103.384 146.915 103.559C146.976 103.735 147.003 103.92 146.993 104.106C146.984 104.291 146.938 104.473 146.858 104.64C146.778 104.808 146.666 104.958 146.528 105.082C146.391 105.206 146.23 105.302 146.056 105.364Z" fill="#F58218"/>
<path d="M148.466 73.594L37.1387 113.077L37.3266 113.61L148.654 74.1273L148.466 73.594Z" fill="#2F3139"/>
<path d="M155.44 121.385L61.3379 154.758C59.0112 155.58 56.4544 155.443 54.2285 154.377C52.0025 153.311 50.2891 151.402 49.4642 149.07L33.2988 103.206C32.4791 100.873 32.6158 98.3078 33.6789 96.0749C34.742 93.8421 36.6447 92.1233 38.9695 91.2959L133.071 57.9221C135.398 57.0999 137.955 57.2371 140.181 58.3035C142.407 59.3699 144.12 61.2784 144.945 63.6104L161.111 109.474C161.93 111.808 161.794 114.373 160.73 116.605C159.667 118.838 157.765 120.557 155.44 121.385ZM39.1575 91.8292C36.9736 92.6065 35.1862 94.221 34.1876 96.3186C33.1889 98.4161 33.0605 100.825 33.8304 103.018L49.9958 148.881C50.7708 151.072 52.3803 152.865 54.4714 153.867C56.5624 154.868 58.9643 154.997 61.1499 154.225L155.252 120.851C157.436 120.074 159.223 118.459 160.222 116.362C161.22 114.264 161.349 111.855 160.579 109.663L144.414 63.799C143.639 61.6083 142.029 59.8154 139.938 58.8137C137.847 57.8119 135.445 57.6831 133.259 58.4554L39.1575 91.8292Z" fill="#2F3139"/>
<path d="M181.754 178H0.246279C0.180962 178 0.118319 177.96 0.0721332 177.889C0.025947 177.817 0 177.72 0 177.62C0 177.519 0.025947 177.422 0.0721332 177.351C0.118319 177.279 0.180962 177.239 0.246279 177.239H181.754C181.819 177.239 181.882 177.279 181.928 177.351C181.974 177.422 182 177.519 182 177.62C182 177.72 181.974 177.817 181.928 177.889C181.882 177.96 181.819 178 181.754 178Z" fill="#CBCBCB"/>
</g>
<defs>
<clipPath id="clip0_29_3852">
<rect width="182" height="178" fill="white"/>
</clipPath>
</defs>
</svg>
