<svg width="172" height="155" viewBox="0 0 172 155" fill="none" xmlns="http://www.w3.org/2000/svg">
<g clip-path="url(#clip0_26_10347)">
<path d="M81.6302 32.1434H80.886V11.7837C80.886 10.2362 80.5808 8.70393 79.9878 7.27427C79.3948 5.8446 78.5257 4.54558 77.43 3.45137C76.3343 2.35715 75.0335 1.48917 73.6019 0.896983C72.1703 0.304797 70.636 1.31112e-06 69.0864 0H25.8933C22.7639 -5.95775e-06 19.7626 1.24148 17.5498 3.45134C15.3369 5.6612 14.0938 8.65842 14.0938 11.7836V123.479C14.0937 125.026 14.399 126.559 14.9919 127.988C15.5849 129.418 16.4541 130.717 17.5498 131.811C18.6454 132.905 19.9462 133.773 21.3778 134.366C22.8094 134.958 24.3438 135.263 25.8933 135.263H69.0864C72.2158 135.263 75.2171 134.021 77.4299 131.811C79.6428 129.601 80.886 126.604 80.886 123.479V46.6358H81.6302V32.1434Z" fill="#2F3139"/>
<path d="M69.5625 3.06592H63.9244C64.1836 3.70074 64.2826 4.3895 64.2126 5.07152C64.1425 5.75354 63.9056 6.40789 63.5226 6.97692C63.1397 7.54596 62.6225 8.01221 62.0166 8.33461C61.4108 8.65702 60.7348 8.82568 60.0483 8.82573H35.3035C34.617 8.82568 33.941 8.65702 33.3351 8.33462C32.7293 8.01222 32.2121 7.54596 31.8291 6.97693C31.4462 6.40789 31.2093 5.75354 31.1392 5.07152C31.0692 4.3895 31.1681 3.70074 31.4274 3.06592H26.1614C25.0042 3.06592 23.8584 3.29353 22.7893 3.73577C21.7202 4.17801 20.7488 4.8262 19.9305 5.64335C19.1123 6.4605 18.4632 7.43059 18.0204 8.49825C17.5775 9.5659 17.3496 10.7102 17.3496 11.8658V123.397C17.3496 124.553 17.5775 125.697 18.0204 126.765C18.4632 127.832 19.1123 128.802 19.9305 129.62C20.7488 130.437 21.7202 131.085 22.7893 131.527C23.8584 131.969 25.0042 132.197 26.1614 132.197H69.5625C70.7197 132.197 71.8655 131.969 72.9346 131.527C74.0037 131.085 74.9751 130.437 75.7934 129.62C76.6116 128.802 77.2607 127.832 77.7035 126.765C78.1463 125.697 78.3743 124.553 78.3743 123.397V11.8658C78.3743 10.7102 78.1463 9.5659 77.7035 8.49825C77.2607 7.43059 76.6116 6.4605 75.7934 5.64335C74.9751 4.8262 74.0037 4.17801 72.9346 3.73577C71.8655 3.29353 70.7197 3.06592 69.5625 3.06592Z" fill="white"/>
<path d="M95.4748 135.282H0.249934C0.183647 135.282 0.120076 135.255 0.0732038 135.209C0.0263321 135.162 0 135.098 0 135.032C0 134.966 0.0263321 134.903 0.0732038 134.856C0.120076 134.809 0.183647 134.783 0.249934 134.783H95.4748C95.5411 134.783 95.6047 134.809 95.6515 134.856C95.6984 134.903 95.7247 134.966 95.7247 135.032C95.7247 135.098 95.6984 135.162 95.6515 135.209C95.6047 135.255 95.5411 135.282 95.4748 135.282Z" fill="#CBCBCB"/>
<path d="M47.8618 86.2806C59.5183 86.2806 68.9678 76.8439 68.9678 65.203C68.9678 53.5622 59.5183 44.1255 47.8618 44.1255C36.2053 44.1255 26.7559 53.5622 26.7559 65.203C26.7559 76.8439 36.2053 86.2806 47.8618 86.2806Z" fill="#F58218"/>
<path d="M45.7712 73.2439C45.2964 73.2447 44.8342 73.0913 44.4543 72.8068L44.4308 72.7892L39.4706 68.9999C39.2408 68.824 39.0481 68.6046 38.9032 68.3544C38.7584 68.1041 38.6643 67.8277 38.6264 67.5412C38.5885 67.2546 38.6075 66.9633 38.6823 66.6841C38.7571 66.4048 38.8862 66.143 39.0623 65.9136C39.2385 65.6842 39.4581 65.4916 39.7087 65.347C39.9594 65.2023 40.2361 65.1084 40.523 65.0705C40.81 65.0327 41.1016 65.0516 41.3813 65.1263C41.6609 65.201 41.9231 65.33 42.1528 65.5059L45.3656 67.9663L52.9577 58.075C53.1337 57.8457 53.3533 57.6532 53.6038 57.5086C53.8543 57.3641 54.1309 57.2702 54.4178 57.2323C54.7046 57.1945 54.9961 57.2134 55.2756 57.2881C55.5552 57.3628 55.8172 57.4917 56.0469 57.6675L56.0475 57.668L56.0004 57.7333L56.0488 57.668C56.512 58.0236 56.8151 58.5482 56.8916 59.1266C56.968 59.7051 56.8114 60.2903 56.4563 60.7536L47.5264 72.3828C47.3198 72.6508 47.0542 72.8676 46.7502 73.0165C46.4461 73.1653 46.1118 73.2423 45.7732 73.2413L45.7712 73.2439Z" fill="white"/>
<path d="M134.515 137.353C134.771 136.939 135.074 136.554 135.416 136.207C135.557 136.06 135.706 135.923 135.859 135.789C136.792 134.959 137.93 134.393 139.155 134.148C140.38 133.903 141.648 133.989 142.829 134.395C144.01 134.802 145.061 135.516 145.875 136.463C146.688 137.41 147.234 138.556 147.457 139.784C148.487 135.977 145.804 132.227 143.106 129.347C140.407 126.468 137.322 123.309 137.338 119.364C137.345 117.168 138.42 115.21 140.044 113.758C140.094 113.714 140.144 113.67 140.195 113.627C142.158 111.947 144.683 111.069 147.266 111.167C152.064 111.423 156.254 114.644 159.164 118.464C163.847 124.611 165.899 133.24 162.621 140.237C159.737 146.391 153.586 150.046 147.308 152.984C146.432 153.394 145.557 153.792 144.684 154.177C144.678 154.179 144.672 154.183 144.666 154.185C144.624 154.203 144.582 154.221 144.543 154.24C144.362 154.32 144.182 154.399 144.003 154.478L144.086 154.532L144.344 154.699C144.255 154.644 144.166 154.592 144.077 154.538C144.05 154.521 144.022 154.506 143.995 154.49C140.912 152.642 137.786 150.688 135.656 147.803C133.447 144.809 132.559 140.519 134.515 137.353Z" fill="#F58218"/>
<path d="M155.085 130.399C155.768 131.95 156.22 133.592 156.429 135.273C156.592 136.773 156.531 138.288 156.246 139.769C155.634 142.813 154.298 145.665 152.353 148.086C150.884 149.925 149.19 151.57 147.308 152.984C146.432 153.394 145.557 153.792 144.684 154.177C144.678 154.179 144.672 154.183 144.666 154.185C144.624 154.203 144.582 154.222 144.543 154.241C144.362 154.32 144.182 154.399 144.004 154.478L144.086 154.532L144.344 154.699C144.255 154.645 144.166 154.592 144.077 154.538C144.05 154.521 144.022 154.506 143.996 154.49C144.674 152.119 144.774 149.621 144.287 147.205C143.799 144.788 142.739 142.524 141.195 140.6C139.642 138.702 137.662 137.196 135.416 136.207C135.557 136.06 135.706 135.923 135.859 135.789C136.724 136.185 137.553 136.658 138.335 137.2C141.131 139.13 143.23 141.908 144.323 145.122C145.298 148.039 145.42 151.172 144.674 154.155C144.828 154.054 144.984 153.95 145.135 153.847C148.007 151.913 150.654 149.59 152.648 146.741C154.368 144.333 155.468 141.54 155.853 138.608C156.235 135.404 155.432 132.254 154 129.396C152.419 126.338 150.426 123.511 148.078 120.992C145.719 118.404 143.052 116.114 140.136 114.173C140.07 114.129 140.024 114.061 140.007 113.983C139.99 113.906 140.003 113.825 140.044 113.758C140.076 113.696 140.13 113.649 140.196 113.627C140.229 113.619 140.264 113.618 140.297 113.625C140.331 113.631 140.363 113.646 140.39 113.667C140.75 113.906 141.107 114.148 141.46 114.398C144.396 116.474 147.063 118.907 149.399 121.64C151.656 124.274 153.71 127.201 155.085 130.399Z" fill="white"/>
<path d="M92.2265 9.78706C94.702 9.78706 96.7088 7.78296 96.7088 5.31077C96.7088 2.83858 94.702 0.834473 92.2265 0.834473C89.751 0.834473 87.7441 2.83858 87.7441 5.31077C87.7441 7.78296 89.751 9.78706 92.2265 9.78706Z" fill="#F58218" fill-opacity="0.21"/>
<path d="M147.961 69.6902C149.471 69.6902 150.694 68.4683 150.694 66.961C150.694 65.4538 149.471 64.2319 147.961 64.2319C146.452 64.2319 145.229 65.4538 145.229 66.961C145.229 68.4683 146.452 69.6902 147.961 69.6902Z" fill="#F58218" fill-opacity="0.21"/>
<path d="M69.5253 155H164.75C164.816 155 164.88 154.974 164.927 154.927C164.974 154.88 165 154.817 165 154.751C165 154.684 164.974 154.621 164.927 154.574C164.88 154.527 164.816 154.501 164.75 154.501H69.5253C69.459 154.501 69.3955 154.527 69.3486 154.574C69.3017 154.621 69.2754 154.684 69.2754 154.751C69.2754 154.817 69.3017 154.88 69.3486 154.927C69.3955 154.974 69.459 155 69.5253 155Z" fill="#CBCBCB"/>
<path d="M154.242 24.1198C154.367 23.2333 154.162 22.3317 153.666 21.586C153.17 20.8403 152.417 20.3022 151.55 20.0737C150.683 19.8453 149.763 19.9423 148.963 20.3464C148.163 20.7504 147.539 21.4336 147.21 22.2663L139.482 31.1131L141.75 37.4371L149.521 27.0999C150.028 27.2621 150.565 27.3114 151.093 27.2441C151.621 27.1768 152.128 26.9947 152.578 26.7106C153.028 26.4265 153.41 26.0472 153.698 25.5996C153.985 25.152 154.171 24.6469 154.242 24.1198Z" fill="#FFB7B7"/>
<path d="M122.21 58.5427L147.861 31.2046L144.401 25.7114L112.229 52.8836L122.21 58.5427Z" fill="#2F3139"/>
<path d="M116.486 41.9324C121.455 41.9324 125.484 37.9095 125.484 32.9469C125.484 27.9844 121.455 23.9614 116.486 23.9614C111.517 23.9614 107.488 27.9844 107.488 32.9469C107.488 37.9095 111.517 41.9324 116.486 41.9324Z" fill="#2F3139"/>
<path d="M117.209 27.8708C119.145 25.9101 121.488 24.397 124.073 23.4382C125.732 22.8243 127.538 22.445 129.273 22.7936C131.008 23.1422 132.648 24.3407 133.132 26.0403C133.528 27.4302 133.119 28.9266 132.505 30.235C131.891 31.5433 131.071 32.7565 130.574 34.1137C130.067 35.4984 129.915 36.9877 130.131 38.4462C130.347 39.9047 130.924 41.2863 131.81 42.4656C132.696 43.6448 133.863 44.5844 135.205 45.199C136.547 45.8137 138.021 46.0839 139.494 45.9851C137.79 46.2133 136.219 47.0132 134.553 47.439C132.887 47.8647 130.921 47.8358 129.682 46.6439C128.373 45.3829 128.346 43.3325 128.41 41.5166C128.504 38.8172 128.598 36.1178 128.692 33.4184C128.74 32.0418 128.781 30.621 128.284 29.3361C127.787 28.0512 126.605 26.9261 125.226 26.9378C124.181 26.9466 123.256 27.5791 122.417 28.2027C121.579 28.8264 120.692 29.4918 119.65 29.5846C118.609 29.6774 117.42 28.9078 117.498 27.8668L117.209 27.8708Z" fill="#2F3139"/>
<path d="M82.3122 93.2805C81.4484 93.5201 80.5266 93.435 79.7214 93.0413C78.9163 92.6475 78.2837 91.9725 77.9436 91.1441C77.6036 90.3158 77.5796 89.3916 77.8762 88.5467C78.1728 87.7018 78.7695 86.995 79.5531 86.5601L87.3262 77.7534L93.9007 79.1719L84.6538 88.2168C84.8811 88.6977 85.0001 89.2225 85.0023 89.7543C85.0046 90.286 84.89 90.8118 84.6668 91.2946C84.4435 91.7774 84.117 92.2054 83.7102 92.5485C83.3034 92.8916 82.8262 93.1415 82.3122 93.2805Z" fill="#FFB7B7"/>
<path d="M107.887 61.7517L88.5129 86.0376L82.6074 83.3299L105.379 47.9258L107.887 61.7517Z" fill="#2F3139"/>
<path d="M92.4278 135.085L87.8105 135.013L88.3659 150.729H92.4271L92.4278 135.085Z" fill="#FFB7B7"/>
<path d="M93.4627 149.405L85.4646 149.404H85.4642C84.1125 149.404 82.8161 149.941 81.8602 150.895C80.9043 151.85 80.3673 153.144 80.3672 154.494V154.66L93.4625 154.66L93.4627 149.405Z" fill="#48494D"/>
<path d="M122.999 130.917L117.955 134.15L128.044 146.272L131.462 144.081L122.999 130.917Z" fill="#FFB7B7"/>
<path d="M131.617 142.408L124.886 146.723L124.886 146.723C123.749 147.453 122.948 148.603 122.66 149.922C122.372 151.241 122.621 152.62 123.351 153.756L123.44 153.896L134.46 146.83L131.617 142.408Z" fill="#48494D"/>
<path d="M124.796 82.9263C124.796 82.9263 113.589 45.7544 109.987 45.2521C106.386 44.7498 100.583 54.79 100.583 54.79C93.059 64.3766 85.3008 95.4297 85.3008 95.4297C85.3008 95.4297 98.234 96.2379 107.688 101.261C117.142 106.284 128.3 101.007 128.3 101.007L124.796 82.9263Z" fill="#2F3139"/>
<path opacity="0.1" d="M124.796 82.9262C124.796 82.9262 113.589 45.7543 109.987 45.2519C106.386 44.7496 102.057 54.8917 102.057 54.8917C98.3076 70.3668 85.3008 95.4295 85.3008 95.4295C85.3008 95.4295 98.234 96.2377 107.688 101.261C117.142 106.284 128.3 101.007 128.3 101.007L124.796 82.9262Z" fill="black"/>
<path d="M115.601 71.8047V90.4833L117.802 117.541L128.799 138.008L123.551 141.752L108.555 122.283L102.623 102.952L93.3087 145.745L86.3105 145.246L91.1708 85.9139L100.394 69.2134L115.601 71.8047Z" fill="#48494D"/>
<path d="M104.302 53.7383C100.803 57.2326 104.052 60.9766 104.052 60.9766L100.053 69.9621L115.799 74.2053L121.301 49.6503L117.552 45.6567C110.054 45.4071 110.05 45.252 110.05 45.252C108.736 46.5358 104.302 53.7383 104.302 53.7383Z" fill="#F58218"/>
<path d="M121.935 47.1064C121.22 46.5792 120.408 46.199 119.544 45.9877C118.681 45.7765 117.784 45.7384 116.906 45.8756C116.028 46.0129 115.186 46.3228 114.428 46.7874C113.671 47.252 113.013 47.8621 112.494 48.5823C108.535 54.0865 104.875 62.9744 109.918 74.0592C118.016 91.8578 125.062 100.969 127.927 100.968C128.052 100.969 128.177 100.95 128.295 100.911C130.059 100.313 132.608 97.3334 133.07 94.7075C133.235 93.7676 133.196 92.4584 132.07 91.5595C128.837 88.9771 123.033 80.9362 121.223 70.3527C120.222 64.5047 122.162 59.1778 123.966 55.7389C124.728 54.3159 124.951 52.6664 124.594 51.0927C124.237 49.5189 123.324 48.1264 122.022 47.1704L121.935 47.1064Z" fill="#2F3139"/>
<path d="M116.949 41.0497C120.158 39.2975 121.338 35.2786 119.583 32.0733C117.829 28.8679 113.805 27.6899 110.595 29.4421C107.385 31.1943 106.206 35.2132 107.96 38.4186C109.715 41.6239 113.739 42.8019 116.949 41.0497Z" fill="#FFB7B7"/>
<path d="M104.457 34.7458H114.021L114.119 33.3745L114.609 34.7458H116.082L116.276 32.028L117.248 34.7458H120.098V34.6111C120.096 32.7191 119.342 30.9051 118.002 29.5672C116.663 28.2293 114.846 27.4767 112.952 27.4746H111.603C109.709 27.4767 107.892 28.2293 106.552 29.5672C105.213 30.9051 104.459 32.7191 104.457 34.6111V34.7458Z" fill="#2F3139"/>
<path d="M118.653 39.6746L122.734 38.352V28.4541H115.025L115.216 28.6444C117.872 31.2929 120.825 40.6892 118.653 39.6746Z" fill="#2F3139"/>
</g>
<defs>
<clipPath id="clip0_26_10347">
<rect width="172" height="155" fill="white"/>
</clipPath>
</defs>
</svg>
