<svg width="196" height="104" viewBox="0 0 196 104" fill="none" xmlns="http://www.w3.org/2000/svg">
<mask id="mask0_241_11212" style="mask-type:alpha" maskUnits="userSpaceOnUse" x="0" y="0" width="196" height="104">
<rect width="196" height="104" fill="#F5F6F7"/>
</mask>
<g mask="url(#mask0_241_11212)">
<path d="M207.091 140.39C198.373 137.693 189.835 134.43 181.545 130.641C177.86 128.956 174.147 127.114 171.291 124.247C163.995 116.921 164.24 105.228 166.254 95.2806C166.732 92.9184 167.283 90.5708 167.906 88.2422C169.7 81.5364 172.092 74.9887 175.041 68.7016C178.978 60.3077 183.96 52.239 186.02 43.0844C188.08 33.9332 185.988 23.5611 179.206 17.2814C176.47 14.7489 173.743 12.6422 170.509 11.3884C168.306 10.5315 165.937 9.96707 163.478 9.77445C162.353 9.68439 161.205 9.66844 160.031 9.73061C155.339 9.98689 150.487 11.6481 145.884 13.49C145.428 13.673 144.972 13.8567 144.518 14.0415C137.43 16.9146 130.174 19.6003 122.832 18.9177C116.285 18.309 109.875 14.5032 107.053 8.4966C103.036 -0.0507795 106.171 -9.84435 108.068 -18.8309C108.217 -19.5392 108.358 -20.251 108.491 -20.9653C110.489 -31.7619 110.432 -43.1089 105.866 -53.0463C101 -63.6407 90.083 -72.1602 78.1357 -71.5929" stroke="#808B97" stroke-opacity="0.1" stroke-miterlimit="10"/>
<path d="M217.463 46.2708C213.352 38.1646 208.71 30.3286 203.586 22.8224C201.308 19.4854 198.869 16.147 195.555 13.8184C187.087 7.86881 175.528 10.0336 165.991 13.6464C163.726 14.504 161.488 15.4311 159.281 16.4256C152.924 19.2895 146.823 22.7126 141.071 26.6398C133.393 31.8832 126.209 38.0978 117.467 41.6248C108.728 45.1518 98.0943 44.8082 90.7482 39.1899C87.7856 36.9241 85.2468 34.5965 83.4705 31.6307C82.2579 29.6109 81.308 27.381 80.7121 25.0011C80.4375 23.9124 80.2328 22.7894 80.1011 21.6273C79.5829 16.9835 80.4321 11.9519 81.5015 7.13416C81.6078 6.65641 81.7151 6.17953 81.8236 5.70309C83.5068 -1.72099 84.9765 -9.27978 83.0906 -16.368C81.409 -22.6886 76.5785 -28.348 70.1552 -30.1273C61.0149 -32.6598 51.8158 -27.9731 43.2134 -24.633C42.5354 -24.3697 41.8526 -24.1141 41.1658 -23.8668C30.7845 -20.1297 19.5189 -18.3174 8.90932 -21.1595C-2.4015 -24.188 -12.65 -33.4919 -14.0542 -45.3026" stroke="#808B97" stroke-opacity="0.1" stroke-miterlimit="10"/>
</g>
</svg>
