<svg width="335" height="6" viewBox="0 0 335 6" fill="none" xmlns="http://www.w3.org/2000/svg">
<g clip-path="url(#clip0_583_442)">
<circle cx="5.97879" cy="5.98214" r="5.48214" transform="rotate(90 5.97879 5.98214)" fill="white" stroke="#E5E8EA"/>
<circle cx="17.9475" cy="5.98214" r="5.48214" transform="rotate(90 17.9475 5.98214)" fill="white" stroke="#E5E8EA"/>
<circle cx="29.9085" cy="5.98214" r="5.48214" transform="rotate(90 29.9085 5.98214)" fill="white" stroke="#E5E8EA"/>
<circle cx="41.8772" cy="5.98214" r="5.48214" transform="rotate(90 41.8772 5.98214)" fill="white" stroke="#E5E8EA"/>
<circle cx="53.8382" cy="5.98214" r="5.48214" transform="rotate(90 53.8382 5.98214)" fill="white" stroke="#E5E8EA"/>
<circle cx="65.8069" cy="5.98214" r="5.48214" transform="rotate(90 65.8069 5.98214)" fill="white" stroke="#E5E8EA"/>
<circle cx="77.7679" cy="5.98214" r="5.48214" transform="rotate(90 77.7679 5.98214)" fill="white" stroke="#E5E8EA"/>
<circle cx="89.7366" cy="5.98214" r="5.48214" transform="rotate(90 89.7366 5.98214)" fill="white" stroke="#E5E8EA"/>
<circle cx="101.698" cy="5.98214" r="5.48214" transform="rotate(90 101.698 5.98214)" fill="white" stroke="#E5E8EA"/>
<circle cx="113.658" cy="5.98214" r="5.48214" transform="rotate(90 113.658 5.98214)" fill="white" stroke="#E5E8EA"/>
<circle cx="125.627" cy="5.98214" r="5.48214" transform="rotate(90 125.627 5.98214)" fill="white" stroke="#E5E8EA"/>
<circle cx="137.588" cy="5.98214" r="5.48214" transform="rotate(90 137.588 5.98214)" fill="white" stroke="#E5E8EA"/>
<circle cx="149.557" cy="5.98214" r="5.48214" transform="rotate(90 149.557 5.98214)" fill="white" stroke="#E5E8EA"/>
<circle cx="161.518" cy="5.98214" r="5.48214" transform="rotate(90 161.518 5.98214)" fill="white" stroke="#E5E8EA"/>
<circle cx="173.487" cy="5.98214" r="5.48214" transform="rotate(90 173.487 5.98214)" fill="white" stroke="#E5E8EA"/>
<circle cx="185.448" cy="5.98214" r="5.48214" transform="rotate(90 185.448 5.98214)" fill="white" stroke="#E5E8EA"/>
<circle cx="197.408" cy="5.98214" r="5.48214" transform="rotate(90 197.408 5.98214)" fill="white" stroke="#E5E8EA"/>
<circle cx="209.377" cy="5.98214" r="5.48214" transform="rotate(90 209.377 5.98214)" fill="white" stroke="#E5E8EA"/>
<circle cx="221.338" cy="5.98214" r="5.48214" transform="rotate(90 221.338 5.98214)" fill="white" stroke="#E5E8EA"/>
<circle cx="233.307" cy="5.98214" r="5.48214" transform="rotate(90 233.307 5.98214)" fill="white" stroke="#E5E8EA"/>
<circle cx="245.268" cy="5.98214" r="5.48214" transform="rotate(90 245.268 5.98214)" fill="white" stroke="#E5E8EA"/>
<circle cx="257.237" cy="5.98214" r="5.48214" transform="rotate(90 257.237 5.98214)" fill="white" stroke="#E5E8EA"/>
<circle cx="269.198" cy="5.98214" r="5.48214" transform="rotate(90 269.198 5.98214)" fill="white" stroke="#E5E8EA"/>
<circle cx="281.158" cy="5.98214" r="5.48214" transform="rotate(90 281.158 5.98214)" fill="white" stroke="#E5E8EA"/>
<circle cx="293.127" cy="5.98214" r="5.48214" transform="rotate(90 293.127 5.98214)" fill="white" stroke="#E5E8EA"/>
<circle cx="305.088" cy="5.98214" r="5.48214" transform="rotate(90 305.088 5.98214)" fill="white" stroke="#E5E8EA"/>
<circle cx="317.057" cy="5.98214" r="5.48214" transform="rotate(90 317.057 5.98214)" fill="white" stroke="#E5E8EA"/>
<circle cx="329.018" cy="5.98214" r="5.48214" transform="rotate(90 329.018 5.98214)" fill="white" stroke="#E5E8EA"/>
</g>
<defs>
<clipPath id="clip0_583_442">
<rect width="335" height="6" fill="white"/>
</clipPath>
</defs>
</svg>
