<svg id="union" viewBox="0 0 335 56" xmlns="http://www.w3.org/2000/svg">
<path fill-rule="evenodd" clip-rule="evenodd" d="M168.511 0.00457217C190.765 0.40297 211.747 23 234.004 23H330C332.761 23 335 25.2386 335 28C335 30.7614 332.761 33 330 33H234.004C211.747 33 190.765 55.597 168.511 55.9954C168.341 55.9985 168.171 56 168 56C167.829 56 167.659 55.9985 167.489 55.9954C145.235 55.597 124.253 33 101.996 33H4.99999C2.23857 33 0 30.7614 0 28C0 25.2386 2.23858 23 5 23H101.996C124.253 23 145.235 0.402969 167.489 0.00457214C167.659 0.00152836 167.829 0 168 0C168.171 0 168.341 0.00152837 168.511 0.00457217Z"/>
</svg>
