<svg width="281" height="186" viewBox="0 0 281 186" fill="none" xmlns="http://www.w3.org/2000/svg">
<g clip-path="url(#clip0_49_7276)">
<path d="M100.794 107.045C110.424 90.1723 128.794 77.2169 148.239 78.465C133.896 94.0008 125.532 114.089 124.627 135.176C124.308 143.309 124.803 152.389 119.381 158.479C116.007 162.269 110.85 164.104 105.78 164.489C100.71 164.874 95.6406 163.961 90.638 163.053L89.4245 163.424C88.9625 144.021 91.1645 123.917 100.794 107.045Z" fill="#F0F0F0"/>
<path d="M148.269 78.8713C133.89 85.7661 121.628 97.2811 114.102 111.325C112.474 114.361 111.089 117.582 110.484 120.987C109.88 124.395 110.302 127.638 111.471 130.874C112.539 133.832 113.975 136.735 114.303 139.901C114.648 143.237 113.415 146.357 111.197 148.833C108.482 151.863 104.836 153.74 101.207 155.453C97.1775 157.354 92.9618 159.265 90.1077 162.814C89.7619 163.244 89.1123 162.684 89.4576 162.255C94.4232 156.081 102.923 154.92 108.817 149.947C111.568 147.626 113.632 144.466 113.502 140.763C113.388 137.525 111.909 134.53 110.802 131.544C109.639 128.408 109.059 125.256 109.476 121.913C109.903 118.493 111.165 115.211 112.707 112.147C116.185 105.236 120.945 98.8919 126.397 93.4075C132.664 87.1032 139.967 81.9132 147.991 78.0619C148.488 77.8237 148.763 78.6347 148.269 78.8713Z" fill="white"/>
<path d="M116.305 106.631C114.101 105.025 112.541 102.692 111.905 100.046C111.268 97.4013 111.597 94.617 112.831 92.1907C113.083 91.7007 113.859 92.0668 113.607 92.5576C112.454 94.8148 112.148 97.4084 112.746 99.8703C113.343 102.332 114.805 104.5 116.867 105.983C117.314 106.306 116.751 106.952 116.305 106.631Z" fill="white"/>
<path d="M110.729 129.445C116.253 128.641 121.27 125.793 124.779 121.468C125.126 121.04 125.776 121.599 125.429 122.027C121.769 126.52 116.542 129.474 110.792 130.298C110.244 130.376 110.184 129.522 110.729 129.445Z" fill="white"/>
<path d="M133.087 88.1558C133.81 88.954 134.721 89.5609 135.738 89.9219C136.754 90.2829 137.845 90.3867 138.912 90.2241C139.459 90.1391 139.518 90.9927 138.975 91.0772C137.795 91.2514 136.591 91.1353 135.467 90.7389C134.342 90.3425 133.333 89.678 132.526 88.8033C132.443 88.7272 132.392 88.6225 132.384 88.5105C132.376 88.3984 132.411 88.2874 132.482 88.2001C132.556 88.1147 132.662 88.0622 132.775 88.0539C132.889 88.0456 133.001 88.0822 133.087 88.1558Z" fill="white"/>
<path d="M186.929 131.692C186.589 131.754 186.249 131.817 185.906 131.886C181.34 132.754 176.853 133.989 172.488 135.581C172.148 135.699 171.806 135.823 171.471 135.95C160.995 139.896 151.346 145.744 143.014 153.198C139.702 156.167 136.621 159.383 133.798 162.818C129.9 167.562 126.052 173.014 120.958 176.107C120.43 176.436 119.882 176.732 119.318 176.993L89.9729 164.869C89.9201 164.809 89.8642 164.754 89.8111 164.693L88.6172 164.262C88.7504 164.075 88.8925 163.884 89.0257 163.697C89.1025 163.588 89.1858 163.481 89.2626 163.372C89.3159 163.301 89.3695 163.229 89.4134 163.161C89.4311 163.137 89.449 163.113 89.4639 163.096C89.5078 163.028 89.5559 162.97 89.5971 162.909C90.3887 161.837 91.1893 160.768 91.9988 159.704C92.0016 159.697 92.0016 159.697 92.0109 159.693C98.1998 151.597 105.122 143.945 112.99 137.582C113.226 137.39 113.466 137.192 113.716 137.006C117.278 134.158 121.069 131.604 125.049 129.371C127.232 128.155 129.476 127.05 131.772 126.06C137.708 123.513 144.01 121.912 150.445 121.316C163.275 120.129 176.343 123.043 186.184 131.071C186.435 131.276 186.68 131.479 186.929 131.692Z" fill="#F0F0F0"/>
<path d="M186.709 132.036C171.06 128.918 154.309 130.759 139.811 137.458C136.676 138.907 133.623 140.648 131.082 143.005C128.539 145.362 126.916 148.205 125.893 151.49C124.957 154.492 124.35 157.672 122.698 160.396C120.956 163.267 118.086 165.019 114.818 165.665C110.819 166.456 106.774 165.769 102.841 164.96C98.4741 164.061 93.9528 163.059 89.5289 164.181C88.9929 164.317 88.8125 163.481 89.3477 163.345C97.0445 161.393 104.533 165.564 112.245 165.127C115.844 164.924 119.403 163.639 121.537 160.604C123.404 157.95 124.033 154.672 124.954 151.624C125.921 148.423 127.363 145.558 129.717 143.139C132.125 140.664 135.116 138.801 138.2 137.279C145.154 133.847 152.79 131.635 160.459 130.526C169.273 129.25 178.242 129.486 186.976 131.223C187.517 131.33 187.246 132.143 186.709 132.036Z" fill="white"/>
<path d="M144.408 135.032C143.618 132.429 143.784 129.63 144.874 127.136C145.965 124.643 147.91 122.617 150.362 121.42C150.859 121.179 151.258 121.937 150.76 122.178C148.475 123.288 146.663 125.176 145.652 127.5C144.641 129.824 144.498 132.432 145.247 134.852C145.41 135.378 144.569 135.556 144.408 135.032Z" fill="white"/>
<path d="M126.166 149.904C131.062 152.575 136.79 153.309 142.205 151.961C142.742 151.827 142.922 152.663 142.387 152.797C136.748 154.19 130.79 153.414 125.701 150.623C125.216 150.357 125.684 149.64 126.166 149.904Z" fill="white"/>
<path d="M168.976 130.345C169.07 131.416 169.431 132.446 170.024 133.344C170.618 134.242 171.426 134.979 172.376 135.489C172.864 135.749 172.395 136.466 171.911 136.208C170.863 135.64 169.972 134.825 169.314 133.834C168.656 132.844 168.252 131.708 168.136 130.525C168.116 130.415 168.139 130.301 168.2 130.206C168.261 130.112 168.356 130.044 168.465 130.017C168.577 129.994 168.693 130.015 168.788 130.076C168.884 130.138 168.951 130.234 168.976 130.345Z" fill="white"/>
<path d="M131.03 151.693C126.92 131.901 121.783 125.302 121.783 125.302L119.82 123.787L117.46 121.961L117.472 121.726L116.912 121.536L116.78 121.435L116.565 121.27L116.53 121.307L116.457 121.382L105.778 117.767L92.2287 113.183L85.9547 105.06C84.9329 103.738 83.6174 102.668 82.1113 101.937C80.6052 101.205 78.9494 100.831 77.2737 100.843L57.2367 100.991C54.5274 101.011 51.9236 102.039 49.9373 103.875L36.7672 116.042L16.2457 125.804L16.2111 125.769L15.9956 125.923L12.8248 127.433L12.9556 128.111L10.9931 129.522C10.9931 129.522 5.85604 135.662 1.74634 154.078C0.700884 158.764 0.18627 168.816 0.000521991 181.202C-0.00880811 181.829 0.107021 182.451 0.341271 183.033C0.575521 183.614 0.92352 184.144 1.36503 184.59C1.80655 185.036 2.33277 185.391 2.91309 185.633C3.49342 185.875 4.11628 186 4.74545 186H114.355L128.036 186C128.664 186 129.287 185.875 129.867 185.633C130.447 185.392 130.973 185.037 131.414 184.591C131.855 184.146 132.204 183.617 132.438 183.036C132.673 182.455 132.789 181.833 132.781 181.207C132.599 167.728 132.085 156.775 131.03 151.693Z" fill="#F58218"/>
<path d="M145.093 17.2598C140.828 17.2598 136.739 18.9471 133.723 21.9505C130.708 24.9539 129.014 29.0274 129.014 33.2748C129.014 37.5223 130.708 41.5958 133.723 44.5992C136.739 47.6026 140.828 49.2899 145.093 49.2899H264.921C269.185 49.2899 273.275 47.6026 276.29 44.5992C279.306 41.5958 281 37.5223 281 33.2748C281 29.0274 279.306 24.9539 276.29 21.9505C273.275 18.9471 269.185 17.2598 264.921 17.2598H145.093Z" fill="#E5E5E5"/>
<path d="M145.093 20.501C141.691 20.501 138.429 21.8468 136.024 24.2424C133.619 26.6379 132.268 29.887 132.268 33.2749C132.268 36.6628 133.619 39.9118 136.024 42.3074C138.429 44.703 141.691 46.0488 145.093 46.0488H264.92C268.322 46.0488 271.584 44.703 273.989 42.3074C276.394 39.9118 277.745 36.6628 277.745 33.2749C277.745 29.887 276.394 26.6379 273.989 24.2424C271.584 21.8468 268.322 20.501 264.92 20.501H145.093Z" fill="white"/>
<path d="M70.4009 93.3456C84.8987 93.3456 96.6515 81.6397 96.6515 67.1997C96.6515 52.7597 84.8987 41.0537 70.4009 41.0537C55.9032 41.0537 44.1504 52.7597 44.1504 67.1997C44.1504 81.6397 55.9032 93.3456 70.4009 93.3456Z" fill="#9E616A"/>
<path d="M63.6871 92.0655C63.5749 91.8196 63.4631 91.5728 63.3516 91.3252C63.3945 91.3266 63.4371 91.3327 63.4801 91.3338L63.6871 92.0655Z" fill="#2F2E41"/>
<path d="M43.4215 42.2423C44.7492 41.1874 46.301 40.2168 47.9985 40.2713C49.6959 40.3258 51.4173 41.8528 51.0656 43.5078C54.1835 38.0092 59.1463 33.7802 65.0828 31.563C71.0193 29.3459 77.5503 29.2822 83.5292 31.3833C87.7482 32.8658 91.8855 35.8318 92.8546 40.1819C93.1034 41.2986 93.1568 42.5231 93.8568 43.4299C94.7395 44.5731 96.4282 44.8318 97.8188 44.4296C97.8327 44.4256 97.8465 44.4215 97.8604 44.4174C98.0953 44.3375 98.3489 44.3296 98.5883 44.3948C98.8278 44.46 99.0421 44.5953 99.2035 44.7831C99.3649 44.9709 99.466 45.2027 99.4937 45.4484C99.5215 45.6941 99.4746 45.9424 99.3591 46.1612L98.1653 48.3787C99.6701 48.7128 101.234 48.6796 102.723 48.2822C102.97 48.2175 103.232 48.2307 103.471 48.3199C103.711 48.4091 103.917 48.5699 104.061 48.7804C104.205 48.9908 104.28 49.2404 104.276 49.4951C104.272 49.7498 104.189 49.9971 104.039 50.2029C100.103 55.5856 93.5265 59.0614 86.8157 59.0206C82.0461 58.9916 77.2274 57.3543 72.5855 58.4468C70.7897 58.8694 69.1117 59.6871 67.6746 60.8399C66.2375 61.9927 65.0778 63.4513 64.2805 65.1088C63.4832 66.7662 63.0686 68.5804 63.067 70.4183C63.0655 72.2562 63.4771 74.0711 64.2717 75.7298C62.8456 74.1763 60.089 74.5441 58.6303 76.0673C57.1717 77.5905 56.794 79.864 56.941 81.9639C57.1658 85.1756 58.4291 88.202 59.761 91.1474C48.5944 90.7973 38.0325 82.9952 34.4774 72.4428C30.9073 61.8461 34.6489 49.2127 43.4215 42.2423Z" fill="#2F2E41"/>
<path opacity="0.2" d="M25.8379 145.718L33.2006 185.617L37.6184 186L25.8379 145.718Z" fill="#2F2E41"/>
<path opacity="0.2" d="M106.939 142.708L99.576 185.588L95.1582 186L106.939 142.708Z" fill="#2F2E41"/>
<path d="M49.7015 28.8144C48.2898 29.4015 46.8168 28.7581 46.199 27.2845C45.5718 25.7884 46.1576 24.2697 47.5919 23.6732C49.0264 23.0766 50.4732 23.7216 51.1105 25.2418C51.7383 26.7392 51.1588 28.2083 49.7015 28.8144ZM46.9973 20.7284L45.8748 21.1952C45.5944 21.3105 45.2808 21.3167 44.996 21.2127C44.7112 21.1086 44.476 20.9019 44.3369 20.6334L44.2814 20.5253C43.0737 18.3558 42.9354 15.7191 43.8726 12.6926C44.7408 9.97769 45.1014 8.06829 44.3762 6.33848C43.5377 4.33849 41.7473 3.71199 39.4641 4.61954C38.5785 4.98784 38.2967 4.98197 37.5999 5.67052C37.4483 5.82212 37.2676 5.94176 37.0686 6.02231C36.8696 6.10286 36.6563 6.14267 36.4415 6.13936C36.2339 6.13692 36.0289 6.09287 35.8387 6.00981C35.6485 5.92676 35.4771 5.80641 35.3346 5.65594C35.0601 5.36597 34.9063 4.98306 34.9043 4.58454C34.9023 4.18602 35.0522 3.80158 35.3237 3.50886C36.4951 2.28759 37.9078 1.32141 39.4729 0.671287C44.3785 -1.36898 46.8481 1.64318 47.9782 4.33878C49.0835 6.97538 48.4617 9.42171 47.4627 12.5899C46.6254 15.2226 46.6742 17.1733 47.6252 19.1129C47.6939 19.2596 47.7321 19.4185 47.7376 19.5802C47.743 19.7419 47.7156 19.9031 47.6569 20.0539C47.5983 20.2048 47.5096 20.3424 47.3963 20.4583C47.2829 20.5742 47.1472 20.6661 46.9973 20.7284Z" fill="#F58218"/>
<path opacity="0.2" d="M231.167 142.502C227.907 143.857 224.506 142.372 223.08 138.971C221.632 135.518 222.984 132.013 226.296 130.636C229.608 129.259 232.949 130.748 234.421 134.257C235.87 137.712 234.532 141.103 231.167 142.502ZM224.923 123.84L222.331 124.917C221.684 125.183 220.96 125.198 220.302 124.957C219.644 124.717 219.101 124.24 218.78 123.621L218.652 123.371C215.863 118.364 215.544 112.279 217.708 105.294C219.713 99.0279 220.545 94.6211 218.871 90.6288C216.935 86.0129 212.801 84.567 207.529 86.6616C205.484 87.5116 204.833 87.4981 203.224 89.0872C202.874 89.4371 202.457 89.7132 201.997 89.8991C201.538 90.085 201.045 90.1769 200.549 90.1692C200.07 90.1636 199.597 90.0619 199.158 89.8703C198.718 89.6786 198.323 89.4008 197.994 89.0536C197.36 88.3843 197.005 87.5006 197 86.5808C196.995 85.6611 197.341 84.7738 197.968 84.0982C200.673 81.2796 203.935 79.0497 207.549 77.5493C218.876 72.8405 224.578 79.7924 227.188 86.0136C229.74 92.0987 228.304 97.7447 225.998 105.057C224.064 111.133 224.177 115.635 226.373 120.111C226.532 120.45 226.62 120.817 226.632 121.19C226.645 121.563 226.582 121.935 226.446 122.283C226.311 122.631 226.106 122.949 225.844 123.216C225.583 123.484 225.269 123.696 224.923 123.84Z" fill="#F58218"/>
<path d="M171.562 40.9135H147.721C147.645 40.914 147.57 40.8996 147.5 40.8711C147.43 40.8425 147.366 40.8005 147.312 40.7473C147.258 40.6942 147.216 40.6309 147.187 40.5613C147.158 40.4916 147.143 40.4169 147.143 40.3415C147.143 40.2661 147.158 40.1914 147.187 40.1217C147.216 40.0521 147.258 39.9888 147.312 39.9357C147.366 39.8825 147.43 39.8405 147.5 39.812C147.57 39.7834 147.645 39.769 147.721 39.7695H171.562C171.714 39.7706 171.859 39.8313 171.966 39.9384C172.072 40.0456 172.132 40.1905 172.132 40.3415C172.132 40.4925 172.072 40.6374 171.966 40.7446C171.859 40.8517 171.714 40.9124 171.562 40.9135Z" fill="#2F3139"/>
<path d="M201.806 41.1039H177.965C177.889 41.1044 177.814 41.09 177.744 41.0615C177.674 41.033 177.61 40.9909 177.556 40.9378C177.503 40.8846 177.46 40.8214 177.431 40.7517C177.402 40.6821 177.387 40.6074 177.387 40.5319C177.387 40.4565 177.402 40.3818 177.431 40.3122C177.46 40.2425 177.503 40.1793 177.556 40.1261C177.61 40.073 177.674 40.0309 177.744 40.0024C177.814 39.9739 177.889 39.9595 177.965 39.96H201.806C201.882 39.9595 201.957 39.9739 202.027 40.0024C202.097 40.0309 202.161 40.073 202.215 40.1261C202.268 40.1793 202.311 40.2425 202.34 40.3122C202.369 40.3818 202.384 40.4565 202.384 40.5319C202.384 40.6074 202.369 40.6821 202.34 40.7517C202.311 40.8214 202.268 40.8846 202.215 40.9378C202.161 40.9909 202.097 41.033 202.027 41.0615C201.957 41.09 201.882 41.1044 201.806 41.1039Z" fill="#2F3139"/>
<path d="M232.05 41.2943H208.209C208.057 41.2933 207.912 41.2326 207.805 41.1254C207.699 41.0183 207.639 40.8734 207.639 40.7224C207.639 40.5713 207.699 40.4264 207.805 40.3193C207.912 40.2121 208.057 40.1514 208.209 40.1504H232.05C232.126 40.1499 232.201 40.1643 232.271 40.1928C232.341 40.2213 232.405 40.2634 232.459 40.3165C232.513 40.3697 232.555 40.4329 232.584 40.5026C232.613 40.5722 232.628 40.6469 232.628 40.7224C232.628 40.7978 232.613 40.8725 232.584 40.9422C232.555 41.0118 232.513 41.075 232.459 41.1282C232.405 41.1814 232.341 41.2234 232.271 41.2519C232.201 41.2804 232.126 41.2948 232.05 41.2943Z" fill="#2F3139"/>
<path d="M262.294 41.4848H238.453C238.302 41.4837 238.156 41.423 238.05 41.3159C237.943 41.2087 237.883 41.0638 237.883 40.9128C237.883 40.7618 237.943 40.6169 238.05 40.5097C238.156 40.4026 238.302 40.3418 238.453 40.3408H262.294C262.446 40.3418 262.591 40.4026 262.698 40.5097C262.805 40.6169 262.865 40.7618 262.865 40.9128C262.865 41.0638 262.805 41.2087 262.698 41.3159C262.591 41.423 262.446 41.4837 262.294 41.4848Z" fill="#2F3139"/>
<path d="M159.589 35.6491C162.037 35.6491 164.02 33.6732 164.02 31.2357C164.02 28.7982 162.037 26.8223 159.589 26.8223C157.142 26.8223 155.158 28.7982 155.158 31.2357C155.158 33.6732 157.142 35.6491 159.589 35.6491Z" fill="#2F3139"/>
<path d="M190.015 35.6491C192.462 35.6491 194.446 33.6732 194.446 31.2357C194.446 28.7982 192.462 26.8223 190.015 26.8223C187.568 26.8223 185.584 28.7982 185.584 31.2357C185.584 33.6732 187.568 35.6491 190.015 35.6491Z" fill="#2F3139"/>
<path d="M220.443 35.6491C222.89 35.6491 224.874 33.6732 224.874 31.2357C224.874 28.7982 222.89 26.8223 220.443 26.8223C217.996 26.8223 216.012 28.7982 216.012 31.2357C216.012 33.6732 217.996 35.6491 220.443 35.6491Z" fill="#2F3139"/>
<path d="M250.869 35.6491C253.316 35.6491 255.3 33.6732 255.3 31.2357C255.3 28.7982 253.316 26.8223 250.869 26.8223C248.421 26.8223 246.438 28.7982 246.438 31.2357C246.438 33.6732 248.421 35.6491 250.869 35.6491Z" fill="#2F3139"/>
</g>
<defs>
<clipPath id="clip0_49_7276">
<rect width="281" height="186" fill="white"/>
</clipPath>
</defs>
</svg>
