<svg width="375" height="361" viewBox="0 0 375 361" fill="none" xmlns="http://www.w3.org/2000/svg">
<path d="M254.71 0H131.611C112.466 0 96.9453 15.5205 96.9453 34.6661V315.959C96.9453 335.105 112.466 350.625 131.611 350.625H254.71C273.855 350.625 289.376 335.105 289.376 315.959V34.6661C289.376 15.5205 273.855 0 254.71 0Z" fill="#2F2E41"/>
<path d="M286.129 34.6686V315.96C286.119 324.29 282.806 332.276 276.915 338.167C271.025 344.057 263.039 347.37 254.708 347.38H131.612C123.282 347.37 115.295 344.057 109.405 338.167C103.515 332.276 100.201 324.29 100.191 315.96V34.6686C100.201 26.3383 103.515 18.352 109.405 12.4616C115.295 6.57116 123.282 3.25769 131.612 3.24805H147.709V8.80847C147.709 11.3258 148.709 13.7399 150.489 15.5199C152.269 17.2999 154.683 18.3 157.2 18.3001H229.12C231.637 18.3 234.051 17.2999 235.831 15.5199C237.611 13.7399 238.611 11.3258 238.612 8.80847V3.24805H254.708C263.039 3.25769 271.025 6.57116 276.915 12.4616C282.806 18.352 286.119 26.3383 286.129 34.6686Z" fill="white"/>
<path d="M96.0603 71.1285C95.4343 71.1278 94.8342 70.8788 94.3916 70.4362C93.9489 69.9935 93.6999 69.3934 93.6992 68.7674V64.0452C93.6992 63.419 93.948 62.8184 94.3908 62.3756C94.8336 61.9328 95.4341 61.6841 96.0603 61.6841C96.6865 61.6841 97.2871 61.9328 97.7299 62.3756C98.1727 62.8184 98.4214 63.419 98.4214 64.0452V68.7674C98.4207 69.3934 98.1717 69.9935 97.7291 70.4362C97.2865 70.8788 96.6863 71.1278 96.0603 71.1285Z" fill="#2F2E41"/>
<path d="M96.0603 95.3426C95.4343 95.3419 94.8342 95.0929 94.3916 94.6503C93.9489 94.2076 93.6999 93.6075 93.6992 92.9815V79.9827C93.6992 79.3565 93.948 78.7559 94.3908 78.3131C94.8336 77.8703 95.4341 77.6216 96.0603 77.6216C96.6865 77.6216 97.2871 77.8703 97.7299 78.3131C98.1727 78.7559 98.4214 79.3565 98.4214 79.9827V92.9815C98.4207 93.6075 98.1717 94.2076 97.7291 94.6503C97.2865 95.0929 96.6863 95.3419 96.0603 95.3426Z" fill="#2F2E41"/>
<path d="M96.0603 114.809C95.4343 114.808 94.8342 114.559 94.3916 114.117C93.9489 113.674 93.6999 113.074 93.6992 112.448V99.449C93.6992 98.8228 93.948 98.2222 94.3908 97.7794C94.8336 97.3366 95.4341 97.0879 96.0603 97.0879C96.6865 97.0879 97.2871 97.3366 97.7299 97.7794C98.1727 98.2222 98.4214 98.8228 98.4214 99.449V112.448C98.4207 113.074 98.1717 113.674 97.7291 114.117C97.2865 114.559 96.6863 114.808 96.0603 114.809Z" fill="#2F2E41"/>
<path d="M289.67 104.184C289.044 104.183 288.444 103.934 288.001 103.492C287.558 103.049 287.309 102.449 287.309 101.823V70.1053C287.309 69.479 287.557 68.8785 288 68.4357C288.443 67.9929 289.043 67.7441 289.67 67.7441C290.296 67.7441 290.896 67.9929 291.339 68.4357C291.782 68.8785 292.031 69.479 292.031 70.1053V101.823C292.03 102.449 291.781 103.049 291.338 103.492C290.896 103.934 290.296 104.183 289.67 104.184Z" fill="#2F2E41"/>
<path d="M198.231 10.8288H179.933C179.541 10.8288 179.166 10.6734 178.889 10.3966C178.613 10.1199 178.457 9.74451 178.457 9.35314C178.457 8.96176 178.613 8.58641 178.889 8.30967C179.166 8.03292 179.541 7.87744 179.933 7.87744H198.231C198.623 7.87744 198.998 8.03292 199.275 8.30967C199.552 8.58641 199.707 8.96176 199.707 9.35314C199.707 9.74451 199.552 10.1199 199.275 10.3966C198.998 10.6734 198.623 10.8288 198.231 10.8288Z" fill="white"/>
<path d="M207.677 10.534C208.329 10.534 208.857 10.0054 208.857 9.35341C208.857 8.7014 208.329 8.17285 207.677 8.17285C207.025 8.17285 206.496 8.7014 206.496 9.35341C206.496 10.0054 207.025 10.534 207.677 10.534Z" fill="white"/>
<path d="M140.674 17.1611H124.737C123.954 17.1611 123.203 16.8501 122.65 16.2966C122.096 15.7431 121.785 14.9924 121.785 14.2097C121.785 13.4269 122.096 12.6762 122.65 12.1227C123.203 11.5692 123.954 11.2583 124.737 11.2583H140.674C141.457 11.2583 142.208 11.5692 142.761 12.1227C143.315 12.6762 143.625 13.4269 143.625 14.2097C143.625 14.9924 143.315 15.7431 142.761 16.2966C142.208 16.8501 141.457 17.1611 140.674 17.1611Z" fill="#E6E6E6"/>
<path d="M245.156 16.8662C246.623 16.8662 247.813 15.677 247.813 14.21C247.813 12.743 246.623 11.5537 245.156 11.5537C243.689 11.5537 242.5 12.743 242.5 14.21C242.5 15.677 243.689 16.8662 245.156 16.8662Z" fill="#E6E6E6"/>
<path d="M253.418 16.8662C254.885 16.8662 256.074 15.677 256.074 14.21C256.074 12.743 254.885 11.5537 253.418 11.5537C251.951 11.5537 250.762 12.743 250.762 14.21C250.762 15.677 251.951 16.8662 253.418 16.8662Z" fill="#E6E6E6"/>
<path d="M261.684 16.8662C263.151 16.8662 264.34 15.677 264.34 14.21C264.34 12.743 263.151 11.5537 261.684 11.5537C260.217 11.5537 259.027 12.743 259.027 14.21C259.027 15.677 260.217 16.8662 261.684 16.8662Z" fill="#E6E6E6"/>
<path d="M243.298 58.4121H143.128C141.188 58.4148 139.327 59.1868 137.955 60.5589C136.583 61.931 135.811 63.7911 135.809 65.7316V130.845C135.811 132.786 136.583 134.646 137.955 136.018C139.327 137.39 141.188 138.162 143.128 138.165H243.298C245.239 138.163 247.1 137.391 248.472 136.019C249.844 134.647 250.616 132.786 250.618 130.845V65.7316C250.616 63.7908 249.844 61.9301 248.472 60.5578C247.1 59.1855 245.239 58.4138 243.298 58.4121Z" fill="#F2F2F2"/>
<path d="M211.937 86.2094C202.885 102.215 192.896 117.671 182.021 132.499H166.312C176.602 119.964 186.898 107.429 197.203 94.8944C200.159 91.2852 203.367 87.5042 207.801 86.0376L211.937 86.2094Z" fill="#2F2E41"/>
<path d="M191.062 83.6429C189.423 85.3501 187.854 87.1261 186.376 88.9708C183.122 92.8894 179.913 96.8423 176.694 100.784C174.689 103.236 172.684 105.688 170.701 108.14C170.072 107.735 169.474 107.283 168.914 106.788C165.748 104.04 163.784 100.161 163.444 95.9827C163.103 91.8043 164.413 87.6588 167.092 84.4343C169.771 81.2098 173.606 79.1629 177.776 78.7323C181.946 78.3017 186.119 79.5216 189.401 82.1305C189.992 82.5918 190.547 83.0974 191.062 83.6429Z" fill="#F58218"/>
<path d="M250.619 81.7814V84.1602L249.556 83.7706L234.604 78.3046C229.735 76.5279 224.877 74.4974 219.847 73.2164C215.472 71.9648 210.826 72.0243 206.484 73.3876C202.613 74.8196 199.072 77.018 196.071 79.8512C194.743 81.0789 193.456 82.3362 192.211 83.6408C191.803 84.0717 191.396 84.5026 190.995 84.9335C189.791 86.2439 188.628 87.5838 187.524 88.971C184.271 92.8904 181.06 96.8453 177.843 100.782C175.836 103.238 173.829 105.688 171.846 108.137C165.223 116.242 158.64 124.362 152.095 132.498C151.214 132.488 150.337 132.377 149.48 132.168C156.157 123.874 162.864 115.602 169.603 107.352C169.756 107.163 169.91 106.974 170.063 106.786C170.854 105.8 171.663 104.808 172.466 103.822C175.825 99.7081 179.185 95.5978 182.548 91.4914C184.992 88.5046 187.418 85.506 190.05 82.6727C190.21 82.4897 190.375 82.3126 190.546 82.1296C190.8 81.8581 191.054 81.5925 191.313 81.3151C197.033 75.4064 204.17 70.1824 212.717 70.0407C217.746 69.964 222.604 71.5578 227.279 73.2401C232.314 75.064 237.332 76.9175 242.361 78.7592L250.619 81.7814Z" fill="#2F2E41"/>
<path d="M252.971 281.928H133.346C131.406 281.925 129.546 281.153 128.173 279.781C126.801 278.409 126.03 276.549 126.027 274.609V258.486C126.03 256.546 126.801 254.686 128.173 253.314C129.546 251.942 131.406 251.17 133.346 251.167H252.971C254.912 251.17 256.772 251.942 258.144 253.314C259.516 254.686 260.288 256.546 260.29 258.486V274.609C260.288 276.549 259.516 278.409 258.144 279.781C256.772 281.153 254.912 281.925 252.971 281.928Z" fill="#F2F2F2"/>
<path d="M252.971 199.289H133.346C131.406 199.287 129.546 198.515 128.173 197.143C126.801 195.771 126.03 193.91 126.027 191.97V175.848C126.03 173.907 126.801 172.047 128.173 170.675C129.546 169.303 131.406 168.531 133.346 168.529H252.971C254.912 168.531 256.772 169.303 258.144 170.675C259.516 172.047 260.288 173.907 260.29 175.848V191.97C260.288 193.91 259.516 195.771 258.144 197.143C256.772 198.515 254.912 199.287 252.971 199.289Z" fill="#F2F2F2"/>
<path d="M252.971 240.608H133.346C131.406 240.606 129.546 239.834 128.173 238.462C126.801 237.09 126.03 235.23 126.027 233.289V217.167C126.03 215.227 126.801 213.366 128.173 211.994C129.546 210.622 131.406 209.85 133.346 209.848H252.971C254.912 209.85 256.772 210.622 258.144 211.994C259.516 213.366 260.288 215.227 260.29 217.167V233.289C260.288 235.23 259.516 237.09 258.144 238.462C256.772 239.834 254.912 240.606 252.971 240.608Z" fill="#F2F2F2"/>
<path d="M207.694 263.788H172.448C172.03 263.788 171.629 263.622 171.333 263.326C171.037 263.031 170.871 262.63 170.871 262.212C170.871 261.793 171.037 261.392 171.333 261.097C171.629 260.801 172.03 260.635 172.448 260.635H207.694C208.112 260.635 208.514 260.801 208.809 261.097C209.105 261.392 209.271 261.793 209.271 262.212C209.271 262.63 209.105 263.031 208.809 263.326C208.514 263.622 208.112 263.788 207.694 263.788Z" fill="white"/>
<path d="M241.594 272.46H172.053C171.635 272.46 171.234 272.294 170.938 271.998C170.643 271.703 170.477 271.302 170.477 270.883C170.477 270.465 170.643 270.064 170.938 269.768C171.234 269.473 171.635 269.307 172.053 269.307H241.594C242.012 269.307 242.413 269.473 242.709 269.768C243.004 270.064 243.17 270.465 243.17 270.883C243.17 271.302 243.004 271.703 242.709 271.998C242.413 272.294 242.012 272.46 241.594 272.46Z" fill="white"/>
<path d="M153.72 277.119C159.559 277.119 164.292 272.386 164.292 266.548C164.292 260.709 159.559 255.976 153.72 255.976C147.881 255.976 143.148 260.709 143.148 266.548C143.148 272.386 147.881 277.119 153.72 277.119Z" fill="white"/>
<path d="M151.365 280.827C150.286 280.323 149.053 280.26 147.929 280.651C146.804 281.042 145.876 281.857 145.343 282.921C145.238 283.139 145.151 283.366 145.083 283.598L129.164 284.549L126.805 292.797L148.471 289.136C149.457 289.342 150.483 289.216 151.389 288.777C152.295 288.339 153.031 287.613 153.481 286.712C153.732 286.197 153.88 285.638 153.915 285.066C153.95 284.494 153.872 283.921 153.686 283.38C153.499 282.838 153.208 282.338 152.828 281.909C152.449 281.48 151.988 281.13 151.474 280.878C151.438 280.861 151.402 280.844 151.365 280.827Z" fill="#FFB6B6"/>
<path d="M116.227 240.146C115.178 239.716 114.049 239.518 112.917 239.564C111.784 239.61 110.675 239.9 109.664 240.413C108.654 240.926 107.765 241.651 107.06 242.538C106.355 243.425 105.848 244.454 105.576 245.554L101.199 263.229L102.022 294.15C102.022 294.15 124.867 298.533 128.703 295.715C132.538 292.898 132.178 290.8 132.538 292.898C132.898 294.995 134.544 295.875 134.567 295.041C134.59 294.206 134.776 294.349 135.731 294.098C136.687 293.846 140.905 292.292 140.905 292.292L141.094 283.476C141.094 283.476 134.121 280.832 132.429 281.621C130.737 282.41 132.789 283.718 130.737 282.41C128.685 281.101 128.461 276.97 128.11 280.693C127.759 284.416 126.732 285.109 125.194 283.454C123.656 281.798 116.528 282.856 116.528 282.856L121.064 248.484C121.292 246.755 120.941 244.999 120.066 243.491C119.191 241.982 117.841 240.806 116.227 240.146Z" fill="#F58218"/>
<path d="M270.074 331.842L270.315 325.331L245.315 321.306L244.961 330.915L270.074 331.842Z" fill="#FFB6B6"/>
<path d="M265.534 333.802L265.297 323.377L269.753 323.541L276.948 313.904C277.304 313.428 277.802 313.078 278.37 312.905C278.938 312.732 279.547 312.746 280.107 312.943C280.667 313.141 281.15 313.512 281.484 314.003C281.818 314.495 281.986 315.08 281.964 315.673L281.508 328.057L277.021 330.029L281.398 331.025L281.226 335.694L265.534 333.802Z" fill="#2F2E41"/>
<path d="M129.375 346.772L208.557 337.565C208.557 337.565 242.75 339.54 250.773 334.321L259.233 333.253L259.691 320.826C259.691 320.826 254.518 320.864 251.544 319.478C248.569 318.092 250.636 316.396 247.8 318.064C244.965 319.731 245.264 319.932 243.072 319.165C240.879 318.399 140.334 314.289 140.334 314.289L129.375 346.772Z" fill="#2F2E41"/>
<path d="M233.718 341.38L238.322 336.77L222.733 316.816L215.938 323.62L233.718 341.38Z" fill="#FFB6B6"/>
<path d="M229.055 339.73L235.971 331.927L239.126 335.078L250.955 332.907C251.54 332.799 252.143 332.882 252.677 333.141C253.211 333.401 253.648 333.825 253.925 334.351C254.201 334.876 254.302 335.477 254.213 336.064C254.124 336.651 253.849 337.195 253.43 337.615L244.672 346.383L240.042 344.777L242.573 348.484L239.271 351.79L229.055 339.73Z" fill="#2F2E41"/>
<path d="M98.1367 303.407L98.9239 321.706C99.8506 343.247 123.574 356.285 141.969 345.037C142.308 344.83 142.648 344.615 142.989 344.393C142.989 344.393 149.963 342.52 149.751 339.555C149.54 336.589 151.243 335.145 152.751 335.954C154.259 336.763 173.999 308.748 173.999 308.748C173.999 308.748 215.012 329.206 224.06 334.022L233.607 331.421C233.607 331.421 237.2 333.118 235.906 330.664C234.611 328.209 234.379 329.385 233.982 326.711C233.584 324.037 232.567 320.721 231.95 320.861C231.333 321 181.212 285.919 181.212 285.919C181.212 285.919 173.046 277.655 162.917 283.112C162.706 283.913 162.887 283.941 162.887 283.941L129.427 311.205L124.699 302.227L98.1367 303.407Z" fill="#2F2E41"/>
<path d="M120.623 236.173L106.277 229.449L101.982 236.923C101.982 236.923 90.4471 253.383 90.2798 265.259C90.1124 277.134 92.1596 280.665 92.1596 280.665C92.1596 280.665 87.1861 284.384 89.6729 286.656C92.1596 288.929 97.6649 289.91 93.4366 290.895C89.2082 291.881 90.2798 301.856 95.002 303.627C99.7242 305.398 125.085 305.382 125.085 305.382C124.857 304.609 124.84 303.788 125.036 303.006C125.233 302.224 125.635 301.509 126.201 300.935C128.167 298.964 129.937 300.378 128.167 297.31C126.396 294.242 123.444 296.013 125.805 291.881C128.167 287.749 128.166 286.514 128.166 286.514C128.166 286.514 132.979 277.353 125.729 267.416C125.287 266.81 125.659 266.787 125.659 266.787L119.804 247.168L120.623 236.173Z" fill="#F58218"/>
<path d="M97.5054 207.902C97.6267 210.933 95.717 215.226 94.7766 217.815C93.7711 220.582 98.1289 224.256 100.918 225.061C101.063 224.102 101.542 223.225 102.269 222.584C102.068 223.497 102.051 224.442 102.218 225.363L125.798 230.731C130.04 225.818 134.305 218.756 133.375 210.238C133.598 208.621 133.338 206.974 132.628 205.504C131.918 204.033 130.79 202.806 129.384 201.974L117.463 194.932C112.393 193.778 106.007 193.081 102.345 196.218C100.708 197.674 99.4229 199.482 98.5848 201.505C97.7467 203.529 97.3776 205.716 97.5054 207.902Z" fill="#2F2E41"/>
<path d="M118.584 228.136C126.082 228.136 132.161 222.057 132.161 214.559C132.161 207.061 126.082 200.983 118.584 200.983C111.086 200.983 105.008 207.061 105.008 214.559C105.008 222.057 111.086 228.136 118.584 228.136Z" fill="#FFB6B6"/>
<path d="M102.679 207.306L102.023 210.184L113.477 212.791C113.487 212.209 113.617 211.636 113.86 211.107C114.102 210.577 114.451 210.104 114.885 209.716C114.638 210.844 114.667 212.016 114.968 213.131C121.145 216.597 126.712 217.825 131.704 216.941C132.38 217.095 133.09 216.974 133.677 216.605C134.265 216.235 134.681 215.648 134.835 214.971C136.844 206.148 131.581 197.13 122.801 194.94C120.667 194.407 118.448 194.305 116.274 194.64C114.1 194.975 112.015 195.741 110.14 196.893C108.266 198.045 106.641 199.559 105.359 201.347C104.078 203.135 103.167 205.161 102.679 207.306Z" fill="#2F2E41"/>
<path d="M109.374 188.319C110.884 187.992 112.482 188.071 113.848 187.048L112.952 189.103C115.435 188.423 118.082 188.688 120.381 189.845C121.065 190.152 121.648 190.646 122.063 191.269C122.286 191.646 122.422 192.068 122.46 192.504C122.498 192.94 122.438 193.379 122.284 193.789C122.138 194.141 121.919 194.458 121.643 194.72C121.366 194.983 121.039 195.185 120.68 195.313C120.044 195.504 119.378 195.574 118.717 195.519C115.929 195.454 113.142 195.389 110.355 195.324C109.292 195.39 108.231 195.183 107.271 194.724C106.76 194.409 106.353 193.952 106.099 193.408C105.845 192.865 105.755 192.259 105.84 191.665C106.106 189.796 107.864 188.647 109.374 188.319Z" fill="#2F2E41"/>
<path d="M183.022 294.723C182.989 294.684 182.952 294.65 182.911 294.621C182.809 294.503 182.686 294.407 182.547 294.337L181.553 293.805L174.958 286.482C174.576 286.283 174.132 286.241 173.72 286.364L173.703 286.369L170.877 287.243L168.447 287.997L165.053 289.049L141.934 296.208L126.738 300.913C126.327 301.043 125.984 301.329 125.782 301.71C125.58 302.09 125.535 302.535 125.658 302.948C125.729 303.175 125.847 303.385 126.005 303.565L126.488 304.103L127.503 305.233L129.853 310.103L130.505 310.83C130.712 311.062 130.982 311.23 131.282 311.314C131.581 311.398 131.898 311.395 132.196 311.305L182.261 297.384C182.521 297.299 182.756 297.152 182.946 296.956C183.136 296.759 183.275 296.519 183.35 296.256C183.425 295.993 183.434 295.716 183.377 295.449C183.32 295.181 183.198 294.932 183.022 294.723Z" fill="#CCCCCC"/>
<path d="M180.047 222.293L179.078 222.45C178.812 222.494 178.574 222.641 178.417 222.86L177.99 223.457L174.137 233.092C173.98 233.312 173.917 233.585 173.962 233.852L174.413 236.597L172.707 285.593C172.75 285.847 172.886 286.075 173.089 286.233L180.569 296.24L180.744 296.379L181.121 296.674C181.314 296.823 181.554 296.899 181.797 296.889L182.433 296.859C182.578 296.852 182.719 296.814 182.848 296.748C182.976 296.683 183.09 296.59 183.18 296.478C183.271 296.366 183.338 296.236 183.374 296.096C183.411 295.957 183.417 295.811 183.392 295.669L181.222 223.131C181.178 222.865 181.03 222.626 180.811 222.469C180.592 222.312 180.319 222.248 180.052 222.292L180.047 222.293Z" fill="#CCCCCC"/>
<path d="M178.425 226.1L175.012 236.497L173.691 278.025L179.004 282.747L178.425 226.1Z" fill="#F58218"/>
<path d="M152.029 289.447C150.95 288.943 149.717 288.88 148.593 289.271C147.468 289.662 146.54 290.476 146.007 291.541C145.902 291.759 145.815 291.985 145.747 292.218L129.828 293.169L127.469 301.417L149.135 297.756C150.121 297.962 151.147 297.836 152.053 297.397C152.959 296.959 153.695 296.232 154.145 295.332C154.653 294.292 154.726 293.093 154.35 291.999C153.973 290.905 153.177 290.005 152.138 289.498C152.102 289.481 152.066 289.464 152.029 289.447Z" fill="#FFB6B6"/>
<path d="M116.891 248.765C115.842 248.335 114.713 248.137 113.581 248.183C112.448 248.229 111.339 248.519 110.328 249.032C109.318 249.545 108.43 250.27 107.724 251.157C107.019 252.044 106.512 253.073 106.24 254.173L101.863 271.848L102.687 302.769C102.687 302.769 125.532 307.152 129.367 304.335C133.202 301.517 132.842 299.419 133.202 301.517C133.562 303.614 135.208 304.495 135.231 303.66C135.254 302.826 135.44 302.968 136.395 302.717C137.351 302.465 141.569 300.911 141.569 300.911L141.758 292.095C141.758 292.095 134.785 289.451 133.093 290.24C131.401 291.029 133.453 292.338 131.401 291.029C129.349 289.72 129.125 285.589 128.774 289.312C128.424 293.035 127.396 293.728 125.858 292.073C124.32 290.417 117.192 291.475 117.192 291.475L121.728 257.103C121.956 255.374 121.605 253.618 120.73 252.11C119.855 250.601 118.505 249.425 116.891 248.765Z" fill="#F58218"/>
<path d="M348.596 199.289H228.971C227.031 199.287 225.171 198.515 223.798 197.143C222.426 195.771 221.655 193.91 221.652 191.97V175.848C221.655 173.907 222.426 172.047 223.798 170.675C225.171 169.303 227.031 168.531 228.971 168.529H348.596C350.537 168.531 352.397 169.303 353.769 170.675C355.141 172.047 355.913 173.907 355.915 175.848V191.97C355.913 193.91 355.141 195.771 353.769 197.143C352.397 198.515 350.537 199.287 348.596 199.289Z" fill="#E6E6E6"/>
<path d="M303.319 181.15H268.073C267.655 181.15 267.254 180.983 266.958 180.688C266.662 180.392 266.496 179.991 266.496 179.573C266.496 179.155 266.662 178.754 266.958 178.458C267.254 178.162 267.655 177.996 268.073 177.996H303.319C303.737 177.996 304.139 178.162 304.434 178.458C304.73 178.754 304.896 179.155 304.896 179.573C304.896 179.991 304.73 180.392 304.434 180.688C304.139 180.983 303.737 181.15 303.319 181.15Z" fill="white"/>
<path d="M337.219 189.821H267.678C267.26 189.821 266.859 189.655 266.563 189.36C266.268 189.064 266.102 188.663 266.102 188.245C266.102 187.827 266.268 187.425 266.563 187.13C266.859 186.834 267.26 186.668 267.678 186.668H337.219C337.637 186.668 338.038 186.834 338.334 187.13C338.629 187.425 338.795 187.827 338.795 188.245C338.795 188.663 338.629 189.064 338.334 189.36C338.038 189.655 337.637 189.821 337.219 189.821Z" fill="white"/>
<path d="M249.345 194.48C255.184 194.48 259.917 189.747 259.917 183.908C259.917 178.07 255.184 173.337 249.345 173.337C243.506 173.337 238.773 178.07 238.773 183.908C238.773 189.747 243.506 194.48 249.345 194.48Z" fill="white"/>
<path d="M310.229 240.608H190.604C188.664 240.606 186.803 239.834 185.431 238.462C184.059 237.09 183.287 235.23 183.285 233.289V217.167C183.287 215.227 184.059 213.366 185.431 211.994C186.803 210.622 188.664 209.85 190.604 209.848H310.229C312.169 209.85 314.03 210.622 315.402 211.994C316.774 213.366 317.546 215.227 317.548 217.167V233.289C317.546 235.23 316.774 237.09 315.402 238.462C314.03 239.834 312.169 240.606 310.229 240.608Z" fill="#E6E6E6"/>
<path d="M264.948 222.469H229.702C229.284 222.469 228.882 222.303 228.587 222.007C228.291 221.711 228.125 221.31 228.125 220.892C228.125 220.474 228.291 220.073 228.587 219.777C228.882 219.482 229.284 219.315 229.702 219.315H264.948C265.366 219.315 265.767 219.482 266.063 219.777C266.359 220.073 266.525 220.474 266.525 220.892C266.525 221.31 266.359 221.711 266.063 222.007C265.767 222.303 265.366 222.469 264.948 222.469Z" fill="white"/>
<path d="M298.848 231.141H229.307C228.889 231.141 228.488 230.975 228.192 230.679C227.897 230.383 227.73 229.982 227.73 229.564C227.73 229.146 227.897 228.745 228.192 228.449C228.488 228.153 228.889 227.987 229.307 227.987H298.848C299.266 227.987 299.667 228.153 299.963 228.449C300.258 228.745 300.424 229.146 300.424 229.564C300.424 229.982 300.258 230.383 299.963 230.679C299.667 230.975 299.266 231.141 298.848 231.141Z" fill="white"/>
<path d="M210.978 235.8C216.816 235.8 221.549 231.067 221.549 225.228C221.549 219.39 216.816 214.657 210.978 214.657C205.139 214.657 200.406 219.39 200.406 225.228C200.406 231.067 205.139 235.8 210.978 235.8Z" fill="white"/>
<path d="M324.684 342.102C325.238 342.122 325.784 341.973 326.25 341.676C326.715 341.379 327.077 340.949 327.286 340.442C327.495 339.936 327.541 339.378 327.418 338.845C327.295 338.312 327.009 337.829 326.598 337.462C326.527 337.195 326.477 337.004 326.406 336.737C326.923 335.405 327.831 334.255 329.015 333.435C330.199 332.615 331.604 332.162 333.05 332.135C334.496 332.108 335.918 332.508 337.132 333.283C338.346 334.058 339.298 335.173 339.866 336.486C343.141 343.852 347.36 351.47 345.377 359.636C358.72 331.036 353.747 295.662 333.387 271.502C327.795 268.531 323.234 263.202 322 256.976C324.762 257.871 328.173 255.629 326.076 252.788C325.168 251.703 324.251 250.627 323.344 249.542C333.696 238.456 346.323 255.607 334.955 270.546C338.766 275.168 342.076 280.171 344.832 285.472C344.153 279.822 344.843 274.093 346.846 268.757C348.88 263.782 352.743 259.573 356.138 255.257C360.266 249.998 368.889 252.325 369.515 258.943C365.671 260.23 365.223 265.73 369.641 266.44C368.605 278.773 360.554 290.173 349.368 295.682C353.629 307.131 355.368 319.345 354.468 331.509C356.315 317.285 371.737 313.693 382.486 307.946C383.169 307.504 383.968 307.268 384.785 307.267C385.602 307.266 386.402 307.499 387.086 307.939C387.771 308.378 388.311 309.005 388.641 309.742C388.971 310.479 389.077 311.295 388.945 312.09C387.459 312.702 386.039 313.459 384.706 314.348C384.081 314.771 383.604 315.374 383.34 316.075C383.076 316.776 383.039 317.54 383.233 318.263C383.427 318.986 383.843 319.632 384.423 320.112C385.004 320.593 385.721 320.885 386.476 320.947C381.159 334.294 367.166 343.355 352.706 343.44C351.374 349.41 349.417 355.228 346.865 360.798L325.404 361C325.325 360.765 325.253 360.523 325.182 360.289C327.17 360.393 329.163 360.257 331.117 359.884C325.802 353.794 321.708 350.7 324.684 342.102Z" fill="#F2F2F2"/>
<path d="M57.8842 335.746C57.1807 335.771 56.4863 335.58 55.8951 335.198C55.3039 334.815 54.8445 334.261 54.5792 333.609C54.3138 332.957 54.2552 332.239 54.4115 331.552C54.5677 330.866 54.9312 330.244 55.4527 329.771C55.5425 329.428 55.607 329.182 55.6968 328.838C55.0401 327.122 53.886 325.641 52.3822 324.586C50.8785 323.53 49.0938 322.947 47.2567 322.913C45.4197 322.878 43.6142 323.392 42.0715 324.39C40.5289 325.388 39.3194 326.824 38.5982 328.514C34.4386 337.999 29.0786 347.809 31.5977 358.324C14.6479 321.496 20.9651 275.947 46.829 244.837C53.9326 241.012 59.7261 234.15 61.2937 226.134C57.785 227.286 53.4517 224.399 56.1163 220.74C57.2696 219.343 58.4337 217.957 59.5868 216.56C46.4365 202.285 30.3958 224.371 44.837 243.606C39.9963 249.558 35.7911 256 32.2899 262.826C33.1527 255.55 32.2758 248.174 29.7315 241.303C27.1475 234.897 22.2414 229.477 17.9285 223.92C12.6848 217.148 1.73112 220.145 0.935715 228.667C5.81878 230.323 6.38776 237.405 0.775337 238.32C2.09184 254.2 12.3183 268.879 26.5283 275.974C21.1154 290.716 18.9068 306.442 20.0497 322.105C17.7039 303.79 -1.8878 299.165 -15.5419 291.764C-16.41 291.196 -17.4247 290.892 -18.4624 290.891C-19.5001 290.889 -20.5157 291.19 -21.3856 291.756C-22.2554 292.321 -22.9417 293.128 -23.3609 294.077C-23.78 295.027 -23.9138 296.077 -23.746 297.101C-21.8593 297.889 -20.0555 298.863 -18.3612 300.008C-17.5674 300.553 -16.9615 301.33 -16.6266 302.232C-16.2917 303.135 -16.2441 304.119 -16.4904 305.05C-16.7367 305.98 -17.2649 306.812 -18.0024 307.431C-18.74 308.05 -19.6509 308.425 -20.6103 308.506C-13.8559 325.692 3.91893 337.359 22.2877 337.469C23.9799 345.156 26.4663 352.647 29.7071 359.82L56.9693 360.08C57.0699 359.778 57.1608 359.466 57.2517 359.164C54.7267 359.299 52.1948 359.124 49.7124 358.643C56.464 350.802 61.6656 346.818 57.885 335.746L57.8842 335.746Z" fill="#F2F2F2"/>
<path d="M25 360.5C24.9998 360.566 25.0143 360.631 25.0427 360.692C25.0711 360.752 25.1129 360.808 25.1656 360.854C25.2183 360.9 25.2809 360.937 25.3498 360.962C25.4187 360.987 25.4926 361 25.5671 361H366.433C366.583 361 366.728 360.947 366.834 360.854C366.94 360.76 367 360.633 367 360.5C367 360.367 366.94 360.24 366.834 360.146C366.728 360.053 366.583 360 366.433 360H25.5671C25.4926 360 25.4187 360.013 25.3498 360.038C25.2809 360.063 25.2183 360.1 25.1656 360.146C25.1129 360.192 25.0711 360.248 25.0427 360.308C25.0143 360.369 24.9998 360.434 25 360.5Z" fill="#CCCCCC"/>
</svg>
