<svg width="0" height="0" fill="none" style="visibility: hidden; position: absolute;" aria-hidden="true">
    <symbol id="ac-repair" viewBox="0 0 24 24" xmlns="http://www.w3.org/2000/svg">
        <mask id="mask0_1_508__ac-repair" style="mask-type:luminance" maskUnits="userSpaceOnUse" x="0" y="0" width="24" height="24">
            <path d="M23.4 23.4V0.600002H0.6V23.4H23.4Z" stroke-width="1.2"/>
        </mask>
        <g mask="url(#mask0_1_508__ac-repair)">
            <path d="M20.4844 5.775C20.5413 5.775 20.5875 5.72882 20.5875 5.67188C20.5875 5.61493 20.5413 5.56875 20.4844 5.56875C20.4274 5.56875 20.3813 5.61493 20.3813 5.67188C20.3813 5.72882 20.4274 5.775 20.4844 5.775Z" fill="#00162E"/>
            <path d="M19.0781 9.89062H4.92187L3.51562 11.2969V12.7031H20.4844V11.2969L19.0781 9.89062Z" stroke-miterlimit="10" stroke-linecap="round" stroke-linejoin="round"/>
            <path d="M6.375 15.5156C6.375 18.6222 3.80972 21.1406 0.703125 21.1406" stroke-miterlimit="10" stroke-linecap="round" stroke-linejoin="round"/>
            <path d="M23.2969 21.1406C20.1903 21.1406 17.625 18.6222 17.625 15.5156" stroke-miterlimit="10" stroke-linecap="round" stroke-linejoin="round"/>
            <path d="M9.1875 15.5156V18.3281C9.1875 19.8814 7.9283 21.1406 6.375 21.1406" stroke-miterlimit="10" stroke-linecap="round" stroke-linejoin="round"/>
            <path d="M14.8125 15.5156V18.3281C14.8125 19.8814 16.0717 21.1406 17.625 21.1406" stroke-miterlimit="10" stroke-linecap="round" stroke-linejoin="round"/>
            <path d="M12 15.5156V21.1406" stroke-miterlimit="10" stroke-linecap="round" stroke-linejoin="round"/>
            <path d="M20.4844 11.2969H21.8906L23.2969 9.89062V2.85938H0.703125V9.89062L2.10937 11.2969H3.51562" stroke-miterlimit="10" stroke-linecap="round" stroke-linejoin="round"/>
        </g>
    </symbol>
    <symbol id="carpenter" viewBox="0 0 26 26" xmlns="http://www.w3.org/2000/svg">
        <path d="M17.4812 10.0127V13.0003C17.4812 15.4752 15.4749 17.4816 12.9999 17.4816C10.5249 17.4816 8.51855 15.4752 8.51855 13.0003V10.0127" stroke-miterlimit="10" stroke-linejoin="round"/>
        <path d="M8.51917 7.02441C7.69421 7.02441 7.02539 7.69318 7.02539 8.51819V10.012H18.9756V8.51819C18.9756 7.69323 18.3068 7.02441 17.4818 7.02441" stroke-miterlimit="10" stroke-linecap="round" stroke-linejoin="round"/>
        <path d="M11.5059 4.03732V1H14.4934V4.03732" stroke-miterlimit="10" stroke-linecap="round" stroke-linejoin="round"/>
        <path d="M8.51855 7.02528V5.5315C8.51855 3.88153 9.85614 2.54395 11.5061 2.54395" stroke-miterlimit="10" stroke-linecap="round" stroke-linejoin="round"/>
        <path d="M14.4941 2.54395C16.1441 2.54395 17.4817 3.88153 17.4817 5.5315V7.02528" stroke-miterlimit="10" stroke-linecap="round" stroke-linejoin="round"/>
        <path d="M17.4812 17.7305V18.9753C17.4812 20.6253 16.1436 21.9628 14.4937 21.9628H11.5061C9.85614 21.9628 8.51855 20.6253 8.51855 18.9753V17.7305" stroke-miterlimit="10" stroke-linecap="round" stroke-linejoin="round"/>
        <path d="M20.4688 18.2285V25.0003" stroke-miterlimit="10"/>
        <path d="M5.53125 25.0003V18.2285" stroke-miterlimit="10"/>
        <path d="M10.0076 16.4415C9.95347 17.119 9.44467 17.5759 8.76425 17.6893L4.7944 18.3509C2.63357 18.7111 1 20.5806 1 22.7713V24.9999H25V22.7713C25 20.5806 23.3664 18.7111 21.2056 18.3509L17.2358 17.6893C16.5553 17.5759 16.0465 17.0877 15.9924 16.4102" stroke-miterlimit="10" stroke-linecap="round" stroke-linejoin="round"/>
    </symbol>
    <symbol id="cleaning" viewBox="0 0 26 26" xmlns="http://www.w3.org/2000/svg">
        <path d="M17.3587 14.7217V18.7723L8.64062 20.2913V14.913" stroke-miterlimit="22.9256" stroke-linecap="round" stroke-linejoin="round"/>
        <path d="M16.5605 3.61065L18.0428 1L20.6301 2.51899L19.1478 5.12959" stroke-miterlimit="22.9256" stroke-linecap="round" stroke-linejoin="round"/>
        <path d="M1 14.7217H25" stroke-miterlimit="22.9256" stroke-linecap="round" stroke-linejoin="round"/>
        <path d="M24.0539 14.7217L23.2768 23.1635C23.1806 24.2082 22.3255 25.0002 21.2936 25.0002H4.70449C3.67249 25.0002 2.81726 24.2079 2.7213 23.163L1.89526 14.8349" stroke-miterlimit="22.9256" stroke-linecap="round" stroke-linejoin="round"/>
        <path d="M14.793 14.4483C14.793 9.74021 14.793 11.4317 14.793 6.72364L16.5606 3.61035L19.1479 5.12934L18.2441 6.7213L19.2973 7.25069C20.5327 7.87168 21.266 9.07221 21.266 10.4736V14.7213" stroke-miterlimit="22.9256" stroke-linecap="round" stroke-linejoin="round"/>
        <path d="M5.13266 14.7213V11.0758L3.6189 8.1709" stroke-miterlimit="22.9256" stroke-linecap="round" stroke-linejoin="round"/>
        <path d="M9.66395 8.03809L8.12036 11.0758V14.5818" stroke-miterlimit="22.9256" stroke-linecap="round" stroke-linejoin="round"/>
        <path fill-rule="evenodd" clip-rule="evenodd" d="M2.21876 5H11.0343C11.7046 5 12.2531 5.55773 12.2531 6.23933V8.03793H1V6.23933C1 5.55768 1.54842 5 2.21876 5Z" stroke-miterlimit="22.9256" stroke-linecap="round" stroke-linejoin="round"/>
    </symbol>
    <symbol id="cooking" viewBox="0 0 24 24" xmlns="http://www.w3.org/2000/svg">
        <g clip-path="url(#clip0_1_590__cooking)">
            <path d="M15.9 9.36063C16.935 7.46214 17.0594 5.5307 15.7936 3.71223C15.7358 4.77016 14.9718 5.67869 13.6921 5.96941C14.0971 3.39494 12.4644 2.06608 10.5349 1C10.5349 1 12.0546 3.75752 9.39258 6.27887L8.40783 3.91933C7.00397 5.69172 6.88903 7.68325 7.8833 9.36063" stroke-miterlimit="10" stroke-linejoin="round"/>
            <path d="M17.9072 11.672L20.9402 10.7812" stroke-miterlimit="10" stroke-linecap="round" stroke-linejoin="round"/>
            <path d="M3 10.7812L6.0525 11.6777" stroke-miterlimit="10" stroke-linecap="round" stroke-linejoin="round"/>
            <path d="M8.65207 14.4531L6.50024 24" stroke-miterlimit="10" stroke-linecap="square" stroke-linejoin="round"/>
            <path d="M15.2939 14.459L17.2784 23.9207" stroke-miterlimit="10" stroke-linecap="round" stroke-linejoin="round"/>
            <path d="M5.54688 9.36035C5.54688 12.646 8.42659 15.3094 11.9789 15.3094C15.5312 15.3094 18.4109 12.646 18.4109 9.36035H5.54688Z" stroke-miterlimit="10" stroke-linecap="round" stroke-linejoin="round"/>
            <path d="M16.0849 18.2305H7.8457" stroke-miterlimit="10" stroke-linecap="round" stroke-linejoin="round"/>
        </g>
        <defs>
            <clipPath id="clip0_1_590__cooking">
                <rect width="24" height="24" fill="white"/>
            </clipPath>
        </defs>
    </symbol>
    <symbol id="electrician" viewBox="0 0 26 26" xmlns="http://www.w3.org/2000/svg">
        <path d="M7.44095 18.5586L4.17578 21.8238" stroke-miterlimit="10" stroke-linecap="round" stroke-linejoin="round"/>
        <path d="M8.30078 4.78125L11.5324 8.01291" stroke-miterlimit="10" stroke-linecap="round" stroke-linejoin="round"/>
        <path d="M17.9875 14.4756L21.2192 17.7072" stroke-miterlimit="10" stroke-linecap="round" stroke-linejoin="round"/>
        <path d="M17.1361 21.7903C13.5666 25.3599 7.74554 25.3935 4.176 21.824C0.606473 18.2545 0.64013 12.4334 4.20966 8.86384L11.5661 1.51562L14.7977 4.74723L7.44127 12.0955C5.6565 13.8802 5.6565 16.7739 7.44127 18.5587C9.22604 20.3435 12.1197 20.3435 13.9045 18.5587L21.2527 11.2105L24.4844 14.4421L17.1361 21.7903Z" stroke-miterlimit="10" stroke-linecap="round" stroke-linejoin="round"/>
        <path d="M21.0057 5.37598L17.5747 6.90091L19.0996 8.4258L16.0498 9.9507" stroke-miterlimit="10" stroke-linecap="round" stroke-linejoin="round"/>
    </symbol>
    <symbol id="painter" viewBox="0 0 24 26" xmlns="http://www.w3.org/2000/svg">
        <path d="M19.0283 4.13672H20.692" stroke-miterlimit="10" stroke-linecap="round" stroke-linejoin="round"/>
        <path d="M6.16676 4.13672H4.44265C3.81579 4.13672 3.30762 4.64489 3.30762 5.27175V8.4818C3.30762 9.10866 3.81579 9.61683 4.44265 9.61683H11.4216C12.0711 9.61683 12.5976 10.1433 12.5976 10.7928V13.5525" stroke-miterlimit="10" stroke-linecap="round" stroke-linejoin="round"/>
        <path d="M12.5977 24.484C11.3867 24.484 10.42 23.4744 10.4728 22.2645L10.8525 13.5518H14.3429L14.7226 22.2645C14.7754 23.4744 13.8088 24.484 12.5977 24.484Z" stroke-miterlimit="10" stroke-linecap="round" stroke-linejoin="round"/>
        <path d="M18.3802 6.75747H6.81499C6.4571 6.75747 6.16699 6.46736 6.16699 6.10947V2.16362C6.16699 1.80573 6.4571 1.51562 6.81499 1.51562H18.3802C18.7381 1.51562 19.0282 1.80573 19.0282 2.16362V6.10947C19.0282 6.46731 18.7381 6.75747 18.3802 6.75747Z" stroke-miterlimit="10" stroke-linecap="round" stroke-linejoin="round"/>
        <path d="M16.8162 12.5669C16.7599 11.1931 18.1109 9.62305 18.1109 9.62305C18.1109 9.62305 19.4619 11.1932 19.4056 12.5669C19.3391 14.1907 16.8827 14.1907 16.8162 12.5669Z" stroke-miterlimit="10" stroke-linecap="round" stroke-linejoin="round"/>
    </symbol>
    <symbol id="plumber" viewBox="0 0 26 26" xmlns="http://www.w3.org/2000/svg">
        <path d="M25.0007 22.0127H15.9883V25.0003H25.0007V22.0127Z" stroke-miterlimit="10" stroke-linecap="round" stroke-linejoin="round"/>
        <path d="M23.5066 22.0127V17.4816C23.5066 13.3566 20.1128 10.0127 15.9879 10.0127H14.4941" stroke-miterlimit="10" stroke-linecap="round" stroke-linejoin="round"/>
        <path d="M14.4941 15.9873C16.1441 15.9873 17.4817 17.3249 17.4817 18.9749V22.0122" stroke-miterlimit="10" stroke-linecap="round" stroke-linejoin="round"/>
        <path d="M14.4934 8.51855H11.5059V17.4812H14.4934V8.51855Z" stroke-miterlimit="10" stroke-linecap="round" stroke-linejoin="round"/>
        <path d="M10.0124 1H1V3.98756H10.0124V1Z" stroke-miterlimit="10" stroke-linecap="round" stroke-linejoin="round"/>
        <path d="M11.5061 10.0122C9.85614 10.0122 8.51855 8.6746 8.51855 7.02463V3.9873" stroke-miterlimit="10" stroke-linecap="round" stroke-linejoin="round"/>
        <path d="M2.49414 3.9873V8.51841C2.49414 12.6434 5.88789 15.9873 10.0128 15.9873H11.5066" stroke-miterlimit="10" stroke-linecap="round" stroke-linejoin="round"/>
    </symbol>
    <symbol id="salon" viewBox="0 0 24 24" xmlns="http://www.w3.org/2000/svg">
        <g clip-path="url(#clip0_1_600__salon)">
            <path d="M20.1934 23.473V20.6113" stroke-miterlimit="10"/>
            <path d="M18.8582 10.3838C17.3113 12.9814 14.3407 14.7392 10.9301 14.7392C7.58976 14.7392 4.67146 12.8937 3.09937 10.3838" stroke-miterlimit="10" stroke-linecap="round" stroke-linejoin="round"/>
            <path d="M10.8726 17.4087V14.7393" stroke-miterlimit="10" stroke-linecap="round" stroke-linejoin="round"/>
            <path d="M2.90796 14.2841L4.79557 12.3965" stroke-miterlimit="10" stroke-linecap="round" stroke-linejoin="round"/>
            <path d="M6.64453 16.5972L7.57125 14.0938" stroke-miterlimit="10" stroke-linecap="round" stroke-linejoin="round"/>
            <path d="M19.0572 14.3046L17.1697 12.417" stroke-miterlimit="10" stroke-linecap="round" stroke-linejoin="round"/>
            <path d="M15.3093 16.6059L14.3826 14.1025" stroke-miterlimit="10" stroke-linecap="round" stroke-linejoin="round"/>
            <path d="M0.515625 3.18444V5.88706L9.83236 4.93231C13.4856 4.55408 17.1685 5.2775 20.4072 7.00948L23.4844 8.58284L19.701 3.08703C19.1135 2.29381 18.349 1.64858 17.4684 1.20252C16.4576 0.690547 15.3282 0.458469 14.1975 0.530375L2.30245 1.28127C1.29792 1.34469 0.515625 2.17789 0.515625 3.18444Z" stroke-miterlimit="10" stroke-linecap="round" stroke-linejoin="round"/>
            <path d="M4.52808 20.6104H23.4806V23.4818H4.52808" stroke-miterlimit="10" stroke-linecap="round" stroke-linejoin="round"/>
            <path d="M4.52793 20.6104L1.71777 21.9704L4.52793 23.4818L5.03484 23.1499C5.77795 22.6634 5.81545 21.5878 5.10801 21.0508L4.52793 20.6104Z" stroke-miterlimit="10" stroke-linecap="round" stroke-linejoin="round"/>
            <path d="M1.71804 21.9707H0.524414" stroke-miterlimit="10" stroke-linecap="round" stroke-linejoin="round"/>
        </g>
        <defs>
            <clipPath id="clip0_1_600__salon">
                <rect width="24" height="24" fill="white"/>
            </clipPath>
        </defs>
    </symbol>
    
    <symbol id="installation" viewBox="0 0 24 24" fill="none" xmlns="http://www.w3.org/2000/svg">
    <mask id="mask0_1_12470" style="mask-type:luminance" maskUnits="userSpaceOnUse" x="2" y="2" width="20" height="20">
        <path d="M2 2H22V22H2V2Z" />
    </mask>
    <g mask="url(#mask0_1_12470)">
        <path
            d="M7.3125 9.61719C5.37387 9.61719 3.79688 8.0402 3.79688 6.10156C3.79688 4.16293 5.37387 2.58594 7.3125 2.58594C9.25113 2.58594 10.8281 4.16293 10.8281 6.10156C10.8281 8.0402 9.25113 9.61719 7.3125 9.61719Z"
            stroke-miterlimit="10" stroke-linecap="round" stroke-linejoin="round" />
        <path
            d="M16.6875 9.61719C14.7489 9.61719 13.1719 8.0402 13.1719 6.10156C13.1719 4.16293 14.7489 2.58594 16.6875 2.58594C18.6261 2.58594 20.2031 4.16293 20.2031 6.10156C20.2031 8.0402 18.6261 9.61719 16.6875 9.61719Z"
            stroke-miterlimit="10" stroke-linecap="round" stroke-linejoin="round" />
        <path d="M7.3125 6.10156V4.92969" stroke-miterlimit="10" stroke-linecap="round" stroke-linejoin="round" />
        <path d="M16.6875 6.10156V4.92969" stroke-miterlimit="10" stroke-linecap="round" stroke-linejoin="round" />
        <path d="M13.1719 18.9922H10.8281V10.7891H13.1719V18.9922Z" stroke-miterlimit="10" stroke-linecap="round"
            stroke-linejoin="round" />
        <path
            d="M13.1719 11.9609H17.8594C18.5066 11.9609 19.0312 12.4856 19.0312 13.1328V16.6484C19.0312 17.2956 18.5066 17.8203 17.8594 17.8203H13.1719"
            stroke-miterlimit="10" stroke-linecap="round" stroke-linejoin="round" />
        <path
            d="M10.8281 17.8203H6.14062C5.49344 17.8203 4.96875 17.2956 4.96875 16.6484V13.1328C4.96875 12.4856 5.49344 11.9609 6.14062 11.9609H10.8281"
            stroke-miterlimit="10" stroke-linecap="round" stroke-linejoin="round" />
        <path d="M21.4141 14.3047H19.0312" stroke-miterlimit="10" stroke-linecap="round" stroke-linejoin="round" />
        <path d="M21.4141 15.4766V13.1328" stroke-miterlimit="10" stroke-linecap="round" stroke-linejoin="round" />
        <path d="M2.58594 14.3047H4.96875" stroke-miterlimit="10" stroke-linecap="round" stroke-linejoin="round" />
        <path d="M2.58594 15.4766V13.1328" stroke-miterlimit="10" stroke-linecap="round" stroke-linejoin="round" />
        <path d="M7.20874 9.64977V11.9609" stroke-miterlimit="10" stroke-linecap="round" stroke-linejoin="round" />
        <path d="M16.5837 9.64977V11.9609" stroke-miterlimit="10" stroke-linecap="round" stroke-linejoin="round" />
        <path d="M7.3125 17.8203V20.2422C7.3125 20.8894 6.78781 21.4141 6.14062 21.4141H2.58594" stroke-miterlimit="10" stroke-linecap="round" stroke-linejoin="round" />
        <path d="M16.6875 17.8203V20.2422C16.6875 20.8894 17.2122 21.4141 17.8594 21.4141H21.4141" stroke-miterlimit="10" stroke-linecap="round" stroke-linejoin="round" />
    </g>
</symbol>
<symbol id="servicing" viewBox="0 0 24 24" fill="none" xmlns="http://www.w3.org/2000/svg">
    <mask id="mask0_1_12537" style="mask-type:luminance" maskUnits="userSpaceOnUse" x="2" y="2" width="20" height="20">
        <path d="M2 2H22V22H2V2Z" fill="white" />
    </mask>
    <g mask="url(#mask0_1_12537)">
        <path
            d="M19.8516 17.8594H4.14844C3.28547 17.8594 2.58594 17.1598 2.58594 16.2969V5.35938C2.58594 4.49645 3.28547 3.79688 4.14844 3.79688H19.8516C20.7145 3.79688 21.4141 4.49645 21.4141 5.35938V16.2969C21.4141 17.1598 20.7145 17.8594 19.8516 17.8594Z"
            stroke-miterlimit="10" stroke-linecap="round" stroke-linejoin="round" />
        <path d="M7.27344 17.8594V3.79688" stroke-miterlimit="10" stroke-linecap="round" stroke-linejoin="round" />
        <path d="M14.3438 15.5156C15.0534 14.4512 15.0534 13.0645 14.3438 12" stroke-miterlimit="10"
            stroke-linecap="round" stroke-linejoin="round" />
        <path d="M14.343 9.65625C13.6334 8.5918 13.6334 7.20508 14.343 6.14062" stroke-miterlimit="10"
            stroke-linecap="round" stroke-linejoin="round" />
        <path d="M17.6581 14.1426C17.4072 12.8881 16.4266 11.9075 15.1721 11.6566" stroke-miterlimit="10"
            stroke-linecap="round" stroke-linejoin="round" />
        <path d="M13.5152 9.99927C12.2608 9.74837 11.2802 8.76782 11.0293 7.51333" stroke-miterlimit="10"
            stroke-linecap="round" stroke-linejoin="round" />
        <path d="M19.0312 10.8281C17.9668 10.1185 16.5801 10.1185 15.5156 10.8281" stroke-miterlimit="10"
            stroke-linecap="round" stroke-linejoin="round" />
        <path d="M13.1719 10.8281C12.1074 11.5378 10.7207 11.5378 9.65625 10.8281" stroke-miterlimit="10"
            stroke-linecap="round" stroke-linejoin="round" />
        <path d="M17.6581 7.51333C16.4036 7.76423 15.423 8.74478 15.1721 9.99927" stroke-miterlimit="10"
            stroke-linecap="round" stroke-linejoin="round" />
        <path d="M13.5152 11.6566C13.2643 12.9111 12.2838 13.8917 11.0293 14.1426" stroke-miterlimit="10"
            stroke-linecap="round" stroke-linejoin="round" />
        <path
            d="M19.0312 10.8281C19.0312 13.417 16.9326 15.5156 14.3438 15.5156C11.7549 15.5156 9.65625 13.417 9.65625 10.8281C9.65625 8.2393 11.7549 6.14062 14.3438 6.14062C16.9326 6.14062 19.0312 8.2393 19.0312 10.8281Z"
            stroke-miterlimit="10" stroke-linecap="round" stroke-linejoin="round" />
        <path
            d="M15.5156 10.8281C15.5156 11.4753 14.9909 12 14.3438 12C13.6966 12 13.1719 11.4753 13.1719 10.8281C13.1719 10.1809 13.6966 9.65625 14.3438 9.65625C14.9909 9.65625 15.5156 10.1809 15.5156 10.8281Z"
            stroke-miterlimit="10" stroke-linecap="round" stroke-linejoin="round" />
        <path d="M4.92969 6.14062V10.8281" stroke-miterlimit="10" stroke-linecap="round" stroke-linejoin="round" />
        <path
            d="M5.51562 13.1719C5.51562 13.4955 5.25328 13.7578 4.92969 13.7578C4.60609 13.7578 4.34375 13.4955 4.34375 13.1719C4.34375 12.8483 4.60609 12.5859 4.92969 12.5859C5.25328 12.5859 5.51562 12.8483 5.51562 13.1719Z"
            fill="#00162E" />
        <path
            d="M5.51562 15.5156C5.51562 15.8392 5.25328 16.1016 4.92969 16.1016C4.60609 16.1016 4.34375 15.8392 4.34375 15.5156C4.34375 15.192 4.60609 14.9297 4.92969 14.9297C5.25328 14.9297 5.51562 15.192 5.51562 15.5156Z"
            fill="#00162E" />
        <path d="M19.8516 20.2031H17.5078V17.8594H19.8516V20.2031Z" stroke-miterlimit="10" stroke-linecap="round"
            stroke-linejoin="round" />
        <path d="M6.49219 20.2031H4.14844V17.8594H6.49219V20.2031Z" stroke-miterlimit="10" stroke-linecap="round"
            stroke-linejoin="round" />
    </g>
</symbol>

</svg>